NewsreaderText-Bold.ufo
<glyph name="exclam" format="2">
	<unicode hex="0021"/>
	<advance width="555.88"/>
	<outline>
		<contour>
			<point x="449.92" y="1255.496" type="line" smooth="yes"/>
			<point x="450.272" y="1330.152"/>
			<point x="364.208" y="1366.48"/>
			<point x="278.144" y="1366.48" type="curve" smooth="yes"/>
			<point x="192.08" y="1366.48"/>
			<point x="106.016" y="1330.152"/>
			<point x="106.368" y="1255.496" type="curve" smooth="yes"/>
			<point x="107.776" y="1187.696" type="line" smooth="yes"/>
			<point x="108.832" y="1090.28"/>
			<point x="157.68" y="911.296"/>
			<point x="244.256" y="464.688" type="curve"/>
			<point x="312.032" y="464.688" type="line"/>
			<point x="398.608" y="911.296"/>
			<point x="447.456" y="1090.28"/>
			<point x="448.512" y="1187.696" type="curve" smooth="yes"/>
		</contour>
		<contour>
			<point x="278.736" y="305" type="curve" smooth="yes"/>
			<point x="182.168" y="305"/>
			<point x="112.376" y="232.56"/>
			<point x="112.376" y="142.584" type="curve" smooth="yes"/>
			<point x="112.376" y="51.96"/>
			<point x="182.168" y="-20.48"/>
			<point x="278.736" y="-20.48" type="curve" smooth="yes"/>
			<point x="375.304" y="-20.48"/>
			<point x="445.096" y="51.96"/>
			<point x="445.096" y="142.584" type="curve" smooth="yes"/>
			<point x="445.096" y="232.56"/>
			<point x="375.304" y="305"/>
		</contour>
	</outline>
</glyph>
<glyph name="quotesingle" format="2">
  <advance width="412"/>
  <unicode hex="0027"/>
  <outline>
    <contour>
      <point x="155.184" y="810.808" type="line"/>
      <point x="255.216" y="810.808" type="line"/>
      <point x="343.264" y="1285.52" type="line"/>
      <point x="343.264" y="1340.0" type="line"/>
      <point x="70.432" y="1340.0" type="line"/>
      <point x="70.432" y="1285.52" type="line"/>
    </contour>
  </outline>
</glyph>
<glyph name="parenleft" format="2">
  <advance width="575"/>
  <unicode hex="0028"/>
  <outline>
    <contour>
      <point x="282.712" y="573.296" type="curve" smooth="yes"/>
      <point x="282.712" y="832.72"/>
      <point x="331.0291114499994" y="1047.136178319999"/>
      <point x="531.896" y="1379.28" type="curve"/>
      <point x="470.4" y="1425.48" type="line"/>
      <point x="131.75297925521232" y="1036.4285758560693"/>
      <point x="68.152" y="857.208"/>
      <point x="68.152" y="573.296" type="curve" smooth="yes"/>
      <point x="68.152" y="289.384"/>
      <point x="131.75297925521232" y="110.1634241439308"/>
      <point x="470.4" y="-278.888" type="curve"/>
      <point x="531.896" y="-232.688" type="line"/>
      <point x="331.0291114499994" y="99.45582168000102"/>
      <point x="282.712" y="313.872"/>
    </contour>
  </outline>
</glyph>
<glyph name="parenright" format="2">
	<unicode hex="0029"/>
	<advance width="575.048"/>
	<outline>
		<contour>
			<point x="292.336" y="573.296" type="curve" smooth="yes"/>
			<point x="292.336" y="313.872"/>
			<point x="243.912" y="99.496"/>
			<point x="43.152" y="-232.688" type="curve"/>
			<point x="104.648" y="-278.888" type="line"/>
			<point x="443.336" y="110.12"/>
			<point x="506.896" y="289.384"/>
			<point x="506.896" y="573.296" type="curve" smooth="yes"/>
			<point x="506.896" y="857.208"/>
			<point x="443.336" y="1036.472"/>
			<point x="104.648" y="1425.48" type="curve"/>
			<point x="43.152" y="1379.28" type="line"/>
			<point x="243.912" y="1047.096"/>
			<point x="292.336" y="832.72"/>
		</contour>
	</outline>
</glyph>
<glyph name="plus" format="2">
	<unicode hex="002B"/>
	<advance width="1000"/>
	<outline>
		<contour>
			<point x="438.56" y="812.44" type="line"/>
			<point x="438.56" y="59.56" type="line"/>
			<point x="561.44" y="59.56" type="line"/>
			<point x="561.44" y="812.44" type="line"/>
		</contour>
		<contour>
			<point x="876.44" y="497.44" type="line"/>
			<point x="123.56" y="497.44" type="line"/>
			<point x="123.56" y="374.56" type="line"/>
			<point x="876.44" y="374.56" type="line"/>
		</contour>
	</outline>
</glyph>
<glyph name="comma" format="2">
  <advance width="499"/>
  <unicode hex="002C"/>
  <outline>
    <contour>
      <point x="64.128" y="-305.832" type="curve"/>
      <point x="127.384" y="-369.79200000000003" type="line"/>
      <point x="354.856" y="-174.504"/>
      <point x="413.728" y="-32.472"/>
      <point x="413.728" y="110.952" type="curve" smooth="yes"/>
      <point x="413.728" y="234.04000000000002"/>
      <point x="348.896" y="304.648"/>
      <point x="243.144" y="304.648" type="curve" smooth="yes"/>
      <point x="143.76" y="304.648"/>
      <point x="75.728" y="231.856"/>
      <point x="75.728" y="139.416" type="curve" smooth="yes"/>
      <point x="75.728" y="80.824"/>
      <point x="227.816" y="52.144000000000005"/>
      <point x="227.816" y="-54.368" type="curve" smooth="yes"/>
      <point x="227.816" y="-117.536"/>
      <point x="183.184" y="-200.056"/>
    </contour>
  </outline>
</glyph>
<glyph name="hyphen" format="2">
  <advance width="699.904"/>
  <unicode hex="002D"/>
  <outline>
    <contour>
      <point x="107.096" y="529.512" type="line"/>
      <point x="107.096" y="356.096" type="line"/>
      <point x="592.808" y="356.096" type="line"/>
      <point x="592.808" y="529.512" type="line"/>
    </contour>
  </outline>
</glyph>
<glyph name="period" format="2">
	<unicode hex="002E"/>
	<advance width="487.952"/>
	<outline>
		<contour>
			<point x="243.976" y="305" type="curve" smooth="yes"/>
			<point x="147.408" y="305"/>
			<point x="77.616" y="232.56"/>
			<point x="77.616" y="142.584" type="curve" smooth="yes"/>
			<point x="77.616" y="51.96"/>
			<point x="147.408" y="-20.48"/>
			<point x="243.976" y="-20.48" type="curve" smooth="yes"/>
			<point x="340.544" y="-20.48"/>
			<point x="410.336" y="51.96"/>
			<point x="410.336" y="142.584" type="curve" smooth="yes"/>
			<point x="410.336" y="232.56"/>
			<point x="340.544" y="305"/>
		</contour>
	</outline>
</glyph>
<glyph name="slash" format="2">
	<unicode hex="002F"/>
	<advance width="781.408"/>
	<outline>
		<contour>
			<point x="45.928" y="0" type="line"/>
			<point x="172.536" y="0" type="line"/>
			<point x="735.128" y="1340" type="line"/>
			<point x="609.168" y="1340" type="line"/>
		</contour>
	</outline>
</glyph>
<glyph name="zero" format="2">
	<unicode hex="0030"/>
	<advance width="1229.6"/>
	<outline>
		<contour>
			<point x="619.744" y="87.624" type="curve" smooth="yes"/>
			<point x="465.3346361683" y="87.624"/>
			<point x="389.224" y="293.168"/>
			<point x="389.224" y="711.664" type="curve" smooth="yes"/>
			<point x="389.224" y="1073.368"/>
			<point x="467.2252007824" y="1252.376"/>
			<point x="609.856" y="1252.376" type="curve" smooth="yes"/>
			<point x="763.9174333476" y="1252.376"/>
			<point x="840.024" y="1046.832"/>
			<point x="840.024" y="628.336" type="curve" smooth="yes"/>
			<point x="840.024" y="266.632"/>
			<point x="762.0269198809" y="87.624"/>
		</contour>
		<contour>
			<point x="614.8" y="1366.48" type="curve" smooth="yes"/>
			<point x="279.131524957" y="1366.48"/>
			<point x="75.48" y="1101.384"/>
			<point x="75.48" y="668" type="curve" smooth="yes"/>
			<point x="75.48" y="236.264"/>
			<point x="279.131524957" y="-26.48"/>
			<point x="614.8" y="-26.48" type="curve" smooth="yes"/>
			<point x="951.524475043" y="-26.48"/>
			<point x="1154.12" y="238.616"/>
			<point x="1154.12" y="672" type="curve" smooth="yes"/>
			<point x="1154.12" y="1103.736"/>
			<point x="951.524475043" y="1366.48"/>
		</contour>
	</outline>
</glyph>
<glyph name="one" format="2">
  <advance width="1229.6"/>
  <unicode hex="0031"/>
  <outline>
    <contour>
      <point x="543.816" y="112.144" type="line"/>
      <point x="274.128" y="47.480000000000004" type="line"/>
      <point x="274.128" y="0.0" type="line"/>
      <point x="1095.952" y="0.0" type="line"/>
      <point x="1095.952" y="47.480000000000004" type="line"/>
      <point x="843.56" y="112.144" type="line"/>
      <point x="843.56" y="1347.04" type="line"/>
      <point x="694.736" y="1347.04" type="line"/>
      <point x="151.856" y="1063.232" type="line"/>
      <point x="179.112" y="994.424" type="line"/>
      <point x="610.2" y="1128.4" type="line"/>
      <point x="543.816" y="1184.2" type="line"/>
    </contour>
  </outline>
</glyph>
<glyph name="colon" format="2">
	<unicode hex="003A"/>
	<advance width="529.36"/>
	<outline>
		<contour>
			<point x="264.68" y="305" type="curve" smooth="yes"/>
			<point x="168.112" y="305"/>
			<point x="98.32" y="232.56"/>
			<point x="98.32" y="142.584" type="curve" smooth="yes"/>
			<point x="98.32" y="51.96"/>
			<point x="168.112" y="-20.48"/>
			<point x="264.68" y="-20.48" type="curve" smooth="yes"/>
			<point x="361.248" y="-20.48"/>
			<point x="431.04" y="51.96"/>
			<point x="431.04" y="142.584" type="curve" smooth="yes"/>
			<point x="431.04" y="232.56"/>
			<point x="361.248" y="305"/>
		</contour>
		<contour>
			<point x="264.68" y="884.384" type="curve" smooth="yes"/>
			<point x="168.112" y="884.384"/>
			<point x="98.32" y="811.944"/>
			<point x="98.32" y="721.968" type="curve" smooth="yes"/>
			<point x="98.32" y="631.344"/>
			<point x="168.112" y="558.904"/>
			<point x="264.68" y="558.904" type="curve" smooth="yes"/>
			<point x="361.248" y="558.904"/>
			<point x="431.04" y="631.344"/>
			<point x="431.04" y="721.968" type="curve" smooth="yes"/>
			<point x="431.04" y="811.944"/>
			<point x="361.248" y="884.384"/>
		</contour>
	</outline>
</glyph>
<glyph name="semicolon" format="2">
	<unicode hex="003B"/>
	<advance width="542.328"/>
	<outline>
		<contour>
			<point x="91.816" y="-305.832" type="curve"/>
			<point x="155.072" y="-369.792" type="line"/>
			<point x="382.544" y="-174.504"/>
			<point x="441.416" y="-32.472"/>
			<point x="441.416" y="110.952" type="curve" smooth="yes"/>
			<point x="441.416" y="234.04"/>
			<point x="376.584" y="304.648"/>
			<point x="270.832" y="304.648" type="curve" smooth="yes"/>
			<point x="171.448" y="304.648"/>
			<point x="103.416" y="231.856"/>
			<point x="103.416" y="139.416" type="curve" smooth="yes"/>
			<point x="103.416" y="80.824"/>
			<point x="255.504" y="52.144"/>
			<point x="255.504" y="-54.368" type="curve" smooth="yes"/>
			<point x="255.504" y="-117.536"/>
			<point x="210.872" y="-200.056"/>
		</contour>
		<contour>
			<point x="265.2" y="884.384" type="curve" smooth="yes"/>
			<point x="168.632" y="884.384"/>
			<point x="98.84" y="811.944"/>
			<point x="98.84" y="721.968" type="curve" smooth="yes"/>
			<point x="98.84" y="631.344"/>
			<point x="168.632" y="558.904"/>
			<point x="265.2" y="558.904" type="curve" smooth="yes"/>
			<point x="361.768" y="558.904"/>
			<point x="431.56" y="631.344"/>
			<point x="431.56" y="721.968" type="curve" smooth="yes"/>
			<point x="431.56" y="811.944"/>
			<point x="361.768" y="884.384"/>
		</contour>
	</outline>
</glyph>
<glyph name="less" format="2">
  <advance width="1000.0"/>
  <unicode hex="003C"/>
  <guideline x="135.704" y="422.0" angle="176.59492390808282" identifier="kprTFTNFtj"/>
  <outline>
    <contour>
      <point x="135.704" y="396.544" type="line"/>
      <point x="942.704" y="757.768" type="line"/>
      <point x="942.704" y="896.536" type="line"/>
      <point x="42.704" y="485.312" type="line"/>
      <point x="42.704" y="386.688" type="line"/>
      <point x="942.704" y="-24.536" type="line"/>
      <point x="942.704" y="114.232" type="line"/>
      <point x="135.704" y="475.456" type="line"/>
    </contour>
  </outline>
</glyph>
<glyph name="greater" format="2">
  <advance width="1000.0"/>
  <unicode hex="003E"/>
  <outline>
    <contour>
      <point x="864.296" y="396.544" type="line"/>
      <point x="864.296" y="475.456" type="line"/>
      <point x="57.296" y="114.232" type="line"/>
      <point x="57.296" y="-24.536" type="line"/>
      <point x="957.296" y="386.688" type="line"/>
      <point x="957.296" y="485.312" type="line"/>
      <point x="57.296" y="896.536" type="line"/>
      <point x="57.296" y="757.768" type="line"/>
    </contour>
  </outline>
</glyph>
<glyph name="A" format="2">
	<unicode hex="0041"/>
	<advance width="1501.36"/>
	<outline>
		<contour>
			<point x="341.28" y="444.624" type="line"/>
			<point x="1019.776" y="444.624" type="line"/>
			<point x="1019.776" y="563.488" type="line"/>
			<point x="341.28" y="563.488" type="line"/>
		</contour>
		<contour>
			<point x="1379.376" y="104.664" type="line"/>
			<point x="840.432" y="1347.04" type="line"/>
			<point x="644.392" y="1347.04" type="line"/>
			<point x="129.28" y="102.664" type="line"/>
			<point x="-23.72" y="43.536" type="line"/>
			<point x="-23.72" y="0" type="line"/>
			<point x="422.256" y="0" type="line"/>
			<point x="422.256" y="43.536" type="line"/>
			<point x="267.032" y="102.664" type="line"/>
			<point x="666.984" y="1104.928" type="line"/>
			<point x="625.256" y="1104.928" type="line"/>
			<point x="1048.376" y="102.664" type="line"/>
			<point x="883.152" y="43.536" type="line"/>
			<point x="883.152" y="0" type="line"/>
			<point x="1527.376" y="0" type="line"/>
			<point x="1527.376" y="43.536" type="line"/>
		</contour>
	</outline>
	<anchor name="UCtop" x="730.248" y="1340"/>
	<anchor name="right" x="1380.32" y="0"/>
	<anchor name="bottom" x="720.456" y="0"/>
</glyph>
<glyph name="B" format="2">
  <advance width="1378.304"/>
  <unicode hex="0042"/>
  <guideline x="329.816" y="1340.0" angle="6.34019174590991" identifier="SmX6ZW6ZTT"/>
  <anchor x="677.432" y="1340.0" name="UCtop"/>
  <anchor x="703.352" y="0.0" name="bottom"/>
  <outline>
    <contour>
      <point x="381.656" y="1217.488" type="line"/>
      <point x="673.416" y="1217.488" type="line" smooth="yes"/>
      <point x="839.016" y="1217.488"/>
      <point x="917.816" y="1129.912"/>
      <point x="917.816" y="1003.224" type="curve" smooth="yes"/>
      <point x="917.816" y="848.776"/>
      <point x="832.312" y="772.256"/>
      <point x="694.528" y="772.256" type="curve" smooth="yes"/>
      <point x="381.656" y="772.256" type="line"/>
      <point x="379.064" y="649.744" type="line"/>
      <point x="704.344" y="649.744" type="line" smooth="yes"/>
      <point x="900.128" y="649.744"/>
      <point x="986.816" y="545.168"/>
      <point x="986.816" y="394.832" type="curve" smooth="yes"/>
      <point x="986.816" y="205.38400000000001"/>
      <point x="877.368" y="122.512"/>
      <point x="695.992" y="122.512" type="curve" smooth="yes"/>
      <point x="380.064" y="122.512" type="line"/>
      <point x="395.616" y="0.0" type="line"/>
      <point x="795.4159999999999" y="0.0" type="line" smooth="yes"/>
      <point x="1158.56" y="0.0"/>
      <point x="1312.336" y="165.52"/>
      <point x="1312.336" y="387.8" type="curve" smooth="yes"/>
      <point x="1312.336" y="581.52"/>
      <point x="1160.56" y="718.0"/>
      <point x="915.248" y="732.0" type="curve"/>
      <point x="912.248" y="717.0" type="line"/>
      <point x="1106.968" y="734.0"/>
      <point x="1229.448" y="858.0"/>
      <point x="1229.448" y="1024.0" type="curve" smooth="yes"/>
      <point x="1229.448" y="1203.0"/>
      <point x="1101.968" y="1340.0"/>
      <point x="791.768" y="1340.0" type="curve" smooth="yes"/>
      <point x="394.616" y="1340.0" type="line"/>
    </contour>
    <contour>
      <point x="68.152" y="0.0" type="line"/>
      <point x="522.232" y="0.0" type="line"/>
      <point x="522.232" y="1340.0" type="line"/>
      <point x="68.152" y="1340.0" type="line"/>
      <point x="68.152" y="1296.464" type="line"/>
      <point x="213.192" y="1237.984" type="line"/>
      <point x="213.192" y="102.016" type="line"/>
      <point x="68.152" y="43.536" type="line"/>
    </contour>
  </outline>
</glyph>
<glyph name="C" format="2">
	<unicode hex="0043"/>
	<advance width="1411.456"/>
	<outline>
		<contour>
			<point x="922.928" y="102.4" type="curve" smooth="yes"/>
			<point x="615.44" y="102.4"/>
			<point x="395.248" y="318.016"/>
			<point x="395.248" y="753.512" type="curve" smooth="yes"/>
			<point x="395.248" y="1073.664"/>
			<point x="554.848" y="1238.84"/>
			<point x="840.776" y="1238.84" type="curve" smooth="yes"/>
			<point x="944.072" y="1238.84"/>
			<point x="1033.496" y="1215.008"/>
			<point x="1139.664" y="1142.048" type="curve"/>
			<point x="1055.6" y="1231.944" type="line"/>
			<point x="1266.848" y="896.656" type="line"/>
			<point x="1329.696" y="910.84" type="line"/>
			<point x="1259.384" y="1410.96" type="line"/>
			<point x="1221.296" y="1410.96" type="line"/>
			<point x="1087.224" y="1312.408" type="line"/>
			<point x="1166.496" y="1331.48" type="line"/>
			<point x="1049.256" y="1358.48"/>
			<point x="973.368" y="1366.48"/>
			<point x="887.776" y="1366.48" type="curve" smooth="yes"/>
			<point x="383.704" y="1366.48"/>
			<point x="74.56" y="1079.464"/>
			<point x="74.56" y="658" type="curve" smooth="yes"/>
			<point x="74.56" y="218.448"/>
			<point x="363.008" y="-26.48"/>
			<point x="848.184" y="-26.48" type="curve" smooth="yes"/>
			<point x="1021.368" y="-26.48"/>
			<point x="1174.24" y="1.04"/>
			<point x="1295.64" y="49.576" type="curve"/>
			<point x="1339.656" y="406.488" type="line"/>
			<point x="1282.768" y="406.488" type="line"/>
			<point x="1102.296" y="105.088" type="line"/>
			<point x="1169.032" y="153.104" type="line"/>
			<point x="1073.624" y="114.512"/>
			<point x="1005.248" y="102.4"/>
		</contour>
	</outline>
	<anchor name="UCtop" x="777.816" y="1340"/>
	<anchor name="bottom" x="798.64" y="0"/>
	<anchor name="right" x="1332.808" y="0"/>
</glyph>
<glyph name="D" format="2">
	<unicode hex="0044"/>
	<advance width="1554.616"/>
	<outline>
		<contour>
			<point x="1155.368" y="687.352" type="curve" smooth="yes"/>
			<point x="1155.368" y="287.44"/>
			<point x="959.688" y="122.512"/>
			<point x="667.816" y="122.512" type="curve" smooth="yes"/>
			<point x="374.928" y="122.512" type="line"/>
			<point x="349.656" y="0" type="line"/>
			<point x="700.056" y="0" type="line" smooth="yes"/>
			<point x="1144.056" y="0"/>
			<point x="1479.056" y="260"/>
			<point x="1479.056" y="710" type="curve" smooth="yes"/>
			<point x="1479.056" y="1134"/>
			<point x="1222.056" y="1340"/>
			<point x="698.056" y="1340" type="curve" smooth="yes"/>
			<point x="349.656" y="1340" type="line"/>
			<point x="374.928" y="1217.488" type="line"/>
			<point x="650.352" y="1217.488" type="line" smooth="yes"/>
			<point x="963.04" y="1217.488"/>
			<point x="1155.368" y="1053.04"/>
		</contour>
		<contour>
			<point x="68.152" y="0" type="line"/>
			<point x="522.232" y="0" type="line"/>
			<point x="522.232" y="1340" type="line"/>
			<point x="68.152" y="1340" type="line"/>
			<point x="68.152" y="1296.464" type="line"/>
			<point x="213.192" y="1237.984" type="line"/>
			<point x="213.192" y="102.016" type="line"/>
			<point x="68.152" y="43.536" type="line"/>
		</contour>
	</outline>
	<anchor name="UCtop" x="776.92" y="1340"/>
	<anchor name="bottom" x="777.624" y="0"/>
</glyph>
<glyph name="G" format="2">
  <advance width="1522"/>
  <unicode hex="0047"/>
  <anchor x="792.944" y="1340.0" name="UCtop"/>
  <anchor x="825.344" y="0.0" name="bottom"/>
  <outline>
    <contour>
      <point x="1366.816" y="177.0" type="line"/>
      <point x="1366.816" y="496.984" type="line"/>
      <point x="1501.296" y="555.464" type="line"/>
      <point x="1501.296" y="599.0" type="line"/>
      <point x="902.176" y="599.0" type="line"/>
      <point x="902.176" y="555.464" type="line"/>
      <point x="1057.776" y="494.872" type="line"/>
      <point x="1057.776" y="44.04" type="line"/>
      <point x="1172.984" y="193.736" type="line"/>
      <point x="1104.152" y="133.976"/>
      <point x="996.328" y="102.4"/>
      <point x="880.064" y="102.4" type="curve" smooth="yes"/>
      <point x="602.848" y="102.4"/>
      <point x="394.6" y="314.776"/>
      <point x="394.6" y="738.312" type="curve" smooth="yes"/>
      <point x="394.6" y="1073.664"/>
      <point x="551.792" y="1238.84"/>
      <point x="843.272" y="1238.84" type="curve" smooth="yes"/>
      <point x="969.2" y="1238.84"/>
      <point x="1065.96" y="1204.84"/>
      <point x="1165.184" y="1131.136" type="curve"/>
      <point x="1060.0" y="1240.04" type="line"/>
      <point x="1275.824" y="896.656" type="line"/>
      <point x="1338.672" y="910.84" type="line"/>
      <point x="1268.36" y="1410.96" type="line"/>
      <point x="1230.272" y="1410.96" type="line"/>
      <point x="1094.792" y="1311.704" type="line"/>
      <point x="1178.288" y="1330.776" type="line"/>
      <point x="1061.272" y="1358.072"/>
      <point x="982.032" y="1366.48"/>
      <point x="890.272" y="1366.48" type="curve" smooth="yes"/>
      <point x="380.944" y="1366.48"/>
      <point x="73.912" y="1079.464"/>
      <point x="73.912" y="658.0" type="curve" smooth="yes"/>
      <point x="73.912" y="232.056"/>
      <point x="344.976" y="-26.48"/>
      <point x="841.056" y="-26.48" type="curve" smooth="yes"/>
      <point x="1052.992" y="-26.48"/>
      <point x="1239.08" y="5.3919999999999995"/>
      <point x="1400.664" y="70.984" type="curve"/>
      <point x="1400.664" y="80.704" type="line"/>
    </contour>
  </outline>
</glyph>
<glyph name="H" format="2">
	<unicode hex="0048"/>
	<advance width="1655.552"/>
	<outline>
		<contour>
			<point x="522.232" y="102.016" type="line"/>
			<point x="522.232" y="1237.984" type="line"/>
			<point x="667.272" y="1296.464" type="line"/>
			<point x="667.272" y="1340" type="line"/>
			<point x="68.152" y="1340" type="line"/>
			<point x="68.152" y="1296.464" type="line"/>
			<point x="213.192" y="1237.984" type="line"/>
			<point x="213.192" y="102.016" type="line"/>
			<point x="68.152" y="43.536" type="line"/>
			<point x="68.152" y="0" type="line"/>
			<point x="667.272" y="0" type="line"/>
			<point x="667.272" y="43.536" type="line"/>
		</contour>
		<contour>
			<point x="1442.36" y="102.016" type="line"/>
			<point x="1442.36" y="1237.984" type="line"/>
			<point x="1587.4" y="1296.464" type="line"/>
			<point x="1587.4" y="1340" type="line"/>
			<point x="988.28" y="1340" type="line"/>
			<point x="988.28" y="1296.464" type="line"/>
			<point x="1133.32" y="1237.984" type="line"/>
			<point x="1133.32" y="102.016" type="line"/>
			<point x="988.28" y="43.536" type="line"/>
			<point x="988.28" y="0" type="line"/>
			<point x="1587.4" y="0" type="line"/>
			<point x="1587.4" y="43.536" type="line"/>
		</contour>
		<contour>
			<point x="351.6" y="623.04" type="line"/>
			<point x="1304.6" y="623.04" type="line"/>
			<point x="1304.6" y="745.552" type="line"/>
			<point x="351.6" y="745.552" type="line"/>
		</contour>
	</outline>
	<anchor name="UCtop" x="827.6" y="1340"/>
	<anchor name="bottom" x="827.6" y="0"/>
</glyph>
<glyph name="I" format="2">
	<unicode hex="0049"/>
	<advance width="735.424"/>
	<outline>
		<contour>
			<point x="667.272" y="43.536" type="line"/>
			<point x="522.232" y="102.016" type="line"/>
			<point x="522.232" y="1237.984" type="line"/>
			<point x="667.272" y="1296.464" type="line"/>
			<point x="667.272" y="1340" type="line"/>
			<point x="68.152" y="1340" type="line"/>
			<point x="68.152" y="1296.464" type="line"/>
			<point x="213.192" y="1237.984" type="line"/>
			<point x="213.192" y="102.016" type="line"/>
			<point x="68.152" y="43.536" type="line"/>
			<point x="68.152" y="0" type="line"/>
			<point x="667.272" y="0" type="line"/>
		</contour>
	</outline>
	<anchor name="UCtop" x="367.712" y="1340"/>
	<anchor name="right" x="554.192" y="0"/>
	<anchor name="bottom" x="367.712" y="0"/>
</glyph>
<glyph name="K" format="2">
	<unicode hex="004B"/>
	<advance width="1542.008"/>
	<outline>
		<contour>
			<point x="1434.76" y="105.368" type="line"/>
			<point x="850.36" y="842.72" type="line"/>
			<point x="772" y="709.2" type="line"/>
			<point x="1318.336" y="1245.76" type="line"/>
			<point x="1460.968" y="1296.464" type="line"/>
			<point x="1460.968" y="1340" type="line"/>
			<point x="1001.696" y="1340" type="line"/>
			<point x="1001.696" y="1296.464" type="line"/>
			<point x="1151.864" y="1244.28" type="line"/>
			<point x="670.232" y="754.2" type="line"/>
			<point x="413.096" y="754.2" type="line"/>
			<point x="413.096" y="634.04" type="line"/>
			<point x="634.608" y="634.04" type="line"/>
			<point x="1055.224" y="96.536" type="line"/>
			<point x="922.664" y="43.536" type="line"/>
			<point x="922.664" y="0" type="line"/>
			<point x="1576.448" y="0" type="line"/>
			<point x="1576.448" y="43.536" type="line"/>
		</contour>
		<contour>
			<point x="522.232" y="1237.984" type="line"/>
			<point x="667.272" y="1296.464" type="line"/>
			<point x="667.272" y="1340" type="line"/>
			<point x="68.152" y="1340" type="line"/>
			<point x="68.152" y="1296.464" type="line"/>
			<point x="213.192" y="1237.984" type="line"/>
			<point x="213.192" y="102.016" type="line"/>
			<point x="68.152" y="43.536" type="line"/>
			<point x="68.152" y="0" type="line"/>
			<point x="659.496" y="0" type="line"/>
			<point x="659.496" y="43.536" type="line"/>
			<point x="522.232" y="102.016" type="line"/>
		</contour>
	</outline>
	<anchor name="bottom" x="785.32" y="0"/>
	<anchor name="UCtop" x="791.8" y="1340"/>
</glyph>
<glyph name="L" format="2">
  <advance width="1266"/>
  <unicode hex="004C"/>
  <anchor x="367.712" y="1340.0" name="UCtop"/>
  <anchor x="636.104" y="0.0" name="bottom"/>
  <anchor x="1003.496" y="702.0" name="mid"/>
  <anchor x="715.408" y="1339.648" name="right"/>
  <outline>
    <contour>
      <point x="1146.904" y="-80.384" type="line"/>
      <point x="1244.752" y="445.784" type="line"/>
      <point x="1188.496" y="459.672" type="line"/>
      <point x="931.88" y="79.904" type="line"/>
      <point x="1021.392" y="122.512" type="line"/>
      <point x="362.616" y="122.512" type="line"/>
      <point x="362.616" y="0.0" type="line"/>
      <point x="962.192" y="0.0" type="line"/>
      <point x="1105.816" y="-80.384" type="line"/>
    </contour>
    <contour>
      <point x="522.232" y="1237.984" type="line"/>
      <point x="667.272" y="1296.464" type="line"/>
      <point x="667.272" y="1340.0" type="line"/>
      <point x="68.152" y="1340.0" type="line"/>
      <point x="68.152" y="1296.464" type="line"/>
      <point x="213.192" y="1237.984" type="line"/>
      <point x="213.192" y="102.016" type="line"/>
      <point x="68.152" y="43.536" type="line"/>
      <point x="68.152" y="0.0" type="line"/>
      <point x="522.232" y="0.0" type="line"/>
    </contour>
  </outline>
</glyph>
<glyph name="M" format="2">
	<unicode hex="004D"/>
	<advance width="2027.936"/>
	<outline>
		<contour>
			<point x="1851.984" y="105.256" type="line"/>
			<point x="1757.504" y="1237.984" type="line"/>
			<point x="1905.784" y="1296.464" type="line"/>
			<point x="1905.784" y="1340" type="line"/>
			<point x="1421.304" y="1340" type="line"/>
			<point x="1009.856" y="300.904" type="line"/>
			<point x="1031.912" y="300.904" type="line"/>
			<point x="614.04" y="1340" type="line"/>
			<point x="101.248" y="1340" type="line"/>
			<point x="101.248" y="1296.464" type="line"/>
			<point x="262.952" y="1228.448" type="line"/>
			<point x="186.024" y="106.552" type="line"/>
			<point x="28.024" y="43.536" type="line"/>
			<point x="28.024" y="0" type="line"/>
			<point x="471.424" y="0" type="line"/>
			<point x="471.424" y="43.536" type="line"/>
			<point x="314.424" y="106.552" type="line"/>
			<point x="375.24" y="1133.16" type="line"/>
			<point x="361.888" y="1130.808" type="line"/>
			<point x="828.424" y="-6.688" type="line"/>
			<point x="1020.76" y="-6.688" type="line"/>
			<point x="1471.872" y="1131.144" type="line"/>
			<point x="1459.168" y="1133.496" type="line"/>
			<point x="1537.464" y="95.536" type="line"/>
			<point x="1380.464" y="43.536" type="line"/>
			<point x="1380.464" y="0" type="line"/>
			<point x="2003.152" y="0" type="line"/>
			<point x="2003.152" y="43.536" type="line"/>
		</contour>
	</outline>
	<anchor name="UCtop" x="983.512" y="1340"/>
	<anchor name="bottom" x="935.832" y="0"/>
</glyph>
<glyph name="N" format="2">
	<unicode hex="004E"/>
	<advance width="1514.256"/>
	<outline>
		<contour>
			<point x="216.488" y="102.016" type="line"/>
			<point x="71.448" y="43.536" type="line"/>
			<point x="71.448" y="0" type="line"/>
			<point x="495.152" y="0" type="line"/>
			<point x="495.152" y="43.536" type="line"/>
			<point x="334.52" y="102.016" type="line"/>
			<point x="334.52" y="1230" type="line"/>
			<point x="285.32" y="1194" type="line"/>
			<point x="1125.616" y="-6.688" type="line"/>
			<point x="1315.064" y="-6.688" type="line"/>
			<point x="1315.064" y="1237.984" type="line"/>
			<point x="1460.104" y="1296.464" type="line"/>
			<point x="1460.104" y="1340" type="line"/>
			<point x="1036.4" y="1340" type="line"/>
			<point x="1036.4" y="1296.464" type="line"/>
			<point x="1197.032" y="1237.984" type="line"/>
			<point x="1197.032" y="272.344" type="line"/>
			<point x="1278.376" y="320.928" type="line"/>
			<point x="552.168" y="1340" type="line"/>
			<point x="53.488" y="1340" type="line"/>
			<point x="53.488" y="1301" type="line"/>
			<point x="216.488" y="1218.744" type="line"/>
		</contour>
	</outline>
	<anchor name="UCtop" x="787.144" y="1340"/>
	<anchor name="bottom" x="790.664" y="0"/>
</glyph>
<glyph name="O" format="2">
	<unicode hex="004F"/>
	<advance width="1558.696"/>
	<outline>
		<contour>
			<point x="792.752" y="1366.48" type="curve" smooth="yes"/>
			<point x="371.704" y="1366.48"/>
			<point x="74.56" y="1082.072"/>
			<point x="74.56" y="668" type="curve" smooth="yes"/>
			<point x="74.56" y="250.392"/>
			<point x="352.616" y="-26.48"/>
			<point x="765.944" y="-26.48" type="curve" smooth="yes"/>
			<point x="1186.992" y="-26.48"/>
			<point x="1484.136" y="257.928"/>
			<point x="1484.136" y="672" type="curve" smooth="yes"/>
			<point x="1484.136" y="1089.608"/>
			<point x="1206.08" y="1366.48"/>
		</contour>
		<contour>
			<point x="789.144" y="105.696" type="curve" smooth="yes"/>
			<point x="559.648" y="105.696"/>
			<point x="397.6" y="315.904"/>
			<point x="397.6" y="727.864" type="curve" smooth="yes"/>
			<point x="397.6" y="1067.44"/>
			<point x="551.848" y="1234.304"/>
			<point x="769.552" y="1234.304" type="curve" smooth="yes"/>
			<point x="999.048" y="1234.304"/>
			<point x="1161.096" y="1024.096"/>
			<point x="1161.096" y="612.136" type="curve" smooth="yes"/>
			<point x="1161.096" y="272.56"/>
			<point x="1006.848" y="105.696"/>
		</contour>
	</outline>
	<anchor name="UCtop" x="779.496" y="1340"/>
	<anchor name="bottom" x="779.496" y="0"/>
	<anchor name="horn" x="1068.072" y="1340"/>
	<anchor name="right" x="1002.312" y="0"/>
</glyph>
<glyph name="P" format="2">
  <advance width="1295"/>
  <unicode hex="0050"/>
  <anchor x="687.704" y="1340.0" name="UCtop"/>
  <anchor x="367.712" y="0.0" name="bottom"/>
  <outline>
    <contour>
      <point x="961.648" y="947.744" type="curve" smooth="yes"/>
      <point x="961.648" y="771.76"/>
      <point x="851.384" y="678.296"/>
      <point x="693.288" y="678.296" type="curve" smooth="yes"/>
      <point x="322.04" y="678.296" type="line"/>
      <point x="326.616" y="555.784" type="line"/>
      <point x="748.64" y="555.784" type="line" smooth="yes"/>
      <point x="1112.248" y="555.784"/>
      <point x="1268.376" y="736.376"/>
      <point x="1268.376" y="954.56" type="curve" smooth="yes"/>
      <point x="1268.376" y="1168.336"/>
      <point x="1120.544" y="1340.0"/>
      <point x="748.64" y="1340.0" type="curve" smooth="yes"/>
      <point x="326.616" y="1340.0" type="line"/>
      <point x="322.04" y="1217.488" type="line"/>
      <point x="638.016" y="1217.488" type="line" smooth="yes"/>
      <point x="871.848" y="1217.488"/>
      <point x="961.648" y="1119.376"/>
    </contour>
    <contour>
      <point x="522.232" y="1340.0" type="line"/>
      <point x="68.152" y="1340.0" type="line"/>
      <point x="68.152" y="1296.464" type="line"/>
      <point x="213.192" y="1237.984" type="line"/>
      <point x="213.192" y="102.016" type="line"/>
      <point x="68.152" y="43.536" type="line"/>
      <point x="68.152" y="0.0" type="line"/>
      <point x="667.272" y="0.0" type="line"/>
      <point x="667.272" y="43.536" type="line"/>
      <point x="522.232" y="102.016" type="line"/>
    </contour>
  </outline>
</glyph>
<glyph name="Q" format="2">
	<unicode hex="0051"/>
	<advance width="1558.048"/>
	<outline>
		<contour>
			<point x="738.528" y="-221.136" type="line" smooth="yes"/>
			<point x="918.528" y="-367.224"/>
			<point x="1002.704" y="-397.536"/>
			<point x="1227.016" y="-397.536" type="curve" smooth="yes"/>
			<point x="1383.784" y="-397.536"/>
			<point x="1473.432" y="-377.776"/>
			<point x="1552.8" y="-355.832" type="curve"/>
			<point x="1552.8" y="-287.488" type="line"/>
			<point x="1378.352" y="-297.84"/>
			<point x="1306.52" y="-266.008"/>
			<point x="1109.264" y="-154.416" type="curve" smooth="yes"/>
			<point x="733.928" y="58.088" type="line"/>
			<point x="766.008" y="-1.944" type="line"/>
			<point x="1178.696" y="-24.56"/>
			<point x="1484.136" y="268.592"/>
			<point x="1484.136" y="672" type="curve" smooth="yes"/>
			<point x="1484.136" y="1089.608"/>
			<point x="1206.08" y="1366.48"/>
			<point x="792.752" y="1366.48" type="curve" smooth="yes"/>
			<point x="371.704" y="1366.48"/>
			<point x="74.56" y="1082.072"/>
			<point x="74.56" y="668" type="curve" smooth="yes"/>
			<point x="74.56" y="410.168"/>
			<point x="166.632" y="235.536"/>
			<point x="359.144" y="82.976" type="curve" smooth="yes"/>
		</contour>
		<contour>
			<point x="789.144" y="105.696" type="curve" smooth="yes"/>
			<point x="559.648" y="105.696"/>
			<point x="397.6" y="315.904"/>
			<point x="397.6" y="727.864" type="curve" smooth="yes"/>
			<point x="397.6" y="1067.44"/>
			<point x="551.848" y="1234.304"/>
			<point x="769.552" y="1234.304" type="curve" smooth="yes"/>
			<point x="999.048" y="1234.304"/>
			<point x="1161.096" y="1024.096"/>
			<point x="1161.096" y="612.136" type="curve" smooth="yes"/>
			<point x="1161.096" y="272.56"/>
			<point x="1006.848" y="105.696"/>
		</contour>
	</outline>
	<anchor name="UCtop" x="789.704" y="1340"/>
	<anchor name="bottom" x="779.144" y="-384.544"/>
</glyph>
<glyph name="R" format="2">
	<unicode hex="0052"/>
	<advance width="1399.408"/>
	<outline>
		<contour>
			<point x="694.112" y="734.072" type="curve" smooth="yes"/>
			<point x="260.112" y="734.072" type="line"/>
			<point x="316.896" y="611.56" type="line"/>
			<point x="675.136" y="611.56" type="line" smooth="yes"/>
			<point x="783.36" y="611.56"/>
			<point x="815.896" y="574.28"/>
			<point x="855.4" y="430.184" type="curve" smooth="yes"/>
			<point x="921.536" y="186.976" type="line" smooth="yes"/>
			<point x="967.872" y="10.72"/>
			<point x="1037.104" y="-30.96"/>
			<point x="1400.52" y="-3.24" type="curve"/>
			<point x="1400.52" y="77.384" type="line"/>
			<point x="1317.464" y="76.384"/>
			<point x="1281.52" y="85.032"/>
			<point x="1239.648" y="217.088" type="curve" smooth="yes"/>
			<point x="1160.144" y="464.592" type="line" smooth="yes"/>
			<point x="1114.808" y="604.688"/>
			<point x="1064.456" y="662.52"/>
			<point x="873.84" y="670.872" type="curve"/>
			<point x="873.84" y="666.464" type="line"/>
			<point x="1121.944" y="690.744"/>
			<point x="1249.016" y="823.168"/>
			<point x="1249.016" y="1003.648" type="curve" smooth="yes"/>
			<point x="1249.016" y="1188.648"/>
			<point x="1117.664" y="1340"/>
			<point x="785.664" y="1340" type="curve" smooth="yes"/>
			<point x="326.616" y="1340" type="line"/>
			<point x="271.128" y="1217.488" type="line"/>
			<point x="642.896" y="1217.488" type="line" smooth="yes"/>
			<point x="858.432" y="1217.488"/>
			<point x="942.288" y="1127.616"/>
			<point x="942.288" y="974.984" type="curve" smooth="yes"/>
			<point x="942.288" y="817.592"/>
			<point x="840.32" y="734.072"/>
		</contour>
		<contour>
			<point x="522.232" y="1340" type="line"/>
			<point x="68.152" y="1340" type="line"/>
			<point x="68.152" y="1296.464" type="line"/>
			<point x="213.192" y="1237.984" type="line"/>
			<point x="213.192" y="102.016" type="line"/>
			<point x="68.152" y="43.536" type="line"/>
			<point x="68.152" y="0" type="line"/>
			<point x="667.272" y="0" type="line"/>
			<point x="667.272" y="43.536" type="line"/>
			<point x="522.232" y="102.016" type="line"/>
		</contour>
	</outline>
	<anchor name="UCtop" x="684.336" y="1340"/>
	<anchor name="bottom" x="767.856" y="0"/>
</glyph>
<glyph name="T" format="2">
  <advance width="1382"/>
  <unicode hex="0054"/>
  <anchor x="691.12" y="1340.0" name="UCtop"/>
  <anchor x="691.12" y="0.0" name="bottom"/>
  <outline>
    <contour>
      <point x="531.4159999999999" y="1274.464" type="line"/>
      <point x="531.4159999999999" y="102.016" type="line"/>
      <point x="386.376" y="43.536" type="line"/>
      <point x="386.376" y="0.0" type="line"/>
      <point x="985.496" y="0.0" type="line"/>
      <point x="985.496" y="43.536" type="line"/>
      <point x="840.456" y="102.016" type="line"/>
      <point x="840.456" y="1274.464" type="line"/>
    </contour>
    <contour>
      <point x="1202.936" y="1217.488" type="line"/>
      <point x="1112.88" y="1251.392" type="line"/>
      <point x="1287.408" y="936.88" type="line"/>
      <point x="1350.256" y="949.768" type="line"/>
      <point x="1307.664" y="1412.536" type="line"/>
      <point x="1271.52" y="1412.536" type="line"/>
      <point x="1100.712" y="1316.224" type="line"/>
      <point x="1179.936" y="1340.0" type="line"/>
      <point x="166.016" y="1340.0" type="line"/>
      <point x="281.528" y="1316.224" type="line"/>
      <point x="110.72" y="1412.536" type="line"/>
      <point x="74.576" y="1412.536" type="line"/>
      <point x="31.984" y="949.768" type="line"/>
      <point x="94.832" y="936.88" type="line"/>
      <point x="269.36" y="1251.392" type="line"/>
      <point x="143.016" y="1217.488" type="line"/>
    </contour>
  </outline>
</glyph>
<glyph name="U" format="2">
	<unicode hex="0055"/>
	<advance width="1542.064"/>
	<outline>
		<contour>
			<point x="1241.136" y="533.064" type="line" smooth="yes"/>
			<point x="1241.136" y="293.84"/>
			<point x="1101.672" y="168.096"/>
			<point x="860.704" y="168.096" type="curve" smooth="yes"/>
			<point x="614.272" y="168.096"/>
			<point x="491.232" y="294.192"/>
			<point x="491.232" y="545.016" type="curve" smooth="yes"/>
			<point x="491.232" y="1237.984" type="line"/>
			<point x="636.272" y="1296.464" type="line"/>
			<point x="636.272" y="1340" type="line"/>
			<point x="37.152" y="1340" type="line"/>
			<point x="37.152" y="1296.464" type="line"/>
			<point x="182.192" y="1237.984" type="line"/>
			<point x="182.192" y="545.592" type="line" smooth="yes"/>
			<point x="182.192" y="163.28"/>
			<point x="392.744" y="-26.48"/>
			<point x="790.4" y="-26.48" type="curve" smooth="yes"/>
			<point x="1158.152" y="-26.48"/>
			<point x="1359.168" y="168.112"/>
			<point x="1359.168" y="540.104" type="curve" smooth="yes"/>
			<point x="1359.168" y="1237.984" type="line"/>
			<point x="1504.208" y="1296.464" type="line"/>
			<point x="1504.208" y="1340" type="line"/>
			<point x="1085.08" y="1340" type="line"/>
			<point x="1085.08" y="1296.464" type="line"/>
			<point x="1241.136" y="1237.984" type="line"/>
		</contour>
	</outline>
	<anchor name="UCtop" x="832.376" y="1340"/>
	<anchor name="right" x="1037.584" y="0"/>
	<anchor name="bottom" x="832.376" y="0"/>
	<anchor name="horn" x="1310.752" y="1340"/>
</glyph>
<glyph name="V" format="2">
  <advance width="1432.2"/>
  <unicode hex="0056"/>
  <anchor x="790.032" y="1340.0" name="UCtop"/>
  <anchor x="744.672" y="0.0" name="bottom"/>
  <outline>
    <contour>
      <point x="118.632" y="1235.336" type="line"/>
      <point x="636.376" y="-7.039999999999999" type="line"/>
      <point x="832.4159999999999" y="-7.039999999999999" type="line"/>
      <point x="1302.808" y="1237.336" type="line"/>
      <point x="1449.328" y="1296.464" type="line"/>
      <point x="1449.328" y="1340.0" type="line"/>
      <point x="1009.408" y="1340.0" type="line"/>
      <point x="1009.408" y="1296.464" type="line"/>
      <point x="1167.872" y="1237.336" type="line"/>
      <point x="809.824" y="235.072" type="line"/>
      <point x="856.736" y="235.072" type="line"/>
      <point x="454.81600000000003" y="1237.336" type="line"/>
      <point x="623.28" y="1296.464" type="line"/>
      <point x="623.28" y="1340.0" type="line"/>
      <point x="-29.368000000000002" y="1340.0" type="line"/>
      <point x="-29.368000000000002" y="1296.464" type="line"/>
    </contour>
  </outline>
</glyph>
<glyph name="W" format="2">
	<unicode hex="0057"/>
	<advance width="2046.608"/>
	<outline>
		<contour>
			<point x="1066.608" y="1077.024" type="line"/>
			<point x="989" y="1065.056" type="line"/>
			<point x="1397.44" y="-7.04" type="line"/>
			<point x="1593.48" y="-7.04" type="line"/>
			<point x="1916.272" y="1237.336" type="line"/>
			<point x="2059.976" y="1296.464" type="line"/>
			<point x="2059.976" y="1340" type="line"/>
			<point x="1621.112" y="1340" type="line"/>
			<point x="1621.112" y="1296.464" type="line"/>
			<point x="1782.392" y="1237.336" type="line"/>
			<point x="1548.648" y="236.128" type="line"/>
			<point x="1633.184" y="249.152" type="line"/>
			<point x="1226.04" y="1347.04" type="line"/>
			<point x="1026.704" y="1347.04" type="line"/>
			<point x="649.544" y="263.232" type="line"/>
			<point x="719" y="263.232" type="line"/>
			<point x="453.688" y="1237.336" type="line"/>
			<point x="618.912" y="1296.464" type="line"/>
			<point x="618.912" y="1340" type="line"/>
			<point x="-22.256" y="1340" type="line"/>
			<point x="-22.256" y="1296.464" type="line"/>
			<point x="125.744" y="1235.336" type="line"/>
			<point x="477.44" y="-7.04" type="line"/>
			<point x="673.48" y="-7.04" type="line"/>
		</contour>
	</outline>
	<anchor name="UCtop" x="1113.688" y="1340"/>
	<anchor name="bottom" x="1081.288" y="0"/>
</glyph>
<glyph name="X" format="2">
	<unicode hex="0058"/>
	<advance width="1497.16"/>
	<outline>
		<contour>
			<point x="724.456" y="624.08" type="line"/>
			<point x="812.944" y="692.96" type="line"/>
			<point x="1271.328" y="1237.336" type="line"/>
			<point x="1421.088" y="1296.464" type="line"/>
			<point x="1421.088" y="1340" type="line"/>
			<point x="977.056" y="1340" type="line"/>
			<point x="977.056" y="1296.464" type="line"/>
			<point x="1127.096" y="1237.336" type="line"/>
			<point x="748.8" y="771.4" type="line"/>
			<point x="663.792" y="705.648" type="line"/>
			<point x="150.336" y="102.664" type="line"/>
			<point x="0.576" y="43.536" type="line"/>
			<point x="0.576" y="0" type="line"/>
			<point x="443.96" y="0" type="line"/>
			<point x="443.96" y="43.536" type="line"/>
			<point x="294.568" y="102.664" type="line"/>
		</contour>
		<contour>
			<point x="1003.216" y="102.664" type="line"/>
			<point x="837.992" y="43.536" type="line"/>
			<point x="837.992" y="0" type="line"/>
			<point x="1526.432" y="0" type="line"/>
			<point x="1526.432" y="43.536" type="line"/>
			<point x="1378.432" y="104.664" type="line"/>
			<point x="865.568" y="794.784" type="line"/>
			<point x="827.256" y="834.392" type="line"/>
			<point x="538.056" y="1237.336" type="line"/>
			<point x="703.28" y="1296.464" type="line"/>
			<point x="703.28" y="1340" type="line"/>
			<point x="15.488" y="1340" type="line"/>
			<point x="15.488" y="1296.464" type="line"/>
			<point x="163.488" y="1235.336" type="line"/>
			<point x="625.168" y="612.472" type="line"/>
			<point x="659.888" y="577.752" type="line"/>
		</contour>
	</outline>
	<anchor name="UCtop" x="776.464" y="1340"/>
	<anchor name="bottom" x="757.024" y="0"/>
</glyph>
<glyph name="Y" format="2">
  <advance width="1439.104"/>
  <unicode hex="0059"/>
  <anchor x="782.792" y="1340.0" name="UCtop"/>
  <anchor x="743.264" y="0.0" name="bottom"/>
  <outline>
    <contour>
      <point x="118.856" y="1235.336" type="line"/>
      <point x="589.8" y="590.072" type="line"/>
      <point x="589.8" y="102.016" type="line"/>
      <point x="444.76" y="43.536" type="line"/>
      <point x="444.76" y="0.0" type="line"/>
      <point x="1043.88" y="0.0" type="line"/>
      <point x="1043.88" y="43.536" type="line"/>
      <point x="898.84" y="102.016" type="line"/>
      <point x="898.84" y="593.184" type="line"/>
      <point x="1296.84" y="1237.336" type="line"/>
      <point x="1436.88" y="1296.464" type="line"/>
      <point x="1436.88" y="1340.0" type="line"/>
      <point x="996.568" y="1340.0" type="line"/>
      <point x="996.568" y="1296.464" type="line"/>
      <point x="1151.792" y="1237.336" type="line"/>
      <point x="814.864" y="659.048" type="line"/>
      <point x="890.176" y="655.752" type="line"/>
      <point x="483.096" y="1237.336" type="line"/>
      <point x="645.856" y="1296.464" type="line"/>
      <point x="645.856" y="1340.0" type="line"/>
      <point x="-22.664" y="1340.0" type="line"/>
      <point x="-22.664" y="1296.464" type="line"/>
    </contour>
  </outline>
</glyph>
<glyph name="Z" format="2">
  <advance width="1284"/>
  <unicode hex="005A"/>
  <anchor x="688.176" y="1340.0" name="UCtop"/>
  <anchor x="641.408" y="0.0" name="bottom"/>
  <outline>
    <contour>
      <point x="1189.008" y="1340.0" type="line"/>
      <point x="317.64" y="1340.0" type="line"/>
      <point x="174.664" y="1408.72" type="line"/>
      <point x="143.296" y="1408.72" type="line"/>
      <point x="55.04" y="939.488" type="line"/>
      <point x="107.408" y="925.248" type="line"/>
      <point x="321.88" y="1217.488" type="line"/>
      <point x="997.008" y="1217.488" type="line"/>
      <point x="838.856" y="1271.0" type="line"/>
      <point x="77.728" y="48.512" type="line"/>
      <point x="77.728" y="0.0" type="line"/>
      <point x="1017.384" y="0.0" type="line"/>
      <point x="1155.304" y="-63.903999999999996" type="line"/>
      <point x="1184.264" y="-63.903999999999996" type="line"/>
      <point x="1254.336" y="383.23199999999997" type="line"/>
      <point x="1201.912" y="395.12" type="line"/>
      <point x="1017.552" y="122.512" type="line"/>
      <point x="289.648" y="122.512" type="line"/>
      <point x="421.88" y="69.0" type="line"/>
      <point x="1189.008" y="1291.488" type="line"/>
    </contour>
  </outline>
</glyph>
<glyph name="bracketleft" format="2">
  <advance width="613"/>
  <unicode hex="005B"/>
  <outline>
    <contour>
      <point x="165.61599999999999" y="-252.816" type="line"/>
      <point x="584.912" y="-252.816" type="line"/>
      <point x="584.912" y="-163.376" type="line"/>
      <point x="358.992" y="-163.376" type="line"/>
      <point x="358.992" y="1309.56" type="line"/>
      <point x="584.912" y="1309.56" type="line"/>
      <point x="584.912" y="1399.0" type="line"/>
      <point x="165.61599999999999" y="1399.0" type="line"/>
    </contour>
  </outline>
</glyph>
<glyph name="backslash" format="2">
	<unicode hex="005C"/>
	<advance width="781.408"/>
	<outline>
		<contour>
			<point x="735.48" y="0" type="line"/>
			<point x="172.24" y="1340" type="line"/>
			<point x="46.28" y="1340" type="line"/>
			<point x="608.872" y="0" type="line"/>
		</contour>
	</outline>
</glyph>
<glyph name="bracketright" format="2">
  <advance width="613"/>
  <unicode hex="005D"/>
  <outline>
    <contour>
      <point x="447.704" y="1399.352" type="line"/>
      <point x="28.408" y="1399.352" type="line"/>
      <point x="28.408" y="1309.912" type="line"/>
      <point x="254.328" y="1309.912" type="line"/>
      <point x="254.328" y="-163.024" type="line"/>
      <point x="28.408" y="-163.024" type="line"/>
      <point x="28.408" y="-252.464" type="line"/>
      <point x="447.704" y="-252.464" type="line"/>
    </contour>
  </outline>
</glyph>
<glyph name="asciicircum" format="2">
  <advance width="1000.0"/>
  <unicode hex="005E"/>
  <guideline x="503.0" y="1246.0" angle="67.29316685461875" identifier="xLWgQyvl5X"/>
  <outline>
    <contour>
      <point x="465.84" y="1246.0" type="line"/>
      <point x="753.04" y="592.0" type="line"/>
      <point x="885.16" y="592.0" type="line"/>
      <point x="553.96" y="1340.0" type="line"/>
      <point x="444.04" y="1340.0" type="line"/>
      <point x="114.84" y="592.0" type="line"/>
      <point x="246.96" y="592.0" type="line"/>
      <point x="532.16" y="1246.0" type="line"/>
    </contour>
  </outline>
</glyph>
<glyph name="b" format="2">
	<unicode hex="0062"/>
	<advance width="1108.856"/>
	<outline>
		<contour>
			<point x="214.776" y="50.52" type="line"/>
			<point x="341.032" y="-4.48"/>
			<point x="429.624" y="-26.48"/>
			<point x="544.432" y="-26.48" type="curve" smooth="yes"/>
			<point x="794.864" y="-26.48"/>
			<point x="1049.704" y="144.248"/>
			<point x="1049.704" y="476.48" type="curve" smooth="yes"/>
			<point x="1049.704" y="721.256"/>
			<point x="919.592" y="891.44"/>
			<point x="673.128" y="891.44" type="curve" smooth="yes"/>
			<point x="562.76" y="891.44"/>
			<point x="434.8" y="833.592"/>
			<point x="298.576" y="751.776" type="curve"/>
			<point x="349.768" y="678.184" type="line"/>
			<point x="406.384" y="719.744"/>
			<point x="479.112" y="736.784"/>
			<point x="548.216" y="736.784" type="curve" smooth="yes"/>
			<point x="676.632" y="736.784"/>
			<point x="760.176" y="630.984"/>
			<point x="760.176" y="422.648" type="curve" smooth="yes"/>
			<point x="760.176" y="177.728"/>
			<point x="685.8" y="75.312"/>
			<point x="564.752" y="75.312" type="curve" smooth="yes"/>
			<point x="460.76" y="75.312"/>
			<point x="402.456" y="154.776"/>
			<point x="402.456" y="260.536" type="curve" smooth="yes"/>
			<point x="402.456" y="1211.696" type="line"/>
			<point x="419.584" y="1425.48" type="line"/>
			<point x="387.272" y="1425.48" type="line"/>
			<point x="-25.848" y="1312.32" type="line"/>
			<point x="-25.848" y="1268.344" type="line"/>
			<point x="52.152" y="1232.752"/>
			<point x="93.728" y="1203.64"/>
			<point x="125.56" y="1162.92" type="curve"/>
			<point x="125.56" y="203.704" type="line"/>
			<point x="95.136" y="-5.296" type="line"/>
			<point x="132.32" y="-25.072" type="line"/>
			<point x="316.536" y="50.52" type="line"/>
		</contour>
	</outline>
	<anchor name="UCtop" x="550.984" y="1385.76"/>
	<anchor name="bottom" x="557.464" y="0"/>
</glyph>
<glyph name="c" format="2">
  <advance width="899.6320000000001"/>
  <unicode hex="0063"/>
  <anchor x="494.92" y="864.96" name="top"/>
  <anchor x="865.888" y="0.0" name="right"/>
  <anchor x="488.048" y="0.0" name="bottom"/>
  <outline>
    <contour>
      <point x="594.6" y="891.44" type="curve" smooth="yes"/>
      <point x="253.664" y="891.44"/>
      <point x="56.855999999999995" y="677.032"/>
      <point x="56.855999999999995" y="407.832" type="curve" smooth="yes"/>
      <point x="56.855999999999995" y="162.296"/>
      <point x="223.224" y="-26.48"/>
      <point x="481.272" y="-26.48" type="curve" smooth="yes"/>
      <point x="614.512" y="-26.48"/>
      <point x="740.08" y="40.592"/>
      <point x="865.888" y="193.752" type="curve"/>
      <point x="829.576" y="241.488" type="line"/>
      <point x="757.096" y="187.376"/>
      <point x="691.6320000000001" y="166.096"/>
      <point x="609.56" y="166.096" type="curve" smooth="yes"/>
      <point x="430.0" y="166.096"/>
      <point x="315.664" y="286.88"/>
      <point x="315.664" y="529.712" type="curve" smooth="yes"/>
      <point x="315.664" y="711.032"/>
      <point x="395.024" y="785.352"/>
      <point x="481.048" y="785.352" type="curve" smooth="yes"/>
      <point x="565.44" y="785.352"/>
      <point x="620.12" y="632.84"/>
      <point x="734.968" y="632.84" type="curve" smooth="yes"/>
      <point x="803.872" y="632.84"/>
      <point x="860.016" y="679.856"/>
      <point x="860.016" y="751.112" type="curve" smooth="yes"/>
      <point x="860.016" y="823.2"/>
      <point x="787.112" y="891.44"/>
    </contour>
  </outline>
</glyph>
<glyph name="d" format="2">
  <advance width="1126.8"/>
  <unicode hex="0064"/>
  <anchor x="983.296" y="1399.0" name="right"/>
  <anchor x="535.152" y="1385.76" name="UCtop"/>
  <anchor x="572.736" y="0.0" name="bottom"/>
  <anchor x="795.0" y="1075.888" name="center"/>
  <outline>
    <contour>
      <point x="706.4" y="604.424" type="curve" smooth="yes"/>
      <point x="706.4" y="136.0" type="line"/>
      <point x="734.656" y="-25.072000000000003" type="line"/>
      <point x="766.968" y="-25.072000000000003" type="line"/>
      <point x="1112.888" y="50.944" type="line"/>
      <point x="1112.888" y="89.368" type="line"/>
      <point x="1060.52" y="107.032"/>
      <point x="1014.424" y="134.088"/>
      <point x="983.296" y="167.864" type="curve"/>
      <point x="983.296" y="1210.992" type="line"/>
      <point x="1000.072" y="1425.48" type="line"/>
      <point x="968.112" y="1425.48" type="line"/>
      <point x="564.144" y="1314.784" type="line"/>
      <point x="564.144" y="1271.512" type="line"/>
      <point x="634.752" y="1238.736"/>
      <point x="675.272" y="1212.792"/>
      <point x="706.4" y="1172.776" type="curve"/>
      <point x="706.4" y="794.376" type="line"/>
      <point x="875.936" y="814.44" type="line"/>
      <point x="752.272" y="869.44"/>
      <point x="665.624" y="891.44"/>
      <point x="560.552" y="891.44" type="curve" smooth="yes"/>
      <point x="307.312" y="891.44"/>
      <point x="59.152" y="716.512"/>
      <point x="59.152" y="388.48" type="curve" smooth="yes"/>
      <point x="59.152" y="143.704"/>
      <point x="189.264" y="-26.48"/>
      <point x="435.728" y="-26.48" type="curve" smooth="yes"/>
      <point x="520.064" y="-26.48"/>
      <point x="596.968" y="0.704"/>
      <point x="753.624" y="99.208" type="curve"/>
      <point x="753.624" y="189.0" type="line"/>
      <point x="692.784" y="145.92000000000002"/>
      <point x="623.112" y="128.176"/>
      <point x="560.64" y="128.176" type="curve" smooth="yes"/>
      <point x="432.224" y="128.176"/>
      <point x="348.68" y="233.976"/>
      <point x="348.68" y="454.624" type="curve" smooth="yes"/>
      <point x="348.68" y="687.232"/>
      <point x="423.056" y="789.648"/>
      <point x="547.624" y="789.648" type="curve" smooth="yes"/>
      <point x="652.32" y="789.648"/>
      <point x="706.4" y="710.888"/>
    </contour>
  </outline>
</glyph>
<glyph name="e" format="2">
	<unicode hex="0065"/>
	<advance width="934.728"/>
	<outline>
		<contour>
			<point x="499.92" y="891.44" type="curve" smooth="yes"/>
			<point x="214.632" y="891.44"/>
			<point x="57.504" y="675.368"/>
			<point x="57.504" y="418.536" type="curve" smooth="yes"/>
			<point x="57.504" y="165.944"/>
			<point x="229.744" y="-26.48"/>
			<point x="492.848" y="-26.48" type="curve" smooth="yes"/>
			<point x="649.528" y="-26.48"/>
			<point x="773.912" y="63.92"/>
			<point x="883.632" y="192.456" type="curve"/>
			<point x="848.912" y="241.488" type="line"/>
			<point x="774.08" y="187.376"/>
			<point x="706.912" y="166.096"/>
			<point x="624.136" y="166.096" type="curve" smooth="yes"/>
			<point x="439.464" y="166.096"/>
			<point x="316.664" y="285.656"/>
			<point x="316.664" y="497.288" type="curve" smooth="yes"/>
			<point x="316.664" y="724.544"/>
			<point x="385.392" y="795.592"/>
			<point x="476.496" y="795.592" type="curve" smooth="yes"/>
			<point x="566.928" y="795.592"/>
			<point x="610.56" y="708.904"/>
			<point x="618.08" y="543.224" type="curve"/>
			<point x="749.584" y="597.536" type="line"/>
			<point x="249.192" y="569.648" type="line"/>
			<point x="248.488" y="485.152" type="line"/>
			<point x="879.28" y="485.152" type="line"/>
			<point x="856.984" y="739"/>
			<point x="730.208" y="891.44"/>
		</contour>
	</outline>
	<anchor name="top" x="472.536" y="864.96"/>
	<anchor name="right" x="883.632" y="0"/>
	<anchor name="bottom" x="487.776" y="0"/>
</glyph>
<glyph name="f" format="2">
	<unicode hex="0066"/>
	<advance width="743.256"/>
	<outline>
		<contour>
			<point x="222.08" y="735.376" type="line"/>
			<point x="718.512" y="735.376" type="line"/>
			<point x="739.104" y="864.96" type="line"/>
			<point x="326.376" y="864.96" type="line"/>
			<point x="202.264" y="879.216" type="line"/>
			<point x="15.024" y="798.128" type="line"/>
			<point x="15.024" y="754.816" type="line"/>
			<point x="186.968" y="701.008" type="line"/>
		</contour>
		<contour>
			<point x="463.864" y="97.96" type="line"/>
			<point x="463.864" y="1098.624" type="line" smooth="yes"/>
			<point x="463.864" y="1253.312"/>
			<point x="537.264" y="1317.464"/>
			<point x="628.624" y="1317.464" type="curve" smooth="yes"/>
			<point x="733.68" y="1317.464"/>
			<point x="781.376" y="1189.176"/>
			<point x="883.096" y="1189.176" type="curve" smooth="yes"/>
			<point x="942.224" y="1189.176"/>
			<point x="995.24" y="1234.6"/>
			<point x="995.24" y="1301.56" type="curve" smooth="yes"/>
			<point x="995.24" y="1371.056"/>
			<point x="926.096" y="1425.48"/>
			<point x="772.36" y="1425.48" type="curve" smooth="yes"/>
			<point x="455.968" y="1425.48"/>
			<point x="186.968" y="1240.192"/>
			<point x="186.968" y="846.88" type="curve" smooth="yes"/>
			<point x="186.968" y="92.776" type="line"/>
			<point x="64.776" y="40.24" type="line"/>
			<point x="64.776" y="0" type="line"/>
			<point x="607.648" y="0" type="line"/>
			<point x="607.648" y="40.24" type="line"/>
		</contour>
	</outline>
	<anchor name="UCtop" x="563.232" y="1360.768"/>
	<anchor name="bottom" x="329.288" y="0"/>
</glyph>
<glyph name="i" format="2">
  <advance width="596.856"/>
  <unicode hex="0069"/>
  <anchor x="293.512" y="1360.768" name="top"/>
  <anchor x="307.808" y="0.0" name="bottom"/>
  <anchor x="493.23199999999997" y="0.0" name="right"/>
  <outline>
    <contour>
      <point x="303.936" y="1098.056" type="curve" smooth="yes"/>
      <point x="402.152" y="1098.056"/>
      <point x="467.352" y="1168.848"/>
      <point x="467.352" y="1263.064" type="curve" smooth="yes"/>
      <point x="467.352" y="1355.336"/>
      <point x="402.152" y="1425.48"/>
      <point x="303.936" y="1425.48" type="curve" smooth="yes"/>
      <point x="207.016" y="1425.48"/>
      <point x="141.168" y="1355.336"/>
      <point x="141.168" y="1263.064" type="curve" smooth="yes"/>
      <point x="141.168" y="1168.848"/>
      <point x="207.016" y="1098.056"/>
    </contour>
    <contour>
      <point x="457.736" y="891.44" type="line"/>
      <point x="413.168" y="891.44" type="line"/>
      <point x="38.504" y="796.944" type="line"/>
      <point x="38.504" y="758.168" type="line"/>
      <point x="91.728" y="734.632"/>
      <point x="140.528" y="702.872"/>
      <point x="169.00799999999998" y="664.616" type="curve"/>
      <point x="169.00799999999998" y="92.776" type="line"/>
      <point x="46.816" y="40.24" type="line"/>
      <point x="46.816" y="0.0" type="line"/>
      <point x="569.152" y="0.0" type="line"/>
      <point x="569.152" y="40.24" type="line"/>
      <point x="445.904" y="92.776" type="line"/>
      <point x="445.904" y="683.432" type="line"/>
    </contour>
  </outline>
</glyph>
<glyph name="j" format="2">
  <advance width="551.944"/>
  <unicode hex="006A"/>
  <anchor x="284.824" y="1360.768" name="top"/>
  <anchor x="278.344" y="-503.52" name="bottom"/>
  <outline>
    <contour>
      <point x="287.416" y="1098.056" type="curve" smooth="yes"/>
      <point x="385.632" y="1098.056"/>
      <point x="450.832" y="1168.848"/>
      <point x="450.832" y="1263.064" type="curve" smooth="yes"/>
      <point x="450.832" y="1355.336"/>
      <point x="385.632" y="1425.48"/>
      <point x="287.416" y="1425.48" type="curve" smooth="yes"/>
      <point x="190.496" y="1425.48"/>
      <point x="124.648" y="1355.336"/>
      <point x="124.648" y="1263.064" type="curve" smooth="yes"/>
      <point x="124.648" y="1168.848"/>
      <point x="190.496" y="1098.056"/>
    </contour>
    <contour>
      <point x="152.488" y="664.616" type="curve"/>
      <point x="152.488" y="-117.71199999999999" type="line" smooth="yes"/>
      <point x="152.488" y="-262.576"/>
      <point x="137.968" y="-306.152"/>
      <point x="-14.68" y="-474.76" type="curve"/>
      <point x="31.672" y="-530.0" type="line"/>
      <point x="392.832" y="-291.896"/>
      <point x="429.384" y="-238.92000000000002"/>
      <point x="429.384" y="-6.207999999999998" type="curve" smooth="yes"/>
      <point x="429.384" y="683.432" type="line"/>
      <point x="441.216" y="891.44" type="line"/>
      <point x="396.648" y="891.44" type="line"/>
      <point x="21.984" y="796.944" type="line"/>
      <point x="21.984" y="758.168" type="line"/>
      <point x="75.208" y="734.632"/>
      <point x="124.008" y="702.872"/>
    </contour>
  </outline>
</glyph>
<glyph name="k" format="2">
  <advance width="1138"/>
  <unicode hex="006B"/>
  <anchor x="584.896" y="0.0" name="bottom"/>
  <anchor x="578.416" y="1360.768" name="UCtop"/>
  <outline>
    <contour>
      <point x="572.12" y="463.168" type="line"/>
      <point x="948.992" y="773.944" type="line"/>
      <point x="1084.12" y="818.72" type="line"/>
      <point x="1084.12" y="864.96" type="line"/>
      <point x="676.944" y="864.96" type="line"/>
      <point x="676.944" y="818.72" type="line"/>
      <point x="796.576" y="775.888" type="line"/>
      <point x="525.376" y="534.92" type="line"/>
      <point x="329.456" y="534.92" type="line"/>
      <point x="329.456" y="429.0" type="line"/>
      <point x="493.856" y="429.0" type="line"/>
      <point x="736.76" y="82.24" type="line"/>
      <point x="652.16" y="40.24" type="line"/>
      <point x="652.16" y="0.0" type="line"/>
      <point x="1159.344" y="0.0" type="line"/>
      <point x="1159.344" y="40.24" type="line"/>
      <point x="1051.544" y="92.424" type="line"/>
      <point x="686.264" y="610.44" type="line"/>
    </contour>
    <contour>
      <point x="425.144" y="89.536" type="line"/>
      <point x="425.144" y="1211.696" type="line"/>
      <point x="442.92" y="1425.48" type="line"/>
      <point x="410.608" y="1425.48" type="line"/>
      <point x="-3.16" y="1312.32" type="line"/>
      <point x="-3.16" y="1268.344" type="line"/>
      <point x="74.84" y="1232.752"/>
      <point x="116.416" y="1203.64"/>
      <point x="148.248" y="1162.92" type="curve"/>
      <point x="148.248" y="92.776" type="line"/>
      <point x="26.056" y="40.24" type="line"/>
      <point x="26.056" y="0.0" type="line"/>
      <point x="535.432" y="0.0" type="line"/>
      <point x="535.432" y="40.24" type="line"/>
    </contour>
  </outline>
</glyph>
<glyph name="l" format="2">
	<unicode hex="006C"/>
	<advance width="575.856"/>
	<outline>
		<contour>
			<point x="426.2" y="92.776" type="line"/>
			<point x="426.2" y="1211.696" type="line"/>
			<point x="443.976" y="1425.48" type="line"/>
			<point x="411.664" y="1425.48" type="line"/>
			<point x="-2.104" y="1312.32" type="line"/>
			<point x="-2.104" y="1268.344" type="line"/>
			<point x="75.896" y="1232.752"/>
			<point x="117.472" y="1203.64"/>
			<point x="149.304" y="1162.92" type="curve"/>
			<point x="149.304" y="92.776" type="line"/>
			<point x="27.112" y="40.24" type="line"/>
			<point x="27.112" y="0" type="line"/>
			<point x="549.448" y="0" type="line"/>
			<point x="549.448" y="40.24" type="line"/>
		</contour>
	</outline>
	<anchor name="UCtop" x="275.4" y="1360.768"/>
	<anchor name="right" x="426.2" y="1399"/>
	<anchor name="bottom" x="287.752" y="0"/>
	<anchor name="mid" x="638.416" y="549.888"/>
</glyph>
<glyph name="m" format="2">
  <advance width="1691"/>
  <unicode hex="006D"/>
  <anchor x="860.248" y="864.96" name="top"/>
  <anchor x="860.248" y="0.0" name="bottom"/>
  <outline>
    <contour>
      <point x="445.848" y="689.0" type="line"/>
      <point x="393.81600000000003" y="891.44" type="line"/>
      <point x="361.152" y="891.44" type="line"/>
      <point x="37.8" y="775.184" type="line"/>
      <point x="37.8" y="738.52" type="line"/>
      <point x="100.936" y="714.352"/>
      <point x="137.88" y="689.52"/>
      <point x="168.952" y="647.432" type="curve"/>
      <point x="168.952" y="92.776" type="line"/>
      <point x="46.76" y="40.24" type="line"/>
      <point x="46.76" y="0.0" type="line"/>
      <point x="540.952" y="0.0" type="line"/>
      <point x="540.952" y="40.24" type="line"/>
      <point x="445.848" y="86.296" type="line"/>
    </contour>
    <contour>
      <point x="998.048" y="600.304" type="line" smooth="yes"/>
      <point x="998.048" y="780.808"/>
      <point x="921.792" y="891.44"/>
      <point x="750.424" y="891.44" type="curve" smooth="yes"/>
      <point x="629.088" y="891.44"/>
      <point x="536.92" y="855.344"/>
      <point x="375.76" y="679.648" type="curve"/>
      <point x="414.704" y="638.76" type="line"/>
      <point x="450.592" y="673.616"/>
      <point x="516.136" y="695.768"/>
      <point x="587.696" y="695.768" type="curve" smooth="yes"/>
      <point x="674.312" y="695.768"/>
      <point x="721.8" y="660.56"/>
      <point x="721.8" y="575.24" type="curve" smooth="yes"/>
      <point x="721.8" y="86.296" type="line"/>
      <point x="626.048" y="40.24" type="line"/>
      <point x="626.048" y="0.0" type="line"/>
      <point x="1093.448" y="0.0" type="line"/>
      <point x="1093.448" y="40.24" type="line"/>
      <point x="998.048" y="86.296" type="line"/>
    </contour>
    <contour>
      <point x="1550.896" y="579.536" type="line" smooth="yes"/>
      <point x="1550.896" y="785.384"/>
      <point x="1473.936" y="891.44"/>
      <point x="1303.272" y="891.44" type="curve" smooth="yes"/>
      <point x="1181.936" y="891.44"/>
      <point x="1089.768" y="855.344"/>
      <point x="928.608" y="679.648" type="curve"/>
      <point x="967.552" y="638.76" type="line"/>
      <point x="1003.44" y="673.616"/>
      <point x="1068.984" y="695.768"/>
      <point x="1140.544" y="695.768" type="curve" smooth="yes"/>
      <point x="1226.808" y="695.768"/>
      <point x="1274.648" y="660.912"/>
      <point x="1274.648" y="575.24" type="curve" smooth="yes"/>
      <point x="1274.648" y="86.296" type="line"/>
      <point x="1179.544" y="40.24" type="line"/>
      <point x="1179.544" y="0.0" type="line"/>
      <point x="1675.088" y="0.0" type="line"/>
      <point x="1675.088" y="40.24" type="line"/>
      <point x="1550.896" y="92.776" type="line"/>
    </contour>
  </outline>
</glyph>
<glyph name="n" format="2">
	<unicode hex="006E"/>
	<advance width="1168.872"/>
	<outline>
		<contour>
			<point x="445.848" y="689" type="line"/>
			<point x="393.816" y="891.44" type="line"/>
			<point x="361.152" y="891.44" type="line"/>
			<point x="37.8" y="775.184" type="line"/>
			<point x="37.8" y="738.52" type="line"/>
			<point x="100.936" y="714.352"/>
			<point x="137.88" y="689.52"/>
			<point x="168.952" y="647.432" type="curve"/>
			<point x="168.952" y="92.776" type="line"/>
			<point x="46.76" y="40.24" type="line"/>
			<point x="46.76" y="0" type="line"/>
			<point x="552.896" y="0" type="line"/>
			<point x="552.896" y="40.24" type="line"/>
			<point x="445.848" y="86.296" type="line"/>
		</contour>
		<contour>
			<point x="644.736" y="40.24" type="line"/>
			<point x="644.736" y="0" type="line"/>
			<point x="1152.872" y="0" type="line"/>
			<point x="1152.872" y="40.24" type="line"/>
			<point x="1028.68" y="92.776" type="line"/>
			<point x="1028.68" y="561.96" type="line" smooth="yes"/>
			<point x="1028.68" y="785.96"/>
			<point x="945.2" y="891.44"/>
			<point x="769.296" y="891.44" type="curve" smooth="yes"/>
			<point x="641.552" y="891.44"/>
			<point x="544.976" y="853.64"/>
			<point x="376.112" y="669.24" type="curve"/>
			<point x="417.056" y="627.52" type="line"/>
			<point x="455.592" y="664.024"/>
			<point x="525.136" y="689.936"/>
			<point x="605.864" y="689.936" type="curve" smooth="yes"/>
			<point x="704.112" y="689.936"/>
			<point x="751.784" y="648.152"/>
			<point x="751.784" y="558.648" type="curve" smooth="yes"/>
			<point x="751.784" y="86.296" type="line"/>
		</contour>
	</outline>
	<anchor name="top" x="590.792" y="864.96"/>
	<anchor name="bottom" x="601.808" y="0"/>
</glyph>
<glyph name="p" format="2">
	<unicode hex="0070"/>
	<advance width="1134.784"/>
	<outline>
		<contour>
			<point x="786.104" y="418.112" type="curve" smooth="yes"/>
			<point x="786.104" y="177.728"/>
			<point x="711.728" y="75.312"/>
			<point x="590.68" y="75.312" type="curve" smooth="yes"/>
			<point x="487.392" y="75.312"/>
			<point x="428.384" y="154.072"/>
			<point x="428.384" y="260.536" type="curve" smooth="yes"/>
			<point x="428.384" y="765.848" type="line"/>
			<point x="395.792" y="897.92" type="line"/>
			<point x="363.128" y="897.92" type="line"/>
			<point x="20.336" y="781.664" type="line"/>
			<point x="20.336" y="745" type="line"/>
			<point x="79.432" y="718.056"/>
			<point x="122.248" y="690.632"/>
			<point x="151.488" y="653.912" type="curve"/>
			<point x="151.488" y="-410.744" type="line"/>
			<point x="29.296" y="-463.28" type="line"/>
			<point x="29.296" y="-503.52" type="line"/>
			<point x="571.816" y="-503.52" type="line"/>
			<point x="571.816" y="-463.28" type="line"/>
			<point x="428.384" y="-405.56" type="line"/>
			<point x="428.384" y="50.52" type="line"/>
			<point x="270.512" y="50.52" type="line"/>
			<point x="392.232" y="-4.48"/>
			<point x="477.584" y="-26.48"/>
			<point x="581.36" y="-26.48" type="curve" smooth="yes"/>
			<point x="848.616" y="-26.48"/>
			<point x="1075.632" y="161.816"/>
			<point x="1075.632" y="482.96" type="curve" smooth="yes"/>
			<point x="1075.632" y="715.424"/>
			<point x="944.872" y="891.44"/>
			<point x="705.536" y="891.44" type="curve" smooth="yes"/>
			<point x="602.928" y="891.44"/>
			<point x="485.168" y="833.408"/>
			<point x="350.424" y="751.776" type="curve"/>
			<point x="375.696" y="673" type="line"/>
			<point x="432.664" y="714.56"/>
			<point x="506.096" y="731.6"/>
			<point x="574.144" y="731.6" type="curve" smooth="yes"/>
			<point x="702.56" y="731.6"/>
			<point x="786.104" y="627.744"/>
		</contour>
	</outline>
	<anchor name="top" x="567.456" y="864.96"/>
	<anchor name="bottom" x="294.864" y="-503.52"/>
</glyph>
<glyph name="r" format="2">
	<unicode hex="0072"/>
	<advance width="850.904"/>
	<outline>
		<contour>
			<point x="720.944" y="881.2" type="curve" smooth="yes"/>
			<point x="624.136" y="881.2"/>
			<point x="513.896" y="810.296"/>
			<point x="374.392" y="659.304" type="curve"/>
			<point x="397.688" y="607.456" type="line"/>
			<point x="437.336" y="641.4"/>
			<point x="482.008" y="657.864"/>
			<point x="527.36" y="657.864" type="curve" smooth="yes"/>
			<point x="591.84" y="657.864"/>
			<point x="616.344" y="622.92"/>
			<point x="697.928" y="622.92" type="curve" smooth="yes"/>
			<point x="768.52" y="622.92"/>
			<point x="838.68" y="668.104"/>
			<point x="838.68" y="761.8" type="curve" smooth="yes"/>
			<point x="838.68" y="826.76"/>
			<point x="805.792" y="881.2"/>
		</contour>
		<contour>
			<point x="445.848" y="689" type="line"/>
			<point x="419.648" y="891.44" type="line"/>
			<point x="386.984" y="891.44" type="line"/>
			<point x="38.448" y="775.184" type="line"/>
			<point x="38.448" y="738.52" type="line"/>
			<point x="94.952" y="716.112"/>
			<point x="136.472" y="691.28"/>
			<point x="168.952" y="647.432" type="curve"/>
			<point x="168.952" y="92.776" type="line"/>
			<point x="46.76" y="40.24" type="line"/>
			<point x="46.76" y="0" type="line"/>
			<point x="584" y="0" type="line"/>
			<point x="584" y="40.24" type="line"/>
			<point x="445.848" y="97.96" type="line"/>
		</contour>
	</outline>
	<anchor name="top" x="430.512" y="864.96"/>
	<anchor name="bottom" x="307.4" y="0"/>
</glyph>
<glyph name="s" format="2">
  <advance width="788.648"/>
  <unicode hex="0073"/>
  <anchor x="383.328" y="864.96" name="top"/>
  <anchor x="398.344" y="0.0" name="bottom"/>
  <outline>
    <contour>
      <point x="420.528" y="891.44" type="curve" smooth="yes"/>
      <point x="237.848" y="891.44"/>
      <point x="76.376" y="794.072"/>
      <point x="76.376" y="615.32" type="curve" smooth="yes"/>
      <point x="76.376" y="484.04"/>
      <point x="139.176" y="393.88"/>
      <point x="289.96" y="344.23199999999997" type="curve" smooth="yes"/>
      <point x="440.744" y="293.936"/>
      <point x="507.256" y="262.936"/>
      <point x="507.256" y="185.632" type="curve" smooth="yes"/>
      <point x="507.256" y="100.536"/>
      <point x="432.44" y="59.903999999999996"/>
      <point x="318.104" y="59.903999999999996" type="curve" smooth="yes"/>
      <point x="262.736" y="59.903999999999996"/>
      <point x="207.056" y="67.144"/>
      <point x="135.944" y="95.72" type="curve"/>
      <point x="274.79200000000003" y="13.832" type="line"/>
      <point x="128.48" y="271.904" type="line"/>
      <point x="67.224" y="271.904" type="line"/>
      <point x="96.024" y="20.536" type="line"/>
      <point x="168.984" y="-11.296"/>
      <point x="255.144" y="-26.48"/>
      <point x="350.936" y="-26.48" type="curve" smooth="yes"/>
      <point x="564.224" y="-26.48"/>
      <point x="727.976" y="70.648"/>
      <point x="727.976" y="268.696" type="curve" smooth="yes"/>
      <point x="727.976" y="415.976"/>
      <point x="642.952" y="499.952"/>
      <point x="485.28" y="551.136" type="curve" smooth="yes"/>
      <point x="327.608" y="602.32"/>
      <point x="280.968" y="636.024"/>
      <point x="280.968" y="705.512" type="curve" smooth="yes"/>
      <point x="280.968" y="769.256"/>
      <point x="334.544" y="805.888"/>
      <point x="431.952" y="805.888" type="curve" smooth="yes"/>
      <point x="480.12" y="805.888"/>
      <point x="528.896" y="790.128"/>
      <point x="578.896" y="758.256" type="curve"/>
      <point x="498.584" y="840.96" type="line"/>
      <point x="619.264" y="601.2" type="line"/>
      <point x="684.944" y="601.2" type="line"/>
      <point x="675.128" y="839.792" type="line"/>
      <point x="590.0" y="875.2"/>
      <point x="524.984" y="891.44"/>
    </contour>
  </outline>
</glyph>
<glyph name="t" format="2">
	<unicode hex="0074"/>
	<advance width="753.808"/>
	<outline>
		<contour>
			<point x="423.288" y="266.568" type="curve" smooth="yes"/>
			<point x="423.288" y="841.44" type="line"/>
			<point x="423.288" y="1047.8" type="line"/>
			<point x="354.704" y="1047.8" type="line"/>
			<point x="260.448" y="984.448"/>
			<point x="112.04" y="890.92"/>
			<point x="15.712" y="829.44" type="curve"/>
			<point x="15.712" y="788.112" type="line"/>
			<point x="147.04" y="687.84" type="line"/>
			<point x="147.04" y="236.64" type="line" smooth="yes"/>
			<point x="147.04" y="55.112"/>
			<point x="261.848" y="-25.072"/>
			<point x="427.896" y="-25.072" type="curve" smooth="yes"/>
			<point x="509.152" y="-25.072"/>
			<point x="617.92" y="19.256"/>
			<point x="754.656" y="127.176" type="curve"/>
			<point x="754.656" y="186.488" type="line"/>
			<point x="685.472" y="162.952"/>
			<point x="625.936" y="152.008"/>
			<point x="576.696" y="152.008" type="curve" smooth="yes"/>
			<point x="478.64" y="152.008"/>
			<point x="423.288" y="194.064"/>
		</contour>
		<contour>
			<point x="309.912" y="735.376" type="line"/>
			<point x="699.288" y="735.376" type="line"/>
			<point x="719.176" y="864.96" type="line"/>
			<point x="309.912" y="864.96" type="line"/>
		</contour>
	</outline>
	<anchor name="bottom" x="440.224" y="0"/>
	<anchor name="right" x="411.56" y="1370.488"/>
</glyph>
<glyph name="u" format="2">
  <advance width="1121"/>
  <unicode hex="0075"/>
  <anchor x="530.4" y="864.96" name="top"/>
  <anchor x="957.672" y="0.0" name="right"/>
  <anchor x="555.5840000000001" y="0.0" name="bottom"/>
  <anchor x="865.456" y="863.904" name="horn"/>
  <outline>
    <contour>
      <point x="419.976" y="296.904" type="curve" smooth="yes"/>
      <point x="419.976" y="748.872" type="line"/>
      <point x="432.86400000000003" y="883.2" type="line"/>
      <point x="17.28" y="849.76" type="line"/>
      <point x="17.28" y="799.744" type="line"/>
      <point x="143.728" y="736.504" type="line"/>
      <point x="143.728" y="290.536" type="line" smooth="yes"/>
      <point x="143.728" y="78.112"/>
      <point x="224.208" y="-26.48"/>
      <point x="395.872" y="-26.48" type="curve" smooth="yes"/>
      <point x="518.152" y="-26.48"/>
      <point x="607.152" y="9.264"/>
      <point x="769.664" y="186.608" type="curve"/>
      <point x="729.72" y="232.38400000000001" type="line"/>
      <point x="693.776" y="197.528"/>
      <point x="627.5840000000001" y="175.376"/>
      <point x="555.08" y="175.376" type="curve" smooth="yes"/>
      <point x="456.144" y="175.376"/>
      <point x="419.976" y="206.008"/>
    </contour>
    <contour>
      <point x="714.224" y="-18.592" type="line"/>
      <point x="746.536" y="-18.592" type="line"/>
      <point x="1098.936" y="50.944" type="line"/>
      <point x="1098.936" y="89.368" type="line"/>
      <point x="1046.568" y="107.032"/>
      <point x="1000.472" y="134.088"/>
      <point x="969.344" y="167.864" type="curve"/>
      <point x="969.344" y="742.392" type="line"/>
      <point x="985.176" y="883.2" type="line"/>
      <point x="584.44" y="849.76" type="line"/>
      <point x="584.44" y="799.744" type="line"/>
      <point x="692.096" y="742.984" type="line"/>
      <point x="692.096" y="183.496" type="line"/>
    </contour>
  </outline>
</glyph>
<glyph name="v" format="2">
	<unicode hex="0076"/>
	<advance width="1066.28"/>
	<outline>
		<contour>
			<point x="952.608" y="778.48" type="line"/>
			<point x="1051.832" y="819.368" type="line"/>
			<point x="1051.832" y="864.96" type="line"/>
			<point x="724.408" y="864.96" type="line"/>
			<point x="724.408" y="819.368" type="line"/>
			<point x="834.32" y="779.776" type="line"/>
			<point x="602.32" y="166.76" type="line"/>
			<point x="674.344" y="168.704" type="line"/>
			<point x="403.656" y="780.608" type="line"/>
			<point x="515.512" y="819.368" type="line"/>
			<point x="515.512" y="864.96" type="line"/>
			<point x="-17.96" y="864.96" type="line"/>
			<point x="-17.96" y="820.664" type="line"/>
			<point x="100.856" y="770.424" type="line"/>
			<point x="463.728" y="-7.04" type="line"/>
			<point x="626.424" y="-7.04" type="line"/>
		</contour>
	</outline>
	<anchor name="top" x="565.672" y="864.96"/>
	<anchor name="bottom" x="544.12" y="0"/>
</glyph>
<glyph name="w" format="2">
	<unicode hex="0077"/>
	<advance width="1536.864"/>
	<outline>
		<contour>
			<point x="1313.2" y="784.312" type="line"/>
			<point x="1155.472" y="199.16" type="line"/>
			<point x="1210.616" y="199.16" type="line"/>
			<point x="942.368" y="872" type="line"/>
			<point x="772.288" y="872" type="line"/>
			<point x="515.928" y="200.456" type="line"/>
			<point x="569.776" y="200.456" type="line"/>
			<point x="393.752" y="780.608" type="line"/>
			<point x="505.608" y="819.368" type="line"/>
			<point x="505.608" y="864.96" type="line"/>
			<point x="-11.2" y="864.96" type="line"/>
			<point x="-11.2" y="820.664" type="line"/>
			<point x="107.616" y="770.424" type="line"/>
			<point x="362.896" y="-7.04" type="line"/>
			<point x="532.072" y="-7.04" type="line"/>
			<point x="803.984" y="682.536" type="line"/>
			<point x="737.176" y="648.84" type="line"/>
			<point x="1014.736" y="-7.04" type="line"/>
			<point x="1183.912" y="-7.04" type="line"/>
			<point x="1428.248" y="782.368" type="line"/>
			<point x="1526.176" y="819.368" type="line"/>
			<point x="1526.176" y="864.96" type="line"/>
			<point x="1205.232" y="864.96" type="line"/>
			<point x="1205.232" y="819.368" type="line"/>
		</contour>
	</outline>
	<anchor name="top" x="822" y="864.96"/>
	<anchor name="bottom" x="822" y="0"/>
</glyph>
<glyph name="x" format="2">
	<unicode hex="0078"/>
	<advance width="1031.096"/>
	<outline>
		<contour>
			<point x="943.288" y="91.296" type="line"/>
			<point x="617" y="513.584" type="line"/>
			<point x="593.296" y="540.584" type="line"/>
			<point x="413.496" y="783.848" type="line"/>
			<point x="517.056" y="821.312" type="line"/>
			<point x="517.056" y="864.96" type="line"/>
			<point x="9.376" y="864.96" type="line"/>
			<point x="9.376" y="821.312" type="line"/>
			<point x="108.752" y="773.664" type="line"/>
			<point x="425.76" y="367.896" type="line"/>
			<point x="444.872" y="342.248" type="line"/>
			<point x="638.544" y="81.112" type="line"/>
			<point x="541.464" y="43.648" type="line"/>
			<point x="541.464" y="0" type="line"/>
			<point x="1042.664" y="0" type="line"/>
			<point x="1042.664" y="43.648" type="line"/>
		</contour>
		<contour>
			<point x="520.344" y="418.032" type="line"/>
			<point x="576.432" y="429.296" type="line"/>
			<point x="883.688" y="781.72" type="line"/>
			<point x="990.688" y="821.312" type="line"/>
			<point x="990.688" y="864.96" type="line"/>
			<point x="640.584" y="864.96" type="line"/>
			<point x="640.584" y="821.312" type="line"/>
			<point x="752.048" y="783.664" type="line"/>
			<point x="506.272" y="477.168" type="line"/>
			<point x="451.776" y="465.904" type="line"/>
			<point x="116.336" y="83.24" type="line"/>
			<point x="5.8" y="43.648" type="line"/>
			<point x="5.8" y="0" type="line"/>
			<point x="363.792" y="0" type="line"/>
			<point x="363.792" y="43.648" type="line"/>
			<point x="248.328" y="81.296" type="line"/>
		</contour>
	</outline>
	<anchor name="top" x="525.344" y="864.96"/>
	<anchor name="bottom" x="525.344" y="0"/>
</glyph>
<glyph name="y" format="2">
  <advance width="1085"/>
  <unicode hex="0079"/>
  <anchor x="598.6320000000001" y="864.96" name="top"/>
  <anchor x="759.96" y="-133.32" name="bottom"/>
  <outline>
    <contour>
      <point x="687.4" y="187.824" type="line"/>
      <point x="415.064" y="780.608" type="line"/>
      <point x="526.92" y="819.368" type="line"/>
      <point x="526.92" y="864.96" type="line"/>
      <point x="-10.440000000000001" y="864.96" type="line"/>
      <point x="-10.440000000000001" y="820.664" type="line"/>
      <point x="108.376" y="769.776" type="line"/>
      <point x="552.432" y="-132.256" type="line"/>
    </contour>
    <contour>
      <point x="246.568" y="-530.0" type="curve" smooth="yes"/>
      <point x="392.8" y="-530.0"/>
      <point x="470.688" y="-471.368"/>
      <point x="582.776" y="-199.264" type="curve" smooth="yes"/>
      <point x="985.456" y="782.368" type="line"/>
      <point x="1082.68" y="819.368" type="line"/>
      <point x="1082.68" y="864.96" type="line"/>
      <point x="755.144" y="864.96" type="line"/>
      <point x="755.144" y="819.368" type="line"/>
      <point x="859.576" y="784.96" type="line"/>
      <point x="648.5360000000001" y="186.976" type="line"/>
      <point x="601.184" y="71.584" type="line"/>
      <point x="482.88800000000003" y="-185.59199999999998" type="line" smooth="yes"/>
      <point x="428.152" y="-300.456"/>
      <point x="386.432" y="-324.048"/>
      <point x="321.752" y="-324.048" type="curve" smooth="yes"/>
      <point x="252.776" y="-324.048"/>
      <point x="220.944" y="-291.288"/>
      <point x="185.128" y="-291.288" type="curve" smooth="yes"/>
      <point x="148.664" y="-291.288"/>
      <point x="98.408" y="-332.824"/>
      <point x="98.408" y="-399.376" type="curve" smooth="yes"/>
      <point x="98.408" y="-480.928"/>
      <point x="160.424" y="-530.0"/>
    </contour>
  </outline>
</glyph>
<glyph name="z" format="2">
  <advance width="899"/>
  <unicode hex="007A"/>
  <anchor x="474.808" y="864.96" name="top"/>
  <anchor x="464.288" y="0.0" name="bottom"/>
  <outline>
    <contour>
      <point x="56.224000000000004" y="0.0" type="line"/>
      <point x="802.96" y="0.0" type="line"/>
      <point x="877.976" y="300.104" type="line"/>
      <point x="815.776" y="300.104" type="line"/>
      <point x="630.488" y="35.24" type="line"/>
      <point x="721.072" y="111.104" type="line"/>
      <point x="205.536" y="87.128" type="line"/>
      <point x="343.808" y="34.168" type="line"/>
      <point x="835.944" y="827.352" type="line"/>
      <point x="835.944" y="864.96" type="line"/>
      <point x="219.24" y="864.96" type="line"/>
      <point x="130.448" y="891.44" type="line"/>
      <point x="100.392" y="891.44" type="line"/>
      <point x="47.432" y="575.28" type="line"/>
      <point x="112.112" y="575.28" type="line"/>
      <point x="264.312" y="837.016" type="line"/>
      <point x="132.856" y="755.152" type="line"/>
      <point x="682.376" y="776.536" type="line"/>
      <point x="544.36" y="828.792" type="line"/>
      <point x="56.224000000000004" y="36.96" type="line"/>
    </contour>
  </outline>
</glyph>
<glyph name="bar" format="2">
  <advance width="454.192"/>
  <unicode hex="007C"/>
  <outline>
    <contour>
      <point x="166.61599999999999" y="-530.0" type="line"/>
      <point x="287.576" y="-530.0" type="line"/>
      <point x="287.576" y="1470.0" type="line"/>
      <point x="166.61599999999999" y="1470.0" type="line"/>
    </contour>
  </outline>
</glyph>
<glyph name="exclamdown" format="2">
	<unicode hex="00A1"/>
	<advance width="526.376"/>
	<outline>
		<contour>
			<point x="91.384" y="-398.424" type="line" smooth="yes"/>
			<point x="91.032" y="-473.08"/>
			<point x="177.096" y="-509.408"/>
			<point x="263.16" y="-509.408" type="curve" smooth="yes"/>
			<point x="349.224" y="-509.408"/>
			<point x="435.288" y="-473.08"/>
			<point x="434.936" y="-398.424" type="curve" smooth="yes"/>
			<point x="433.528" y="-330.624" type="line" smooth="yes"/>
			<point x="432.472" y="-233.208"/>
			<point x="383.624" y="-54.224"/>
			<point x="297.048" y="392.384" type="curve"/>
			<point x="229.272" y="392.384" type="line"/>
			<point x="142.696" y="-54.224"/>
			<point x="93.848" y="-233.208"/>
			<point x="92.792" y="-330.624" type="curve" smooth="yes"/>
		</contour>
		<contour>
			<point x="262.568" y="552.072" type="curve" smooth="yes"/>
			<point x="359.136" y="552.072"/>
			<point x="428.928" y="624.512"/>
			<point x="428.928" y="714.488" type="curve" smooth="yes"/>
			<point x="428.928" y="805.112"/>
			<point x="359.136" y="877.552"/>
			<point x="262.568" y="877.552" type="curve" smooth="yes"/>
			<point x="166" y="877.552"/>
			<point x="96.208" y="805.112"/>
			<point x="96.208" y="714.488" type="curve" smooth="yes"/>
			<point x="96.208" y="624.512"/>
			<point x="166" y="552.072"/>
		</contour>
	</outline>
</glyph>
<glyph name="currency" format="2">
	<unicode hex="00A4"/>
	<advance width="887.072"/>
	<outline>
		<contour>
			<point x="190.536" y="775.216" type="line"/>
			<point x="104.32" y="689" type="line"/>
			<point x="229.536" y="563.784" type="line"/>
			<point x="315.752" y="650" type="line"/>
		</contour>
		<contour>
			<point x="104.32" y="183" type="line"/>
			<point x="190.536" y="96.784" type="line"/>
			<point x="312.752" y="219" type="line"/>
			<point x="226.536" y="305.216" type="line"/>
		</contour>
		<contour>
			<point x="443.536" y="722.44" type="curve" smooth="yes"/>
			<point x="275.872" y="722.44"/>
			<point x="156.096" y="603.016"/>
			<point x="156.096" y="436" type="curve" smooth="yes"/>
			<point x="156.096" y="268.984"/>
			<point x="275.872" y="149.56"/>
			<point x="443.536" y="149.56" type="curve" smooth="yes"/>
			<point x="611.2" y="149.56"/>
			<point x="730.976" y="268.984"/>
			<point x="730.976" y="436" type="curve" smooth="yes"/>
			<point x="730.976" y="603.016"/>
			<point x="611.2" y="722.44"/>
		</contour>
		<contour>
			<point x="443.536" y="261.256" type="curve" smooth="yes"/>
			<point x="343.312" y="261.256"/>
			<point x="272.792" y="331.424"/>
			<point x="272.792" y="436" type="curve" smooth="yes"/>
			<point x="272.792" y="540.576"/>
			<point x="343.312" y="610.744"/>
			<point x="443.536" y="610.744" type="curve" smooth="yes"/>
			<point x="543.76" y="610.744"/>
			<point x="614.28" y="540.576"/>
			<point x="614.28" y="436" type="curve" smooth="yes"/>
			<point x="614.28" y="331.424"/>
			<point x="543.76" y="261.256"/>
		</contour>
		<contour>
			<point x="782.752" y="689" type="line"/>
			<point x="696.536" y="775.216" type="line"/>
			<point x="571.32" y="650" type="line"/>
			<point x="657.536" y="563.784" type="line"/>
		</contour>
		<contour>
			<point x="782.752" y="183" type="line"/>
			<point x="660.536" y="305.216" type="line"/>
			<point x="574.32" y="219" type="line"/>
			<point x="696.536" y="96.784" type="line"/>
		</contour>
	</outline>
</glyph>
<glyph name="brokenbar" format="2">
	<unicode hex="00A6"/>
	<advance width="454.192"/>
	<outline>
		<contour>
			<point x="287.576" y="702.12" type="line"/>
			<point x="287.576" y="1470" type="line"/>
			<point x="166.616" y="1470" type="line"/>
			<point x="166.616" y="702.12" type="line"/>
		</contour>
		<contour>
			<point x="166.616" y="-530" type="line"/>
			<point x="287.576" y="-530" type="line"/>
			<point x="287.576" y="322.12" type="line"/>
			<point x="166.616" y="322.12" type="line"/>
		</contour>
	</outline>
</glyph>
<glyph name="section" format="2">
  <advance width="1155"/>
  <unicode hex="00A7"/>
  <outline>
    <contour>
      <point x="510.12" y="-281.48" type="curve" smooth="yes"/>
      <point x="809.376" y="-281.48"/>
      <point x="963.04" y="-135.32"/>
      <point x="963.04" y="58.528" type="curve" smooth="yes"/>
      <point x="963.04" y="451.192"/>
      <point x="305.79200000000003" y="345.98400000000004"/>
      <point x="305.79200000000003" y="591.328" type="curve" smooth="yes"/>
      <point x="305.79200000000003" y="662.688"/>
      <point x="348.224" y="716.584"/>
      <point x="452.96" y="747.048" type="curve"/>
      <point x="395.928" y="811.584" type="line"/>
      <point x="191.368" y="762.12"/>
      <point x="79.0" y="649.656"/>
      <point x="79.0" y="489.584" type="curve" smooth="yes"/>
      <point x="79.0" y="72.056"/>
      <point x="746.728" y="199.2"/>
      <point x="746.728" y="-56.456" type="curve" smooth="yes"/>
      <point x="746.728" y="-132.21200000000002"/>
      <point x="691.056" y="-183.856"/>
      <point x="570.648" y="-183.856" type="curve" smooth="yes"/>
      <point x="409.76" y="-183.856"/>
      <point x="394.20799999999997" y="-12.247999999999998"/>
      <point x="277.6" y="-12.247999999999998" type="curve" smooth="yes"/>
      <point x="214.99200000000002" y="-12.247999999999998"/>
      <point x="169.864" y="-50.135999999999996"/>
      <point x="169.864" y="-113.8" type="curve" smooth="yes"/>
      <point x="169.864" y="-199.184"/>
      <point x="263.176" y="-281.48"/>
    </contour>
    <contour>
      <point x="848.728" y="500.712" type="curve" smooth="yes"/>
      <point x="848.728" y="426.536"/>
      <point x="802.776" y="374.048"/>
      <point x="696.28" y="343.584" type="curve"/>
      <point x="758.592" y="279.752" type="line"/>
      <point x="952.592" y="327.456"/>
      <point x="1075.52" y="433.23199999999997"/>
      <point x="1075.52" y="602.456" type="curve" smooth="yes"/>
      <point x="1075.52" y="1019.984"/>
      <point x="407.79200000000003" y="892.84"/>
      <point x="407.79200000000003" y="1141.456" type="curve" smooth="yes"/>
      <point x="407.79200000000003" y="1217.0"/>
      <point x="465.224" y="1268.856"/>
      <point x="590.208" y="1268.856" type="curve" smooth="yes"/>
      <point x="751.096" y="1268.856"/>
      <point x="766.648" y="1097.248"/>
      <point x="883.256" y="1097.248" type="curve" smooth="yes"/>
      <point x="945.864" y="1097.248"/>
      <point x="990.992" y="1135.136"/>
      <point x="990.992" y="1198.8" type="curve" smooth="yes"/>
      <point x="990.992" y="1284.184"/>
      <point x="897.6800000000001" y="1366.48"/>
      <point x="650.736" y="1366.48" type="curve" smooth="yes"/>
      <point x="347.96" y="1366.48"/>
      <point x="191.48" y="1223.84"/>
      <point x="191.48" y="1029.992" type="curve" smooth="yes"/>
      <point x="191.48" y="636.624"/>
      <point x="848.728" y="746.056"/>
    </contour>
  </outline>
</glyph>
<glyph name="ordfeminine" format="2">
	<unicode hex="00AA"/>
	<advance width="902.272"/>
	<outline>
		<contour>
			<point x="123.776" y="450.392" type="line"/>
			<point x="805.584" y="450.392" type="line"/>
			<point x="805.584" y="567.256" type="line"/>
			<point x="123.776" y="567.256" type="line"/>
		</contour>
		<contour>
			<point x="525.848" y="1024.024" type="curve"/>
			<point x="520.92" y="1104.632" type="line"/>
			<point x="186.584" y="1028.464"/>
			<point x="110.176" y="956.168"/>
			<point x="110.176" y="846.056" type="curve" smooth="yes"/>
			<point x="110.176" y="729.928"/>
			<point x="188.88" y="673.168"/>
			<point x="300.528" y="673.168" type="curve" smooth="yes"/>
			<point x="395.008" y="673.168"/>
			<point x="476.432" y="735.592"/>
			<point x="499.896" y="841.68" type="curve"/>
			<point x="493.008" y="841.68" type="line"/>
			<point x="494.952" y="749.2"/>
			<point x="539.824" y="673.872"/>
			<point x="645.632" y="673.872" type="curve" smooth="yes"/>
			<point x="697.944" y="673.872"/>
			<point x="754.696" y="694.592"/>
			<point x="811.88" y="737.536" type="curve"/>
			<point x="811.88" y="793.552" type="line"/>
			<point x="791.176" y="785.792"/>
			<point x="771.008" y="782.088"/>
			<point x="753.544" y="782.088" type="curve" smooth="yes"/>
			<point x="726.32" y="782.088"/>
			<point x="713.208" y="798.2"/>
			<point x="713.208" y="830.648" type="curve" smooth="yes"/>
			<point x="713.208" y="1154.136" type="line" smooth="yes"/>
			<point x="713.208" y="1275.616"/>
			<point x="665.52" y="1360"/>
			<point x="470.68" y="1360" type="curve" smooth="yes"/>
			<point x="295.224" y="1360"/>
			<point x="117.6" y="1268.296"/>
			<point x="117.6" y="1182.096" type="curve" smooth="yes"/>
			<point x="117.6" y="1150.56"/>
			<point x="143.488" y="1133.208"/>
			<point x="188.856" y="1133.208" type="curve" smooth="yes"/>
			<point x="220.744" y="1133.208"/>
			<point x="248.392" y="1140.912"/>
			<point x="269.688" y="1164.8" type="curve" smooth="yes"/>
			<point x="291.632" y="1188.688"/>
			<point x="304.112" y="1230.056"/>
			<point x="312.76" y="1306.832" type="curve"/>
			<point x="284.96" y="1246.984" type="line"/>
			<point x="312.704" y="1258.208"/>
			<point x="348.392" y="1264.32"/>
			<point x="379.152" y="1264.32" type="curve" smooth="yes"/>
			<point x="450.896" y="1264.32"/>
			<point x="482.712" y="1227.688"/>
			<point x="482.712" y="1169.888" type="curve" smooth="yes"/>
			<point x="482.712" y="898.888" type="line" smooth="yes"/>
			<point x="482.712" y="848.976"/>
			<point x="447.616" y="806.416"/>
			<point x="399.944" y="806.416" type="curve" smooth="yes"/>
			<point x="360.384" y="806.416"/>
			<point x="329.232" y="832.048"/>
			<point x="329.232" y="893.216" type="curve" smooth="yes"/>
			<point x="329.232" y="949.776"/>
			<point x="360.792" y="987.224"/>
		</contour>
	</outline>
</glyph>
<glyph name="guillemotleft" format="2">
  <advance width="1013"/>
  <unicode hex="00AB"/>
  <outline>
    <contour>
      <point x="272.968" y="503.8" type="line"/>
      <point x="272.968" y="364.68" type="line"/>
      <point x="521.496" y="814.72" type="line"/>
      <point x="464.944" y="859.68" type="line"/>
      <point x="46.096000000000004" y="471.68" type="line"/>
      <point x="46.096000000000004" y="396.8" type="line"/>
      <point x="464.944" y="8.8" type="line"/>
      <point x="521.496" y="53.76" type="line"/>
    </contour>
    <contour>
      <point x="698.328" y="503.8" type="line"/>
      <point x="698.328" y="364.68" type="line"/>
      <point x="946.856" y="814.72" type="line"/>
      <point x="890.304" y="859.68" type="line"/>
      <point x="471.456" y="471.68" type="line"/>
      <point x="471.456" y="396.8" type="line"/>
      <point x="890.304" y="8.8" type="line"/>
      <point x="946.856" y="53.76" type="line"/>
    </contour>
  </outline>
</glyph>
<glyph name="logicalnot" format="2">
  <advance width="1000.0"/>
  <unicode hex="00AC"/>
  <outline>
    <contour>
      <point x="117.968" y="667.44" type="line"/>
      <point x="117.968" y="544.56" type="line"/>
      <point x="870.848" y="544.56" type="line"/>
      <point x="870.848" y="667.44" type="line"/>
    </contour>
    <contour>
      <point x="870.848" y="622.44" type="line"/>
      <point x="747.968" y="622.44" type="line"/>
      <point x="747.968" y="204.56" type="line"/>
      <point x="870.848" y="204.56" type="line"/>
    </contour>
  </outline>
</glyph>
<glyph name="degree" format="2">
	<unicode hex="00B0"/>
	<advance width="744.56"/>
	<outline>
		<contour>
			<point x="372.28" y="1356.48" type="curve" smooth="yes"/>
			<point x="192.392" y="1356.48"/>
			<point x="63.8" y="1229.888"/>
			<point x="63.8" y="1050" type="curve" smooth="yes"/>
			<point x="63.8" y="870.112"/>
			<point x="192.392" y="743.52"/>
			<point x="372.28" y="743.52" type="curve" smooth="yes"/>
			<point x="552.168" y="743.52"/>
			<point x="680.76" y="870.112"/>
			<point x="680.76" y="1050" type="curve" smooth="yes"/>
			<point x="680.76" y="1229.888"/>
			<point x="552.168" y="1356.48"/>
		</contour>
		<contour>
			<point x="372.28" y="835.072" type="curve" smooth="yes"/>
			<point x="249.464" y="835.072"/>
			<point x="160.704" y="921.184"/>
			<point x="160.704" y="1050" type="curve" smooth="yes"/>
			<point x="160.704" y="1178.816"/>
			<point x="249.464" y="1264.928"/>
			<point x="372.28" y="1264.928" type="curve" smooth="yes"/>
			<point x="495.096" y="1264.928"/>
			<point x="583.856" y="1178.816"/>
			<point x="583.856" y="1050" type="curve" smooth="yes"/>
			<point x="583.856" y="921.184"/>
			<point x="495.096" y="835.072"/>
		</contour>
	</outline>
</glyph>
<glyph name="plusminus" format="2">
  <advance width="1000.0"/>
  <unicode hex="00B1"/>
  <outline>
    <contour>
      <point x="438.56" y="864.96" type="line"/>
      <point x="438.56" y="112.08" type="line"/>
      <point x="561.44" y="112.08" type="line"/>
      <point x="561.44" y="864.96" type="line"/>
    </contour>
    <contour>
      <point x="123.56" y="549.96" type="line"/>
      <point x="123.56" y="427.08" type="line"/>
      <point x="876.44" y="427.08" type="line"/>
      <point x="876.44" y="549.96" type="line"/>
    </contour>
    <contour>
      <point x="123.56" y="122.88" type="line"/>
      <point x="123.56" y="0.0" type="line"/>
      <point x="876.44" y="0.0" type="line"/>
      <point x="876.44" y="122.88" type="line"/>
    </contour>
  </outline>
</glyph>
<glyph name="uni00B2" format="2">
  <advance width="723"/>
  <unicode hex="00B2"/>
  <outline>
    <contour>
      <point x="470.48" y="683.072" type="line"/>
      <point x="631.296" y="773.656" type="line"/>
      <point x="223.288" y="773.656" type="line"/>
      <point x="227.288" y="715.88" type="line"/>
      <point x="347.776" y="812.928" type="line" smooth="yes"/>
      <point x="552.36" y="968.8"/>
      <point x="614.896" y="1047.28"/>
      <point x="614.896" y="1150.464" type="curve" smooth="yes"/>
      <point x="614.896" y="1278.648"/>
      <point x="514.416" y="1357.888"/>
      <point x="362.032" y="1357.888" type="curve" smooth="yes"/>
      <point x="200.352" y="1357.888"/>
      <point x="94.816" y="1267.704"/>
      <point x="49.448" y="1070.84" type="curve"/>
      <point x="113.424" y="1054.064" type="line"/>
      <point x="142.48" y="1151.936"/>
      <point x="196.52" y="1191.88"/>
      <point x="272.392" y="1191.88" type="curve" smooth="yes"/>
      <point x="346.32" y="1191.88"/>
      <point x="393.488" y="1146.712"/>
      <point x="393.488" y="1084.248" type="curve" smooth="yes"/>
      <point x="393.488" y="1011.912"/>
      <point x="357.08" y="943.504"/>
      <point x="249.84" y="833.576" type="curve" smooth="yes"/>
      <point x="63.984" y="641.4" type="line"/>
      <point x="63.984" y="592.0" type="line"/>
      <point x="526.176" y="592.0" type="line"/>
      <point x="603.952" y="562.872" type="line"/>
      <point x="624.432" y="562.872" type="line"/>
      <point x="679.096" y="884.12" type="line"/>
      <point x="644.672" y="884.12" type="line"/>
    </contour>
  </outline>
</glyph>
<glyph name="uni00B5" format="2">
  <advance width="1171"/>
  <unicode hex="00B5"/>
  <outline>
    <contour>
      <point x="157.672" y="864.96" type="line"/>
      <point x="157.672" y="-520.0" type="line"/>
      <point x="197.48" y="-520.0" type="line"/>
      <point x="373.92" y="-492.632" type="line"/>
      <point x="241.096" y="177.256" type="line"/>
      <point x="226.8" y="177.256" type="line"/>
      <point x="249.928" y="19.759999999999998"/>
      <point x="325.816" y="-26.48"/>
      <point x="443.832" y="-26.48" type="curve" smooth="yes"/>
      <point x="532.096" y="-26.48"/>
      <point x="621.096" y="9.264"/>
      <point x="783.608" y="186.608" type="curve"/>
      <point x="743.664" y="232.38400000000001" type="line"/>
      <point x="707.72" y="197.528"/>
      <point x="641.528" y="175.376"/>
      <point x="569.024" y="175.376" type="curve" smooth="yes"/>
      <point x="470.088" y="175.376"/>
      <point x="433.92" y="206.008"/>
      <point x="433.92" y="296.904" type="curve" smooth="yes"/>
      <point x="433.92" y="864.96" type="line"/>
    </contour>
    <contour>
      <point x="983.288" y="182.776" type="curve" smooth="yes"/>
      <point x="983.288" y="864.96" type="line"/>
      <point x="706.04" y="864.96" type="line"/>
      <point x="706.04" y="193.864" type="line" smooth="yes"/>
      <point x="706.04" y="63.368"/>
      <point x="766.28" y="-25.776"/>
      <point x="909.992" y="-25.776" type="curve" smooth="yes"/>
      <point x="978.84" y="-25.776"/>
      <point x="1063.576" y="13.536000000000001"/>
      <point x="1133.48" y="72.888" type="curve"/>
      <point x="1133.48" y="136.38400000000001" type="line"/>
      <point x="1101.776" y="118.49600000000001"/>
      <point x="1071.256" y="110.384"/>
      <point x="1045.44" y="110.384" type="curve" smooth="yes"/>
      <point x="1003.808" y="110.384"/>
      <point x="983.288" y="133.552"/>
    </contour>
  </outline>
</glyph>
<glyph name="uni00B9" format="2">
  <advance width="560.136"/>
  <unicode hex="00B9"/>
  <outline>
    <contour>
      <point x="216.408" y="662.072" type="line"/>
      <point x="101.168" y="629.48" type="line"/>
      <point x="101.168" y="592.0" type="line"/>
      <point x="528.984" y="592.0" type="line"/>
      <point x="528.984" y="629.48" type="line"/>
      <point x="421.392" y="662.072" type="line"/>
      <point x="421.392" y="1341.76" type="line"/>
      <point x="304.184" y="1341.76" type="line"/>
      <point x="22.855999999999998" y="1193.04" type="line"/>
      <point x="40.688" y="1138.192" type="line"/>
      <point x="264.072" y="1201.264" type="line"/>
      <point x="216.408" y="1280.112" type="line"/>
    </contour>
  </outline>
</glyph>
<glyph name="ordmasculine" format="2">
	<unicode hex="00BA"/>
	<advance width="923.584"/>
	<outline>
		<contour>
			<point x="131.8" y="448.984" type="line"/>
			<point x="791.784" y="448.984" type="line"/>
			<point x="791.784" y="569.016" type="line"/>
			<point x="131.8" y="569.016" type="line"/>
		</contour>
		<contour>
			<point x="467.44" y="770.072" type="curve" smooth="yes"/>
			<point x="377.768" y="770.072"/>
			<point x="330.336" y="865.48"/>
			<point x="330.336" y="1045.664" type="curve" smooth="yes"/>
			<point x="330.336" y="1206.128"/>
			<point x="382.36" y="1263.04"/>
			<point x="456.552" y="1263.04" type="curve" smooth="yes"/>
			<point x="546.52" y="1263.04"/>
			<point x="593.656" y="1167.336"/>
			<point x="593.656" y="985.8" type="curve" smooth="yes"/>
			<point x="593.656" y="824.984"/>
			<point x="541.576" y="770.072"/>
		</contour>
		<contour>
			<point x="456.256" y="673.168" type="curve" smooth="yes"/>
			<point x="675.712" y="673.168"/>
			<point x="829.32" y="820.464"/>
			<point x="829.32" y="1025.296" type="curve" smooth="yes"/>
			<point x="829.32" y="1223.944"/>
			<point x="692.784" y="1360"/>
			<point x="468.384" y="1360" type="curve" smooth="yes"/>
			<point x="247.928" y="1360"/>
			<point x="94.264" y="1212"/>
			<point x="94.264" y="1006.112" type="curve" smooth="yes"/>
			<point x="94.264" y="808.576"/>
			<point x="231.504" y="673.168"/>
		</contour>
	</outline>
</glyph>
<glyph name="guillemotright" format="2">
  <advance width="1056"/>
  <unicode hex="00BB"/>
  <outline>
    <contour>
      <point x="329.216" y="365.68" type="line"/>
      <point x="329.216" y="504.8" type="line"/>
      <point x="80.688" y="54.76" type="line"/>
      <point x="137.24" y="9.8" type="line"/>
      <point x="556.088" y="397.8" type="line"/>
      <point x="556.088" y="472.68" type="line"/>
      <point x="137.24" y="860.68" type="line"/>
      <point x="80.688" y="815.72" type="line"/>
    </contour>
    <contour>
      <point x="754.576" y="365.68" type="line"/>
      <point x="754.576" y="504.8" type="line"/>
      <point x="506.048" y="54.76" type="line"/>
      <point x="562.6" y="9.8" type="line"/>
      <point x="981.448" y="397.8" type="line"/>
      <point x="981.448" y="472.68" type="line"/>
      <point x="562.6" y="860.68" type="line"/>
      <point x="506.048" y="815.72" type="line"/>
    </contour>
  </outline>
</glyph>
<glyph name="questiondown" format="2">
  <advance width="941.7280000000001"/>
  <unicode hex="00BF"/>
  <outline>
    <contour>
      <point x="648.6800000000001" y="-502.928" type="curve" smooth="yes"/>
      <point x="834.152" y="-502.928"/>
      <point x="910.912" y="-446.32"/>
      <point x="910.912" y="-371.488" type="curve" smooth="yes"/>
      <point x="910.912" y="-304.344"/>
      <point x="860.84" y="-253.976"/>
      <point x="797.712" y="-253.976" type="curve" smooth="yes"/>
      <point x="671.552" y="-253.976"/>
      <point x="605.88" y="-374.304"/>
      <point x="477.528" y="-374.304" type="curve" smooth="yes"/>
      <point x="359.98400000000004" y="-374.304"/>
      <point x="293.328" y="-308.056"/>
      <point x="293.328" y="-191.84" type="curve" smooth="yes"/>
      <point x="293.328" y="-56.408"/>
      <point x="402.832" y="28.167999999999992"/>
      <point x="676.776" y="20.128" type="curve"/>
      <point x="583.04" y="398.864" type="line"/>
      <point x="527.728" y="398.864" type="line"/>
      <point x="501.808" y="89.56" type="line"/>
      <point x="573.232" y="246.624" type="line"/>
      <point x="233.472" y="250.848"/>
      <point x="114.624" y="131.696"/>
      <point x="114.624" y="-76.096" type="curve" smooth="yes"/>
      <point x="114.624" y="-335.488"/>
      <point x="306.592" y="-502.928"/>
    </contour>
    <contour>
      <point x="550.744" y="552.072" type="curve" smooth="yes"/>
      <point x="647.312" y="552.072"/>
      <point x="717.104" y="624.512"/>
      <point x="717.104" y="714.488" type="curve" smooth="yes"/>
      <point x="717.104" y="805.112"/>
      <point x="647.312" y="877.552"/>
      <point x="550.744" y="877.552" type="curve" smooth="yes"/>
      <point x="454.176" y="877.552"/>
      <point x="384.384" y="805.112"/>
      <point x="384.384" y="714.488" type="curve" smooth="yes"/>
      <point x="384.384" y="624.512"/>
      <point x="454.176" y="552.072"/>
    </contour>
  </outline>
</glyph>
<glyph name="Ccedilla" format="2">
	<unicode hex="00C7"/>
	<advance width="1411.456"/>
	<outline>
		<contour>
			<point x="922.928" y="102.4" type="curve" smooth="yes"/>
			<point x="615.44" y="102.4"/>
			<point x="395.248" y="318.016"/>
			<point x="395.248" y="753.512" type="curve" smooth="yes"/>
			<point x="395.248" y="1073.664"/>
			<point x="554.848" y="1238.84"/>
			<point x="840.776" y="1238.84" type="curve" smooth="yes"/>
			<point x="944.072" y="1238.84"/>
			<point x="1033.496" y="1215.008"/>
			<point x="1139.664" y="1142.048" type="curve"/>
			<point x="1055.6" y="1231.944" type="line"/>
			<point x="1266.848" y="896.656" type="line"/>
			<point x="1329.696" y="910.84" type="line"/>
			<point x="1259.384" y="1410.96" type="line"/>
			<point x="1221.296" y="1410.96" type="line"/>
			<point x="1087.224" y="1312.408" type="line"/>
			<point x="1166.496" y="1331.48" type="line"/>
			<point x="1049.256" y="1358.48"/>
			<point x="973.368" y="1366.48"/>
			<point x="887.776" y="1366.48" type="curve" smooth="yes"/>
			<point x="383.704" y="1366.48"/>
			<point x="74.56" y="1079.464"/>
			<point x="74.56" y="658" type="curve" smooth="yes"/>
			<point x="74.56" y="218.448"/>
			<point x="363.008" y="-26.48"/>
			<point x="848.184" y="-26.48" type="curve" smooth="yes"/>
			<point x="1021.368" y="-26.48"/>
			<point x="1174.24" y="1.04"/>
			<point x="1295.64" y="49.576" type="curve"/>
			<point x="1339.656" y="406.488" type="line"/>
			<point x="1282.768" y="406.488" type="line"/>
			<point x="1102.296" y="105.088" type="line"/>
			<point x="1169.032" y="153.104" type="line"/>
			<point x="1073.624" y="114.512"/>
			<point x="1005.248" y="102.4"/>
		</contour>
		<contour>
			<point x="690.92" y="-530" type="curve" smooth="yes"/>
			<point x="853.56" y="-530"/>
			<point x="966.248" y="-418.32"/>
			<point x="966.248" y="-298.04" type="curve" smooth="yes"/>
			<point x="966.248" y="-213.688"/>
			<point x="913.08" y="-147.28"/>
			<point x="714.064" y="-105.264" type="curve"/>
			<point x="709.288" y="-221" type="line"/>
			<point x="895.92" y="49.352" type="line"/>
			<point x="804.664" y="49.352" type="line"/>
			<point x="609.44" y="-229.144" type="line"/>
			<point x="609.44" y="-242.608" type="line"/>
			<point x="799.936" y="-276.568"/>
			<point x="839.552" y="-315.16"/>
			<point x="839.552" y="-369.072" type="curve" smooth="yes"/>
			<point x="839.552" y="-419.352"/>
			<point x="800.736" y="-449.28"/>
			<point x="747.16" y="-449.28" type="curve" smooth="yes"/>
			<point x="677.864" y="-449.28"/>
			<point x="658.792" y="-378.504"/>
			<point x="601.44" y="-378.504" type="curve" smooth="yes"/>
			<point x="563.96" y="-378.504"/>
			<point x="542.608" y="-405.28"/>
			<point x="542.608" y="-438.872" type="curve" smooth="yes"/>
			<point x="542.608" y="-486.408"/>
			<point x="590.68" y="-530"/>
		</contour>
	</outline>
</glyph>
<glyph name="multiply" format="2">
	<unicode hex="00D7"/>
	<advance width="1000"/>
	<outline>
		<contour>
			<point x="160.784" y="183" type="line"/>
			<point x="247" y="96.784" type="line"/>
			<point x="839.216" y="689" type="line"/>
			<point x="753" y="775.216" type="line"/>
		</contour>
		<contour>
			<point x="160.784" y="689" type="line"/>
			<point x="753" y="96.784" type="line"/>
			<point x="839.216" y="183" type="line"/>
			<point x="247" y="775.216" type="line"/>
		</contour>
	</outline>
</glyph>
<glyph name="Oslash" format="2">
  <advance width="1581.512"/>
  <unicode hex="00D8"/>
  <anchor x="790.904" y="1340.0" name="UCtop"/>
  <anchor x="790.904" y="0.0" name="bottom"/>
  <outline>
    <contour>
      <point x="392.864" y="316.952" type="line"/>
      <point x="314.112" y="251.864" type="line"/>
      <point x="76.176" y="0.0" type="line"/>
      <point x="247.056" y="0.0" type="line"/>
      <point x="399.552" y="161.664" type="line"/>
      <point x="468.08" y="222.936" type="line"/>
      <point x="1190.52" y="1021.752" type="line"/>
      <point x="1270.568" y="1088.136" type="line"/>
      <point x="1508.504" y="1340.0" type="line"/>
      <point x="1337.624" y="1340.0" type="line"/>
      <point x="1185.128" y="1178.336" type="line"/>
      <point x="1115.304" y="1115.768" type="line"/>
    </contour>
    <contour>
      <point x="804.16" y="1366.48" type="curve" smooth="yes"/>
      <point x="383.112" y="1366.48"/>
      <point x="85.968" y="1082.072"/>
      <point x="85.968" y="668.0" type="curve" smooth="yes"/>
      <point x="85.968" y="250.392"/>
      <point x="364.024" y="-26.48"/>
      <point x="777.352" y="-26.48" type="curve" smooth="yes"/>
      <point x="1198.4" y="-26.48"/>
      <point x="1495.544" y="257.928"/>
      <point x="1495.544" y="672.0" type="curve" smooth="yes"/>
      <point x="1495.544" y="1089.608"/>
      <point x="1217.488" y="1366.48"/>
    </contour>
    <contour>
      <point x="800.552" y="105.696" type="curve" smooth="yes"/>
      <point x="571.056" y="105.696"/>
      <point x="409.00800000000004" y="315.904"/>
      <point x="409.00800000000004" y="727.864" type="curve" smooth="yes"/>
      <point x="409.00800000000004" y="1067.44"/>
      <point x="563.256" y="1234.304"/>
      <point x="780.96" y="1234.304" type="curve" smooth="yes"/>
      <point x="1010.456" y="1234.304"/>
      <point x="1172.504" y="1024.096"/>
      <point x="1172.504" y="612.136" type="curve" smooth="yes"/>
      <point x="1172.504" y="272.56"/>
      <point x="1018.256" y="105.696"/>
    </contour>
  </outline>
</glyph>
<glyph name="germandbls" format="2">
  <advance width="1316.36"/>
  <unicode hex="00DF"/>
  <outline>
    <contour>
      <point x="186.968" y="846.88" type="curve" smooth="yes"/>
      <point x="186.968" y="92.776" type="line"/>
      <point x="64.776" y="40.24" type="line"/>
      <point x="64.776" y="0.0" type="line"/>
      <point x="554.48" y="0.0" type="line"/>
      <point x="554.48" y="40.24" type="line"/>
      <point x="463.86400000000003" y="94.072" type="line"/>
      <point x="463.86400000000003" y="1038.76" type="line" smooth="yes"/>
      <point x="463.86400000000003" y="1237.696"/>
      <point x="552.424" y="1328.928"/>
      <point x="711.856" y="1328.928" type="curve" smooth="yes"/>
      <point x="852.08" y="1328.928"/>
      <point x="933.448" y="1240.8"/>
      <point x="933.448" y="1138.968" type="curve" smooth="yes"/>
      <point x="933.448" y="924.728"/>
      <point x="651.928" y="897.576"/>
      <point x="651.928" y="660.824" type="curve" smooth="yes"/>
      <point x="651.928" y="349.904"/>
      <point x="1051.432" y="442.36"/>
      <point x="1051.432" y="209.448" type="curve" smooth="yes"/>
      <point x="1051.432" y="106.296"/>
      <point x="981.28" y="59.903999999999996"/>
      <point x="858.056" y="59.903999999999996" type="curve" smooth="yes"/>
      <point x="802.52" y="59.903999999999996"/>
      <point x="747.32" y="65.736"/>
      <point x="675.336" y="95.72" type="curve"/>
      <point x="825.2" y="13.832" type="line"/>
      <point x="678.888" y="271.904" type="line"/>
      <point x="617.6320000000001" y="271.904" type="line"/>
      <point x="646.432" y="14.056000000000001" type="line"/>
      <point x="718.208" y="-13.536000000000001"/>
      <point x="803.296" y="-26.48"/>
      <point x="889.592" y="-26.48" type="curve" smooth="yes"/>
      <point x="1096.512" y="-26.48"/>
      <point x="1263.912" y="103.608"/>
      <point x="1263.912" y="306.23199999999997" type="curve" smooth="yes"/>
      <point x="1263.912" y="674.816"/>
      <point x="855.9680000000001" y="609.84"/>
      <point x="855.9680000000001" y="783.88" type="curve" smooth="yes"/>
      <point x="855.9680000000001" y="945.144"/>
      <point x="1145.248" y="957.208"/>
      <point x="1145.248" y="1176.872" type="curve" smooth="yes"/>
      <point x="1145.248" y="1313.352"/>
      <point x="1020.136" y="1425.48"/>
      <point x="750.376" y="1425.48" type="curve" smooth="yes"/>
      <point x="440.168" y="1425.48"/>
      <point x="186.968" y="1237.32"/>
    </contour>
    <contour>
      <point x="202.264" y="879.216" type="line"/>
      <point x="15.024000000000001" y="798.128" type="line"/>
      <point x="15.024000000000001" y="754.816" type="line"/>
      <point x="186.968" y="701.008" type="line"/>
    </contour>
  </outline>
</glyph>
<glyph name="ae" format="2">
  <advance width="1417"/>
  <unicode hex="00E6"/>
  <anchor x="712.808" y="864.96" name="top"/>
  <anchor x="699.432" y="0.0" name="bottom"/>
  <outline>
    <contour>
      <point x="411.056" y="772.816" type="curve" smooth="yes"/>
      <point x="504.616" y="772.816"/>
      <point x="545.432" y="723.128"/>
      <point x="545.432" y="646.568" type="curve" smooth="yes"/>
      <point x="545.432" y="294.776" type="line" smooth="yes"/>
      <point x="545.432" y="188.864"/>
      <point x="493.424" y="140.84"/>
      <point x="421.84000000000003" y="140.84" type="curve" smooth="yes"/>
      <point x="362.336" y="140.84"/>
      <point x="321.72" y="177.528"/>
      <point x="321.72" y="262.696" type="curve" smooth="yes"/>
      <point x="321.72" y="337.68"/>
      <point x="353.648" y="398.072"/>
      <point x="594.808" y="454.20799999999997" type="curve"/>
      <point x="589.176" y="540.24" type="line"/>
      <point x="145.632" y="434.904"/>
      <point x="56.376" y="342.664"/>
      <point x="56.376" y="202.832" type="curve" smooth="yes"/>
      <point x="56.376" y="49.28"/>
      <point x="157.376" y="-26.48"/>
      <point x="301.20799999999997" y="-26.48" type="curve" smooth="yes"/>
      <point x="445.136" y="-26.48"/>
      <point x="571.408" y="64.52"/>
      <point x="588.688" y="289.216" type="curve"/>
      <point x="547.784" y="290.272" type="line"/>
      <point x="596.008" y="89.464"/>
      <point x="740.856" y="-26.48"/>
      <point x="970.064" y="-26.48" type="curve" smooth="yes"/>
      <point x="1128.856" y="-26.48"/>
      <point x="1254.296" y="61.456"/>
      <point x="1365.776" y="192.456" type="curve"/>
      <point x="1331.056" y="241.488" type="line"/>
      <point x="1256.224" y="187.376"/>
      <point x="1189.056" y="166.096"/>
      <point x="1106.28" y="166.096" type="curve" smooth="yes"/>
      <point x="927.944" y="166.096"/>
      <point x="809.368" y="285.656"/>
      <point x="809.368" y="497.288" type="curve" smooth="yes"/>
      <point x="809.368" y="724.544"/>
      <point x="873.872" y="795.592"/>
      <point x="958.64" y="795.592" type="curve" smooth="yes"/>
      <point x="1049.072" y="795.592"/>
      <point x="1092.704" y="708.904"/>
      <point x="1100.224" y="543.224" type="curve"/>
      <point x="1231.728" y="587.68" type="line"/>
      <point x="741.896" y="559.792" type="line"/>
      <point x="741.192" y="475.296" type="line"/>
      <point x="1361.424" y="475.296" type="line"/>
      <point x="1340.184" y="735.48"/>
      <point x="1215.52" y="891.44"/>
      <point x="982.064" y="891.44" type="curve" smooth="yes"/>
      <point x="837.216" y="891.44"/>
      <point x="726.288" y="829.512"/>
      <point x="668.752" y="734.528" type="curve"/>
      <point x="791.608" y="734.528" type="line"/>
      <point x="765.48" y="829.92"/>
      <point x="691.336" y="888.272"/>
      <point x="527.784" y="888.272" type="curve" smooth="yes"/>
      <point x="300.664" y="888.272"/>
      <point x="70.672" y="767.384"/>
      <point x="70.672" y="654.928" type="curve" smooth="yes"/>
      <point x="70.672" y="614.56"/>
      <point x="103.44800000000001" y="592.264"/>
      <point x="161.648" y="592.264" type="curve" smooth="yes"/>
      <point x="204.664" y="592.264"/>
      <point x="245.792" y="609.392"/>
      <point x="267.79200000000003" y="633.688" type="curve" smooth="yes"/>
      <point x="290.44" y="657.336"/>
      <point x="302.736" y="703.432"/>
      <point x="317.512" y="817.752" type="curve"/>
      <point x="283.36" y="749.72" type="line"/>
      <point x="320.272" y="765.76"/>
      <point x="370.184" y="772.816"/>
    </contour>
  </outline>
</glyph>
<glyph name="ccedilla" format="2">
	<unicode hex="00E7"/>
	<advance width="899.632"/>
	<outline>
		<contour>
			<point x="594.6" y="891.44" type="curve" smooth="yes"/>
			<point x="253.664" y="891.44"/>
			<point x="56.856" y="677.032"/>
			<point x="56.856" y="407.832" type="curve" smooth="yes"/>
			<point x="56.856" y="162.296"/>
			<point x="223.224" y="-26.48"/>
			<point x="481.272" y="-26.48" type="curve" smooth="yes"/>
			<point x="614.512" y="-26.48"/>
			<point x="740.08" y="40.592"/>
			<point x="865.888" y="193.752" type="curve"/>
			<point x="829.576" y="241.488" type="line"/>
			<point x="757.096" y="187.376"/>
			<point x="691.632" y="166.096"/>
			<point x="609.56" y="166.096" type="curve" smooth="yes"/>
			<point x="430" y="166.096"/>
			<point x="315.664" y="286.88"/>
			<point x="315.664" y="529.712" type="curve" smooth="yes"/>
			<point x="315.664" y="711.032"/>
			<point x="395.024" y="785.352"/>
			<point x="481.048" y="785.352" type="curve" smooth="yes"/>
			<point x="565.44" y="785.352"/>
			<point x="620.12" y="632.84"/>
			<point x="734.968" y="632.84" type="curve" smooth="yes"/>
			<point x="803.872" y="632.84"/>
			<point x="860.016" y="679.856"/>
			<point x="860.016" y="751.112" type="curve" smooth="yes"/>
			<point x="860.016" y="823.2"/>
			<point x="787.112" y="891.44"/>
		</contour>
		<contour>
			<point x="380.328" y="-530" type="curve" smooth="yes"/>
			<point x="542.968" y="-530"/>
			<point x="655.656" y="-418.32"/>
			<point x="655.656" y="-298.04" type="curve" smooth="yes"/>
			<point x="655.656" y="-213.688"/>
			<point x="602.488" y="-147.28"/>
			<point x="403.472" y="-105.264" type="curve"/>
			<point x="398.696" y="-221" type="line"/>
			<point x="585.328" y="49.352" type="line"/>
			<point x="494.072" y="49.352" type="line"/>
			<point x="298.848" y="-229.144" type="line"/>
			<point x="298.848" y="-242.608" type="line"/>
			<point x="489.344" y="-276.568"/>
			<point x="528.96" y="-315.16"/>
			<point x="528.96" y="-369.072" type="curve" smooth="yes"/>
			<point x="528.96" y="-419.352"/>
			<point x="490.144" y="-449.28"/>
			<point x="436.568" y="-449.28" type="curve" smooth="yes"/>
			<point x="367.272" y="-449.28"/>
			<point x="348.2" y="-378.504"/>
			<point x="290.848" y="-378.504" type="curve" smooth="yes"/>
			<point x="253.368" y="-378.504"/>
			<point x="232.016" y="-405.28"/>
			<point x="232.016" y="-438.872" type="curve" smooth="yes"/>
			<point x="232.016" y="-486.408"/>
			<point x="280.088" y="-530"/>
		</contour>
	</outline>
</glyph>
<glyph name="eth" format="2">
	<unicode hex="00F0"/>
	<advance width="1073.12"/>
	<outline>
		<contour>
			<point x="519.496" y="-26.48" type="curve" smooth="yes"/>
			<point x="808.432" y="-26.48"/>
			<point x="995.56" y="144.616"/>
			<point x="995.56" y="524" type="curve" smooth="yes"/>
			<point x="995.56" y="977.472"/>
			<point x="827.672" y="1314.112"/>
			<point x="160.8" y="1424.776" type="curve"/>
			<point x="133.784" y="1339.392" type="line"/>
			<point x="543.216" y="1238.28"/>
			<point x="703.216" y="1075.392"/>
			<point x="727.992" y="687.992" type="curve"/>
			<point x="789.816" y="705.2" type="line"/>
			<point x="761.328" y="819.904"/>
			<point x="654.048" y="891.44"/>
			<point x="521.216" y="891.44" type="curve" smooth="yes"/>
			<point x="253.816" y="891.44"/>
			<point x="58.152" y="694.256"/>
			<point x="58.152" y="419.24" type="curve" smooth="yes"/>
			<point x="58.152" y="154.464"/>
			<point x="232.8" y="-26.48"/>
		</contour>
		<contour>
			<point x="533.272" y="74.496" type="curve" smooth="yes"/>
			<point x="414.392" y="74.496"/>
			<point x="350.16" y="213.144"/>
			<point x="350.16" y="476.568" type="curve" smooth="yes"/>
			<point x="350.16" y="709.384"/>
			<point x="420.336" y="790.464"/>
			<point x="520.44" y="790.464" type="curve" smooth="yes"/>
			<point x="639.32" y="790.464"/>
			<point x="703.552" y="651.816"/>
			<point x="703.552" y="388.392" type="curve" smooth="yes"/>
			<point x="703.552" y="155.576"/>
			<point x="633.376" y="74.496"/>
		</contour>
		<contour>
			<point x="344.064" y="953.264" type="line"/>
			<point x="888.352" y="1346.168" type="line"/>
			<point x="828.984" y="1428.72" type="line"/>
			<point x="284.048" y="1035.816" type="line"/>
		</contour>
	</outline>
</glyph>
<glyph name="divide" format="2">
  <advance width="1000"/>
  <unicode hex="00F7"/>
  <outline>
    <contour>
      <point x="500.0" y="253.44" type="curve" smooth="yes"/>
      <point x="424.336" y="253.44"/>
      <point x="370.56" y="195.368"/>
      <point x="370.56" y="125.0" type="curve" smooth="yes"/>
      <point x="370.56" y="54.632"/>
      <point x="424.336" y="-3.4400000000000013"/>
      <point x="500.0" y="-3.4400000000000013" type="curve" smooth="yes"/>
      <point x="575.664" y="-3.4400000000000013"/>
      <point x="629.44" y="54.632"/>
      <point x="629.44" y="125.0" type="curve" smooth="yes"/>
      <point x="629.44" y="195.368"/>
      <point x="575.664" y="253.44"/>
    </contour>
    <contour>
      <point x="500.0" y="875.44" type="curve" smooth="yes"/>
      <point x="424.336" y="875.44"/>
      <point x="370.56" y="817.368"/>
      <point x="370.56" y="747.0" type="curve" smooth="yes"/>
      <point x="370.56" y="676.632"/>
      <point x="424.336" y="618.56"/>
      <point x="500.0" y="618.56" type="curve" smooth="yes"/>
      <point x="575.664" y="618.56"/>
      <point x="629.44" y="676.632"/>
      <point x="629.44" y="747.0" type="curve" smooth="yes"/>
      <point x="629.44" y="817.368"/>
      <point x="575.664" y="875.44"/>
    </contour>
    <contour>
      <point x="123.56" y="497.44" type="line"/>
      <point x="123.56" y="374.56" type="line"/>
      <point x="876.44" y="374.56" type="line"/>
      <point x="876.44" y="497.44" type="line"/>
    </contour>
  </outline>
</glyph>
<glyph name="oslash" format="2">
	<unicode hex="00F8"/>
	<advance width="1082.048"/>
	<outline>
		<contour>
			<point x="49.152" y="0" type="line"/>
			<point x="196.368" y="0" type="line"/>
			<point x="301.144" y="108.536" type="line"/>
			<point x="355.88" y="144.832" type="line"/>
			<point x="803.832" y="664.296" type="line"/>
			<point x="858.92" y="684.816" type="line"/>
			<point x="1033.6" y="864.96" type="line"/>
			<point x="886.384" y="864.96" type="line"/>
			<point x="782.664" y="757.48" type="line"/>
			<point x="727.928" y="721.184" type="line"/>
			<point x="281.032" y="202.776" type="line"/>
			<point x="225.944" y="182.256" type="line"/>
		</contour>
		<contour>
			<point x="547.792" y="74.496" type="curve" smooth="yes"/>
			<point x="428.912" y="74.496"/>
			<point x="364.68" y="213.144"/>
			<point x="364.68" y="476.568" type="curve" smooth="yes"/>
			<point x="364.68" y="709.384"/>
			<point x="434.856" y="790.464"/>
			<point x="534.96" y="790.464" type="curve" smooth="yes"/>
			<point x="653.84" y="790.464"/>
			<point x="718.072" y="651.816"/>
			<point x="718.072" y="388.392" type="curve" smooth="yes"/>
			<point x="718.072" y="155.576"/>
			<point x="647.896" y="74.496"/>
		</contour>
		<contour>
			<point x="534.016" y="-26.48" type="curve" smooth="yes"/>
			<point x="814.416" y="-26.48"/>
			<point x="1010.08" y="170.704"/>
			<point x="1010.08" y="445.72" type="curve" smooth="yes"/>
			<point x="1010.08" y="710.496"/>
			<point x="835.432" y="891.44"/>
			<point x="548.736" y="891.44" type="curve" smooth="yes"/>
			<point x="268.336" y="891.44"/>
			<point x="72.672" y="694.256"/>
			<point x="72.672" y="419.24" type="curve" smooth="yes"/>
			<point x="72.672" y="154.464"/>
			<point x="247.32" y="-26.48"/>
		</contour>
	</outline>
	<anchor name="top" x="541.552" y="864.96"/>
	<anchor name="bottom" x="541.552" y="0"/>
</glyph>
<glyph name="thorn" format="2">
  <advance width="1103.56"/>
  <unicode hex="00FE"/>
  <outline>
    <contour>
      <point x="120.264" y="1162.92" type="curve"/>
      <point x="120.264" y="-410.744" type="line"/>
      <point x="-1.927999999999999" y="-463.28" type="line"/>
      <point x="-1.927999999999999" y="-503.52" type="line"/>
      <point x="540.592" y="-503.52" type="line"/>
      <point x="540.592" y="-463.28" type="line"/>
      <point x="397.15999999999997" y="-405.56" type="line"/>
      <point x="397.15999999999997" y="50.519999999999996" type="line"/>
      <point x="239.288" y="50.519999999999996" type="line"/>
      <point x="361.008" y="-4.48"/>
      <point x="446.36" y="-26.48"/>
      <point x="550.136" y="-26.48" type="curve" smooth="yes"/>
      <point x="817.392" y="-26.48"/>
      <point x="1044.408" y="161.816"/>
      <point x="1044.408" y="482.96" type="curve" smooth="yes"/>
      <point x="1044.408" y="715.424"/>
      <point x="913.648" y="891.44"/>
      <point x="674.312" y="891.44" type="curve" smooth="yes"/>
      <point x="571.704" y="891.44"/>
      <point x="453.944" y="833.408"/>
      <point x="319.2" y="751.776" type="curve"/>
      <point x="344.472" y="673.0" type="line"/>
      <point x="401.44" y="714.56"/>
      <point x="474.872" y="731.6"/>
      <point x="542.92" y="731.6" type="curve" smooth="yes"/>
      <point x="671.336" y="731.6"/>
      <point x="754.88" y="627.744"/>
      <point x="754.88" y="418.112" type="curve" smooth="yes"/>
      <point x="754.88" y="177.728"/>
      <point x="680.504" y="75.312"/>
      <point x="559.456" y="75.312" type="curve" smooth="yes"/>
      <point x="456.168" y="75.312"/>
      <point x="397.15999999999997" y="154.072"/>
      <point x="397.15999999999997" y="260.536" type="curve" smooth="yes"/>
      <point x="397.15999999999997" y="1211.696" type="line"/>
      <point x="414.93600000000004" y="1425.48" type="line"/>
      <point x="382.624" y="1425.48" type="line"/>
      <point x="-31.144000000000002" y="1312.32" type="line"/>
      <point x="-31.144000000000002" y="1268.344" type="line"/>
      <point x="46.855999999999995" y="1232.752"/>
      <point x="88.432" y="1203.64"/>
    </contour>
  </outline>
</glyph>
<glyph name="Aogonek" format="2">
  <advance width="1501"/>
  <unicode hex="0104"/>
  <outline>
    <contour>
      <point x="341.28" y="444.624" type="line"/>
      <point x="1019.776" y="444.624" type="line"/>
      <point x="1019.776" y="563.488" type="line"/>
      <point x="341.28" y="563.488" type="line"/>
    </contour>
    <contour>
      <point x="1379.376" y="104.664" type="line"/>
      <point x="840.432" y="1347.04" type="line"/>
      <point x="644.392" y="1347.04" type="line"/>
      <point x="129.28" y="102.664" type="line"/>
      <point x="-23.72" y="43.536" type="line"/>
      <point x="-23.72" y="0.0" type="line"/>
      <point x="422.256" y="0.0" type="line"/>
      <point x="422.256" y="43.536" type="line"/>
      <point x="267.032" y="102.664" type="line"/>
      <point x="666.984" y="1104.9279999999999" type="line"/>
      <point x="625.256" y="1104.9279999999999" type="line"/>
      <point x="1048.376" y="102.664" type="line"/>
      <point x="883.152" y="43.536" type="line"/>
      <point x="883.152" y="0.0" type="line"/>
      <point x="1527.376" y="0.0" type="line"/>
      <point x="1527.376" y="43.536" type="line"/>
    </contour>
    <contour>
      <point x="1209.256" y="-68.848" type="curve" smooth="yes"/>
      <point x="1272.336" y="46.0" type="line"/>
      <point x="1199.248" y="46.0" type="line"/>
      <point x="1110.1680000000001" y="-76.696" type="line" smooth="yes"/>
      <point x="998.88" y="-223.632"/>
      <point x="976.696" y="-288.576"/>
      <point x="976.696" y="-361.0" type="curve" smooth="yes"/>
      <point x="976.696" y="-458.576"/>
      <point x="1040.624" y="-530.0"/>
      <point x="1159.656" y="-530.0" type="curve" smooth="yes"/>
      <point x="1254.488" y="-530.0"/>
      <point x="1327.488" y="-490.48"/>
      <point x="1414.504" y="-381.664" type="curve"/>
      <point x="1377.08" y="-336.168" type="line"/>
      <point x="1322.688" y="-384.488"/>
      <point x="1282.9279999999999" y="-402.784"/>
      <point x="1239.9279999999999" y="-402.784" type="curve" smooth="yes"/>
      <point x="1170.448" y="-402.784"/>
      <point x="1126.096" y="-360.896"/>
      <point x="1126.096" y="-289.656" type="curve" smooth="yes"/>
      <point x="1126.096" y="-239.00799999999998"/>
      <point x="1141.688" y="-184.89600000000002"/>
    </contour>
  </outline>
</glyph>
<glyph name="aogonek" format="2">
  <advance width="954.072"/>
  <unicode hex="0105"/>
  <outline>
    <contour>
      <point x="962.664" y="72.888" type="line"/>
      <point x="962.664" y="136.38400000000001" type="line"/>
      <point x="930.96" y="116.384"/>
      <point x="900.44" y="107.92"/>
      <point x="874.624" y="107.92" type="curve" smooth="yes"/>
      <point x="832.992" y="107.92"/>
      <point x="812.472" y="131.792"/>
      <point x="812.472" y="182.776" type="curve" smooth="yes"/>
      <point x="812.472" y="613.208" type="line" smooth="yes"/>
      <point x="812.472" y="775.168"/>
      <point x="746.36" y="888.272"/>
      <point x="517.928" y="888.272" type="curve" smooth="yes"/>
      <point x="296.088" y="888.272"/>
      <point x="71.376" y="767.384"/>
      <point x="71.376" y="654.928" type="curve" smooth="yes"/>
      <point x="71.376" y="614.56"/>
      <point x="104.152" y="592.264"/>
      <point x="162.352" y="592.264" type="curve" smooth="yes"/>
      <point x="205.368" y="592.264"/>
      <point x="246.496" y="609.392"/>
      <point x="268.496" y="633.688" type="curve" smooth="yes"/>
      <point x="291.144" y="657.336"/>
      <point x="303.44" y="703.432"/>
      <point x="318.216" y="817.752" type="curve"/>
      <point x="284.064" y="749.72" type="line"/>
      <point x="318.16" y="764.352"/>
      <point x="363.144" y="772.816"/>
      <point x="401.2" y="772.816" type="curve" smooth="yes"/>
      <point x="494.76" y="772.816"/>
      <point x="535.576" y="723.128"/>
      <point x="535.576" y="646.568" type="curve" smooth="yes"/>
      <point x="535.576" y="266.48" type="line" smooth="yes"/>
      <point x="535.576" y="198.16"/>
      <point x="485.44" y="140.84"/>
      <point x="422.544" y="140.84" type="curve" smooth="yes"/>
      <point x="363.04" y="140.84"/>
      <point x="322.424" y="177.528"/>
      <point x="322.424" y="262.696" type="curve" smooth="yes"/>
      <point x="322.424" y="343.664"/>
      <point x="364.912" y="401.944"/>
      <point x="584.952" y="454.20799999999997" type="curve"/>
      <point x="579.32" y="542.352" type="line"/>
      <point x="154.784" y="440.888"/>
      <point x="57.08" y="347.592"/>
      <point x="57.08" y="202.832" type="curve" smooth="yes"/>
      <point x="57.08" y="48.576"/>
      <point x="156.32" y="-26.48"/>
      <point x="298.744" y="-26.48" type="curve" smooth="yes"/>
      <point x="420.112" y="-26.48"/>
      <point x="516.576" y="44.744"/>
      <point x="555.24" y="183.96" type="curve"/>
      <point x="545.352" y="180.44" type="line"/>
      <point x="548.592" y="57.775999999999996"/>
      <point x="602.648" y="-25.776"/>
      <point x="739.176" y="-25.776" type="curve" smooth="yes"/>
      <point x="766.064" y="-25.776"/>
      <point x="795.6" y="-19.48"/>
      <point x="825.784" y="-8.48" type="curve"/>
      <point x="816.08" y="8.168" type="line"/>
      <point x="732.2" y="-73.768" type="line" smooth="yes"/>
      <point x="592.504" y="-208.928"/>
      <point x="560.8" y="-275.744"/>
      <point x="560.8" y="-361.0" type="curve" smooth="yes"/>
      <point x="560.8" y="-458.576"/>
      <point x="624.728" y="-530.0"/>
      <point x="742.0" y="-530.0" type="curve" smooth="yes"/>
      <point x="836.832" y="-530.0"/>
      <point x="909.832" y="-490.48"/>
      <point x="996.848" y="-381.664" type="curve"/>
      <point x="959.424" y="-336.168" type="line"/>
      <point x="905.032" y="-384.488"/>
      <point x="865.272" y="-402.784"/>
      <point x="822.272" y="-402.784" type="curve" smooth="yes"/>
      <point x="754.552" y="-402.784"/>
      <point x="710.2" y="-365.432"/>
      <point x="710.2" y="-299.376" type="curve" smooth="yes"/>
      <point x="710.2" y="-243.544"/>
      <point x="739.976" y="-176.416"/>
      <point x="842.896" y="-62.68" type="curve" smooth="yes"/>
    </contour>
  </outline>
</glyph>
<glyph name="Dcroat" format="2">
	<unicode hex="0110"/>
	<advance width="1557.912"/>
	<outline>
		<contour>
			<point x="71.448" y="621.04" type="line"/>
			<point x="796.744" y="621.04" type="line"/>
			<point x="796.744" y="738.368" type="line"/>
			<point x="71.448" y="738.368" type="line"/>
		</contour>
		<contour>
			<point x="1158.664" y="687.352" type="curve" smooth="yes"/>
			<point x="1158.664" y="287.44"/>
			<point x="962.984" y="122.512"/>
			<point x="671.112" y="122.512" type="curve" smooth="yes"/>
			<point x="378.224" y="122.512" type="line"/>
			<point x="352.952" y="0" type="line"/>
			<point x="703.352" y="0" type="line" smooth="yes"/>
			<point x="1147.352" y="0"/>
			<point x="1482.352" y="260"/>
			<point x="1482.352" y="710" type="curve" smooth="yes"/>
			<point x="1482.352" y="1134"/>
			<point x="1225.352" y="1340"/>
			<point x="701.352" y="1340" type="curve" smooth="yes"/>
			<point x="352.952" y="1340" type="line"/>
			<point x="378.224" y="1217.488" type="line"/>
			<point x="653.648" y="1217.488" type="line" smooth="yes"/>
			<point x="966.336" y="1217.488"/>
			<point x="1158.664" y="1053.04"/>
		</contour>
		<contour>
			<point x="71.448" y="0" type="line"/>
			<point x="525.528" y="0" type="line"/>
			<point x="525.528" y="1340" type="line"/>
			<point x="71.448" y="1340" type="line"/>
			<point x="71.448" y="1296.464" type="line"/>
			<point x="216.488" y="1237.984" type="line"/>
			<point x="216.488" y="102.016" type="line"/>
			<point x="71.448" y="43.536" type="line"/>
		</contour>
	</outline>
</glyph>
<glyph name="Eogonek" format="2">
  <advance width="1320"/>
  <unicode hex="0118"/>
  <outline>
    <contour>
      <point x="956.576" y="965.0" type="line"/>
      <point x="858.6" y="965.0" type="line"/>
      <point x="836.6" y="764.256" type="line"/>
      <point x="362.616" y="764.256" type="line"/>
      <point x="362.616" y="641.744" type="line"/>
      <point x="836.6" y="641.744" type="line"/>
      <point x="858.6" y="441.0" type="line"/>
      <point x="956.576" y="441.0" type="line"/>
      <point x="956.576" y="703.0" type="line"/>
    </contour>
    <contour>
      <point x="1231.608" y="950.984" type="line"/>
      <point x="1151.056" y="1406.496" type="line"/>
      <point x="1120.8" y="1406.496" type="line"/>
      <point x="997.784" y="1340.0" type="line"/>
      <point x="362.616" y="1340.0" type="line"/>
      <point x="362.616" y="1217.488" type="line"/>
      <point x="1039.616" y="1217.488" type="line"/>
      <point x="957.4" y="1263.76" type="line"/>
      <point x="1174.24" y="937.448" type="line"/>
    </contour>
    <contour>
      <point x="991.6" y="77.072" type="line"/>
      <point x="1054.096" y="122.512" type="line"/>
      <point x="362.616" y="122.512" type="line"/>
      <point x="362.616" y="0.0" type="line"/>
      <point x="1021.616" y="0.0" type="line"/>
      <point x="1156.056" y="-73.256" type="line"/>
      <point x="1189.552" y="-73.256" type="line"/>
      <point x="1273.864" y="417.952" type="line"/>
      <point x="1223.144" y="430.896" type="line"/>
    </contour>
    <contour>
      <point x="68.152" y="0.0" type="line"/>
      <point x="522.232" y="0.0" type="line"/>
      <point x="522.232" y="1340.0" type="line"/>
      <point x="68.152" y="1340.0" type="line"/>
      <point x="68.152" y="1296.464" type="line"/>
      <point x="213.192" y="1237.984" type="line"/>
      <point x="213.192" y="102.016" type="line"/>
      <point x="68.152" y="43.536" type="line"/>
    </contour>
    <contour>
      <point x="995.328" y="-68.848" type="curve" smooth="yes"/>
      <point x="1058.408" y="46.0" type="line"/>
      <point x="985.32" y="46.0" type="line"/>
      <point x="896.24" y="-76.696" type="line" smooth="yes"/>
      <point x="784.952" y="-223.632"/>
      <point x="762.768" y="-288.576"/>
      <point x="762.768" y="-361.0" type="curve" smooth="yes"/>
      <point x="762.768" y="-458.576"/>
      <point x="826.696" y="-530.0"/>
      <point x="945.728" y="-530.0" type="curve" smooth="yes"/>
      <point x="1040.56" y="-530.0"/>
      <point x="1113.56" y="-490.48"/>
      <point x="1200.576" y="-381.664" type="curve"/>
      <point x="1163.152" y="-336.168" type="line"/>
      <point x="1108.76" y="-384.488"/>
      <point x="1069.0" y="-402.784"/>
      <point x="1026.0" y="-402.784" type="curve" smooth="yes"/>
      <point x="956.52" y="-402.784"/>
      <point x="912.168" y="-360.896"/>
      <point x="912.168" y="-289.656" type="curve" smooth="yes"/>
      <point x="912.168" y="-239.00799999999998"/>
      <point x="927.76" y="-184.89600000000002"/>
    </contour>
  </outline>
</glyph>
<glyph name="eogonek" format="2">
  <advance width="937"/>
  <unicode hex="0119"/>
  <outline>
    <contour>
      <point x="883.6320000000001" y="192.456" type="line"/>
      <point x="848.912" y="241.488" type="line"/>
      <point x="774.08" y="187.376"/>
      <point x="706.912" y="166.096"/>
      <point x="624.136" y="166.096" type="curve" smooth="yes"/>
      <point x="439.464" y="166.096"/>
      <point x="316.664" y="285.656"/>
      <point x="316.664" y="497.288" type="curve" smooth="yes"/>
      <point x="316.664" y="724.544"/>
      <point x="385.392" y="795.592"/>
      <point x="476.496" y="795.592" type="curve" smooth="yes"/>
      <point x="566.928" y="795.592"/>
      <point x="610.56" y="708.904"/>
      <point x="618.08" y="543.224" type="curve"/>
      <point x="749.5840000000001" y="597.536" type="line"/>
      <point x="249.192" y="569.648" type="line"/>
      <point x="248.488" y="485.152" type="line"/>
      <point x="879.28" y="485.152" type="line"/>
      <point x="856.984" y="739.0"/>
      <point x="730.208" y="891.44"/>
      <point x="499.92" y="891.44" type="curve" smooth="yes"/>
      <point x="214.632" y="891.44"/>
      <point x="57.504" y="675.368"/>
      <point x="57.504" y="418.536" type="curve" smooth="yes"/>
      <point x="57.504" y="165.944"/>
      <point x="229.744" y="-26.48"/>
      <point x="492.848" y="-26.48" type="curve" smooth="yes"/>
      <point x="586.16" y="-26.48"/>
      <point x="667.472" y="5.5360000000000005"/>
      <point x="741.192" y="57.96" type="curve"/>
      <point x="728.544" y="73.55199999999999" type="line"/>
      <point x="635.312" y="-43.367999999999995" type="line" smooth="yes"/>
      <point x="520.264" y="-186.544"/>
      <point x="480.008" y="-271.448"/>
      <point x="480.008" y="-361.0" type="curve" smooth="yes"/>
      <point x="480.008" y="-458.576"/>
      <point x="543.936" y="-530.0"/>
      <point x="662.968" y="-530.0" type="curve" smooth="yes"/>
      <point x="757.8" y="-530.0"/>
      <point x="830.8" y="-490.48"/>
      <point x="917.816" y="-381.664" type="curve"/>
      <point x="880.392" y="-336.168" type="line"/>
      <point x="826.0" y="-384.488"/>
      <point x="786.24" y="-402.784"/>
      <point x="743.24" y="-402.784" type="curve" smooth="yes"/>
      <point x="673.76" y="-402.784"/>
      <point x="629.408" y="-360.896"/>
      <point x="629.408" y="-289.656" type="curve" smooth="yes"/>
      <point x="629.408" y="-235.84"/>
      <point x="641.6320000000001" y="-163.656"/>
      <point x="755.808" y="4.016000000000005" type="curve" smooth="yes"/>
    </contour>
  </outline>
</glyph>
<glyph name="Hbar" format="2">
  <advance width="1659"/>
  <unicode hex="0126"/>
  <outline>
    <contour>
      <point x="523.88" y="102.016" type="line"/>
      <point x="523.88" y="1237.984" type="line"/>
      <point x="668.92" y="1296.464" type="line"/>
      <point x="668.92" y="1340.0" type="line"/>
      <point x="69.8" y="1340.0" type="line"/>
      <point x="69.8" y="1296.464" type="line"/>
      <point x="214.84" y="1237.984" type="line"/>
      <point x="214.84" y="102.016" type="line"/>
      <point x="69.8" y="43.536" type="line"/>
      <point x="69.8" y="0.0" type="line"/>
      <point x="668.92" y="0.0" type="line"/>
      <point x="668.92" y="43.536" type="line"/>
    </contour>
    <contour>
      <point x="1444.008" y="102.016" type="line"/>
      <point x="1444.008" y="1237.984" type="line"/>
      <point x="1589.048" y="1296.464" type="line"/>
      <point x="1589.048" y="1340.0" type="line"/>
      <point x="989.928" y="1340.0" type="line"/>
      <point x="989.928" y="1296.464" type="line"/>
      <point x="1134.968" y="1237.984" type="line"/>
      <point x="1134.968" y="102.016" type="line"/>
      <point x="989.928" y="43.536" type="line"/>
      <point x="989.928" y="0.0" type="line"/>
      <point x="1589.048" y="0.0" type="line"/>
      <point x="1589.048" y="43.536" type="line"/>
    </contour>
    <contour>
      <point x="69.8" y="947.52" type="line"/>
      <point x="1589.048" y="947.52" type="line"/>
      <point x="1589.048" y="1064.848" type="line"/>
      <point x="69.8" y="1064.848" type="line"/>
    </contour>
    <contour>
      <point x="353.248" y="623.04" type="line"/>
      <point x="1306.248" y="623.04" type="line"/>
      <point x="1306.248" y="745.552" type="line"/>
      <point x="353.248" y="745.552" type="line"/>
    </contour>
  </outline>
</glyph>
<glyph name="hbar" format="2">
	<unicode hex="0127"/>
	<advance width="1148.168"/>
	<outline>
		<contour>
			<point x="624.032" y="40.24" type="line"/>
			<point x="624.032" y="0" type="line"/>
			<point x="1132.168" y="0" type="line"/>
			<point x="1132.168" y="40.24" type="line"/>
			<point x="1007.976" y="92.776" type="line"/>
			<point x="1007.976" y="561.96" type="line" smooth="yes"/>
			<point x="1007.976" y="785.96"/>
			<point x="924.496" y="891.44"/>
			<point x="748.592" y="891.44" type="curve" smooth="yes"/>
			<point x="620.848" y="891.44"/>
			<point x="524.272" y="853.64"/>
			<point x="355.408" y="669.24" type="curve"/>
			<point x="396.352" y="627.52" type="line"/>
			<point x="434.888" y="664.024"/>
			<point x="504.432" y="689.936"/>
			<point x="585.16" y="689.936" type="curve" smooth="yes"/>
			<point x="683.408" y="689.936"/>
			<point x="731.08" y="648.152"/>
			<point x="731.08" y="558.648" type="curve" smooth="yes"/>
			<point x="731.08" y="86.296" type="line"/>
		</contour>
		<contour>
			<point x="548.392" y="0" type="line"/>
			<point x="548.392" y="40.24" type="line"/>
			<point x="425.144" y="92.776" type="line"/>
			<point x="425.144" y="1211.696" type="line"/>
			<point x="442.92" y="1425.48" type="line"/>
			<point x="410.608" y="1425.48" type="line"/>
			<point x="-3.16" y="1312.32" type="line"/>
			<point x="-3.16" y="1268.344" type="line"/>
			<point x="74.84" y="1232.752"/>
			<point x="116.416" y="1203.64"/>
			<point x="148.248" y="1162.92" type="curve"/>
			<point x="148.248" y="92.776" type="line"/>
			<point x="26.056" y="40.24" type="line"/>
			<point x="26.056" y="0" type="line"/>
		</contour>
		<contour>
			<point x="-26.848" y="1018.224" type="line"/>
			<point x="700.288" y="1018.224" type="line"/>
			<point x="700.288" y="1134.848" type="line"/>
			<point x="-26.848" y="1134.848" type="line"/>
		</contour>
	</outline>
</glyph>
<glyph name="iogonek" format="2">
  <advance width="597"/>
  <unicode hex="012F"/>
  <outline>
    <contour>
      <point x="303.936" y="1098.056" type="curve" smooth="yes"/>
      <point x="402.152" y="1098.056"/>
      <point x="467.352" y="1168.848"/>
      <point x="467.352" y="1263.064" type="curve" smooth="yes"/>
      <point x="467.352" y="1355.336"/>
      <point x="402.152" y="1425.48"/>
      <point x="303.936" y="1425.48" type="curve" smooth="yes"/>
      <point x="207.016" y="1425.48"/>
      <point x="141.168" y="1355.336"/>
      <point x="141.168" y="1263.064" type="curve" smooth="yes"/>
      <point x="141.168" y="1168.848"/>
      <point x="207.016" y="1098.056"/>
    </contour>
    <contour>
      <point x="457.736" y="891.44" type="line"/>
      <point x="413.168" y="891.44" type="line"/>
      <point x="38.504" y="796.944" type="line"/>
      <point x="38.504" y="758.168" type="line"/>
      <point x="91.728" y="734.632"/>
      <point x="140.528" y="702.872"/>
      <point x="169.00799999999998" y="664.616" type="curve"/>
      <point x="169.00799999999998" y="92.776" type="line"/>
      <point x="46.816" y="40.24" type="line"/>
      <point x="46.816" y="0.0" type="line"/>
      <point x="569.152" y="0.0" type="line"/>
      <point x="569.152" y="40.24" type="line"/>
      <point x="445.904" y="92.776" type="line"/>
      <point x="445.904" y="683.432" type="line"/>
    </contour>
    <contour>
      <point x="322.168" y="-68.848" type="curve" smooth="yes"/>
      <point x="385.248" y="46.0" type="line"/>
      <point x="312.16" y="46.0" type="line"/>
      <point x="223.07999999999998" y="-76.696" type="line" smooth="yes"/>
      <point x="111.792" y="-223.632"/>
      <point x="89.608" y="-288.576"/>
      <point x="89.608" y="-361.0" type="curve" smooth="yes"/>
      <point x="89.608" y="-458.576"/>
      <point x="153.536" y="-530.0"/>
      <point x="272.568" y="-530.0" type="curve" smooth="yes"/>
      <point x="367.4" y="-530.0"/>
      <point x="440.4" y="-490.48"/>
      <point x="527.416" y="-381.664" type="curve"/>
      <point x="489.992" y="-336.168" type="line"/>
      <point x="435.6" y="-384.488"/>
      <point x="395.84000000000003" y="-402.784"/>
      <point x="352.84000000000003" y="-402.784" type="curve" smooth="yes"/>
      <point x="283.36" y="-402.784"/>
      <point x="239.008" y="-360.896"/>
      <point x="239.008" y="-289.656" type="curve" smooth="yes"/>
      <point x="239.008" y="-239.00799999999998"/>
      <point x="254.6" y="-184.89600000000002"/>
    </contour>
  </outline>
</glyph>
<glyph name="dotlessi" format="2">
  <advance width="597"/>
  <unicode hex="0131"/>
  <anchor x="299.032" y="864.96" name="top"/>
  <anchor x="307.456" y="0.0" name="bottom"/>
  <anchor x="430.928" y="0.0" name="right"/>
  <outline>
    <contour>
      <point x="457.736" y="891.44" type="line"/>
      <point x="413.168" y="891.44" type="line"/>
      <point x="38.504" y="796.944" type="line"/>
      <point x="38.504" y="758.168" type="line"/>
      <point x="91.728" y="734.632"/>
      <point x="140.528" y="702.872"/>
      <point x="169.00799999999998" y="664.616" type="curve"/>
      <point x="169.00799999999998" y="92.776" type="line"/>
      <point x="46.816" y="40.24" type="line"/>
      <point x="46.816" y="0.0" type="line"/>
      <point x="569.152" y="0.0" type="line"/>
      <point x="569.152" y="40.24" type="line"/>
      <point x="445.904" y="92.776" type="line"/>
      <point x="445.904" y="683.432" type="line"/>
    </contour>
  </outline>
</glyph>
<glyph name="kgreenlandic" format="2">
  <advance width="1158.328"/>
  <unicode hex="0138"/>
  <outline>
    <contour>
      <point x="514.56" y="404.52" type="line"/>
      <point x="755.352" y="82.24" type="line"/>
      <point x="670.752" y="40.24" type="line"/>
      <point x="670.752" y="0.0" type="line"/>
      <point x="1180.048" y="0.0" type="line"/>
      <point x="1180.048" y="40.24" type="line"/>
      <point x="1072.248" y="92.424" type="line"/>
      <point x="708.7280000000001" y="584.904" type="line"/>
      <point x="592.824" y="438.688" type="line"/>
      <point x="969.696" y="773.944" type="line"/>
      <point x="1104.824" y="818.72" type="line"/>
      <point x="1104.824" y="864.96" type="line"/>
      <point x="697.648" y="864.96" type="line"/>
      <point x="697.648" y="818.72" type="line"/>
      <point x="817.28" y="775.888" type="line"/>
      <point x="546.08" y="510.44" type="line"/>
      <point x="350.16" y="510.44" type="line"/>
      <point x="350.16" y="404.52" type="line"/>
    </contour>
    <contour>
      <point x="457.68" y="891.44" type="line"/>
      <point x="413.112" y="891.44" type="line"/>
      <point x="38.448" y="796.944" type="line"/>
      <point x="38.448" y="758.168" type="line"/>
      <point x="91.672" y="734.632"/>
      <point x="140.472" y="702.872"/>
      <point x="168.952" y="664.616" type="curve"/>
      <point x="168.952" y="92.776" type="line"/>
      <point x="46.76" y="40.24" type="line"/>
      <point x="46.76" y="0.0" type="line"/>
      <point x="556.136" y="0.0" type="line"/>
      <point x="556.136" y="40.24" type="line"/>
      <point x="445.848" y="89.536" type="line"/>
      <point x="445.848" y="683.432" type="line"/>
    </contour>
  </outline>
</glyph>
<glyph name="Lslash" format="2">
	<unicode hex="0141"/>
	<advance width="1293.296"/>
	<outline>
		<contour>
			<point x="344.696" y="577.072" type="line"/>
			<point x="435.064" y="592.76" type="line"/>
			<point x="822.76" y="823.848" type="line"/>
			<point x="822.76" y="955.528" type="line"/>
			<point x="435.064" y="724.44" type="line"/>
			<point x="344.696" y="708.752" type="line"/>
			<point x="75.944" y="548.608" type="line"/>
			<point x="75.944" y="416.928" type="line"/>
		</contour>
		<contour>
			<point x="1173.704" y="-80.384" type="line"/>
			<point x="1271.552" y="445.784" type="line"/>
			<point x="1215.296" y="459.672" type="line"/>
			<point x="958.68" y="79.904" type="line"/>
			<point x="1048.192" y="122.512" type="line"/>
			<point x="389.416" y="122.512" type="line"/>
			<point x="389.416" y="0" type="line"/>
			<point x="988.992" y="0" type="line"/>
			<point x="1132.616" y="-80.384" type="line"/>
		</contour>
		<contour>
			<point x="549.032" y="1237.984" type="line"/>
			<point x="694.072" y="1296.464" type="line"/>
			<point x="694.072" y="1340" type="line"/>
			<point x="94.952" y="1340" type="line"/>
			<point x="94.952" y="1296.464" type="line"/>
			<point x="239.992" y="1237.984" type="line"/>
			<point x="239.992" y="102.016" type="line"/>
			<point x="94.952" y="43.536" type="line"/>
			<point x="94.952" y="0" type="line"/>
			<point x="549.032" y="0" type="line"/>
		</contour>
	</outline>
</glyph>
<glyph name="lslash" format="2">
	<unicode hex="0142"/>
	<advance width="671.744"/>
	<outline>
		<contour>
			<point x="290.144" y="523.984" type="line"/>
			<point x="411.984" y="561.112" type="line"/>
			<point x="639.072" y="749.944" type="line"/>
			<point x="639.072" y="893.384" type="line"/>
			<point x="411.984" y="704.552" type="line"/>
			<point x="290.144" y="667.424" type="line"/>
			<point x="56.504" y="473.632" type="line"/>
			<point x="56.504" y="330.192" type="line"/>
		</contour>
		<contour>
			<point x="475.552" y="92.776" type="line"/>
			<point x="475.552" y="1211.696" type="line"/>
			<point x="493.328" y="1425.48" type="line"/>
			<point x="461.016" y="1425.48" type="line"/>
			<point x="47.248" y="1312.32" type="line"/>
			<point x="47.248" y="1268.344" type="line"/>
			<point x="125.248" y="1232.752"/>
			<point x="166.824" y="1203.64"/>
			<point x="198.656" y="1162.92" type="curve"/>
			<point x="198.656" y="92.776" type="line"/>
			<point x="76.464" y="40.24" type="line"/>
			<point x="76.464" y="0" type="line"/>
			<point x="598.8" y="0" type="line"/>
			<point x="598.8" y="40.24" type="line"/>
		</contour>
	</outline>
</glyph>
<glyph name="Eng" format="2">
  <advance width="1514"/>
  <unicode hex="014A"/>
  <outline>
    <contour>
      <point x="1243.072" y="436.904" type="line"/>
      <point x="554.28" y="1340.0" type="line"/>
      <point x="53.488" y="1340.0" type="line"/>
      <point x="53.488" y="1301.0" type="line"/>
      <point x="216.488" y="1218.744" type="line"/>
      <point x="216.488" y="102.016" type="line"/>
      <point x="71.44800000000001" y="43.536" type="line"/>
      <point x="71.44800000000001" y="0.0" type="line"/>
      <point x="495.152" y="0.0" type="line"/>
      <point x="495.152" y="43.536" type="line"/>
      <point x="334.52" y="102.016" type="line"/>
      <point x="334.52" y="1230.0" type="line"/>
      <point x="285.32" y="1194.0" type="line"/>
      <point x="1240.96" y="-83.464" type="line"/>
    </contour>
    <contour>
      <point x="1315.064" y="-85.256" type="curve" smooth="yes"/>
      <point x="1315.064" y="1237.984" type="line"/>
      <point x="1460.104" y="1296.464" type="line"/>
      <point x="1460.104" y="1340.0" type="line"/>
      <point x="1036.4" y="1340.0" type="line"/>
      <point x="1036.4" y="1296.464" type="line"/>
      <point x="1197.032" y="1237.984" type="line"/>
      <point x="1197.032" y="-103.624" type="line" smooth="yes"/>
      <point x="1197.032" y="-318.488"/>
      <point x="1110.976" y="-398.264"/>
      <point x="993.072" y="-398.264" type="curve" smooth="yes"/>
      <point x="925.92" y="-398.264"/>
      <point x="847.944" y="-285.936"/>
      <point x="795.944" y="-285.936" type="curve" smooth="yes"/>
      <point x="737.816" y="-285.936"/>
      <point x="701.8" y="-335.712"/>
      <point x="701.8" y="-389.136" type="curve" smooth="yes"/>
      <point x="701.8" y="-476.632"/>
      <point x="775.632" y="-530.0"/>
      <point x="930.68" y="-530.0" type="curve" smooth="yes"/>
      <point x="1176.952" y="-530.0"/>
      <point x="1315.064" y="-389.944"/>
    </contour>
  </outline>
</glyph>
<glyph name="eng" format="2">
  <advance width="1136"/>
  <unicode hex="014B"/>
  <outline>
    <contour>
      <point x="445.848" y="689.0" type="line"/>
      <point x="393.81600000000003" y="891.44" type="line"/>
      <point x="361.152" y="891.44" type="line"/>
      <point x="37.8" y="775.184" type="line"/>
      <point x="37.8" y="738.52" type="line"/>
      <point x="100.936" y="714.352"/>
      <point x="137.88" y="689.52"/>
      <point x="168.952" y="647.432" type="curve"/>
      <point x="168.952" y="92.776" type="line"/>
      <point x="46.76" y="40.24" type="line"/>
      <point x="46.76" y="0.0" type="line"/>
      <point x="552.896" y="0.0" type="line"/>
      <point x="552.896" y="40.24" type="line"/>
      <point x="445.848" y="86.296" type="line"/>
    </contour>
    <contour>
      <point x="751.784" y="-117.71199999999999" type="line" smooth="yes"/>
      <point x="751.784" y="-262.576"/>
      <point x="737.264" y="-306.152"/>
      <point x="584.616" y="-474.76" type="curve"/>
      <point x="630.968" y="-530.0" type="line"/>
      <point x="992.128" y="-291.896"/>
      <point x="1028.68" y="-238.92000000000002"/>
      <point x="1028.68" y="-6.207999999999998" type="curve" smooth="yes"/>
      <point x="1028.68" y="561.96" type="line" smooth="yes"/>
      <point x="1028.68" y="785.96"/>
      <point x="945.2" y="891.44"/>
      <point x="769.296" y="891.44" type="curve" smooth="yes"/>
      <point x="641.552" y="891.44"/>
      <point x="544.976" y="853.64"/>
      <point x="376.112" y="669.24" type="curve"/>
      <point x="417.056" y="627.52" type="line"/>
      <point x="455.592" y="664.024"/>
      <point x="525.136" y="689.936"/>
      <point x="605.864" y="689.936" type="curve" smooth="yes"/>
      <point x="704.112" y="689.936"/>
      <point x="751.784" y="648.152"/>
      <point x="751.784" y="558.648" type="curve" smooth="yes"/>
    </contour>
  </outline>
</glyph>
<glyph name="OE" format="2">
	<unicode hex="0152"/>
	<advance width="2142.184"/>
	<outline>
		<contour>
			<point x="1778.816" y="965" type="line"/>
			<point x="1680.84" y="965" type="line"/>
			<point x="1658.84" y="764.256" type="line"/>
			<point x="1184.856" y="764.256" type="line"/>
			<point x="1184.856" y="641.744" type="line"/>
			<point x="1658.84" y="641.744" type="line"/>
			<point x="1680.84" y="441" type="line"/>
			<point x="1778.816" y="441" type="line"/>
			<point x="1778.816" y="703" type="line"/>
		</contour>
		<contour>
			<point x="1035.432" y="1340" type="line"/>
			<point x="1035.432" y="0" type="line"/>
			<point x="1344.472" y="0" type="line"/>
			<point x="1344.472" y="1340" type="line"/>
		</contour>
		<contour>
			<point x="860.728" y="0" type="curve" smooth="yes"/>
			<point x="1843.856" y="0" type="line"/>
			<point x="1978.296" y="-73.256" type="line"/>
			<point x="2011.792" y="-73.256" type="line"/>
			<point x="2096.104" y="417.952" type="line"/>
			<point x="2045.384" y="430.896" type="line"/>
			<point x="1813.84" y="77.072" type="line"/>
			<point x="1876.336" y="122.512" type="line"/>
			<point x="908.432" y="122.512" type="line" smooth="yes"/>
			<point x="599.264" y="122.512"/>
			<point x="399.896" y="298.16"/>
			<point x="399.896" y="664.2" type="curve" smooth="yes"/>
			<point x="399.896" y="1063.76"/>
			<point x="602.616" y="1217.488"/>
			<point x="890.968" y="1217.488" type="curve" smooth="yes"/>
			<point x="1861.856" y="1217.488" type="line"/>
			<point x="1779.64" y="1263.76" type="line"/>
			<point x="1996.48" y="937.448" type="line"/>
			<point x="2053.848" y="950.984" type="line"/>
			<point x="1973.296" y="1406.496" type="line"/>
			<point x="1943.04" y="1406.496" type="line"/>
			<point x="1820.024" y="1340" type="line"/>
			<point x="858.728" y="1340" type="line" smooth="yes"/>
			<point x="418.248" y="1340"/>
			<point x="76.208" y="1105.072"/>
			<point x="76.208" y="655.072" type="curve" smooth="yes"/>
			<point x="76.208" y="231.072"/>
			<point x="340.248" y="0"/>
		</contour>
	</outline>
</glyph>
<glyph name="oe" format="2">
  <advance width="1586"/>
  <unicode hex="0153"/>
  <anchor x="814.4159999999999" y="864.96" name="top"/>
  <anchor x="814.4159999999999" y="0.0" name="bottom"/>
  <outline>
    <contour>
      <point x="532.624" y="74.49600000000001" type="curve" smooth="yes"/>
      <point x="413.744" y="74.49600000000001"/>
      <point x="349.512" y="213.144"/>
      <point x="349.512" y="476.568" type="curve" smooth="yes"/>
      <point x="349.512" y="709.384"/>
      <point x="419.688" y="790.464"/>
      <point x="519.792" y="790.464" type="curve" smooth="yes"/>
      <point x="638.672" y="790.464"/>
      <point x="702.904" y="651.816"/>
      <point x="702.904" y="388.392" type="curve" smooth="yes"/>
      <point x="702.904" y="155.576"/>
      <point x="632.728" y="74.49600000000001"/>
    </contour>
    <contour>
      <point x="918.304" y="201.96" type="curve"/>
      <point x="771.904" y="201.96" type="line"/>
      <point x="846.552" y="57.184"/>
      <point x="979.496" y="-26.48"/>
      <point x="1143.88" y="-26.48" type="curve" smooth="yes"/>
      <point x="1300.56" y="-26.48"/>
      <point x="1424.944" y="63.92"/>
      <point x="1534.664" y="192.456" type="curve"/>
      <point x="1499.944" y="241.488" type="line"/>
      <point x="1425.112" y="187.376"/>
      <point x="1357.944" y="166.096"/>
      <point x="1275.168" y="166.096" type="curve" smooth="yes"/>
      <point x="1090.496" y="166.096"/>
      <point x="967.696" y="285.656"/>
      <point x="967.696" y="497.288" type="curve" smooth="yes"/>
      <point x="967.696" y="724.544"/>
      <point x="1036.424" y="795.592"/>
      <point x="1127.528" y="795.592" type="curve" smooth="yes"/>
      <point x="1217.96" y="795.592"/>
      <point x="1261.592" y="708.904"/>
      <point x="1269.112" y="543.224" type="curve"/>
      <point x="1400.616" y="597.536" type="line"/>
      <point x="900.224" y="569.648" type="line"/>
      <point x="899.52" y="485.152" type="line"/>
      <point x="1530.312" y="485.152" type="line"/>
      <point x="1508.016" y="739.0"/>
      <point x="1381.24" y="891.44"/>
      <point x="1150.952" y="891.44" type="curve" smooth="yes"/>
      <point x="984.92" y="891.44"/>
      <point x="868.456" y="810.072"/>
      <point x="792.16" y="683.904" type="curve"/>
      <point x="919.12" y="683.904" type="line"/>
      <point x="838.768" y="813.72"/>
      <point x="711.248" y="891.44"/>
      <point x="533.568" y="891.44" type="curve" smooth="yes"/>
      <point x="253.168" y="891.44"/>
      <point x="57.504" y="694.256"/>
      <point x="57.504" y="419.24" type="curve" smooth="yes"/>
      <point x="57.504" y="154.464"/>
      <point x="232.152" y="-26.48"/>
      <point x="518.848" y="-26.48" type="curve" smooth="yes"/>
      <point x="689.88" y="-26.48"/>
      <point x="833.712" y="54.888"/>
    </contour>
  </outline>
</glyph>
<glyph name="Scedilla" format="2">
	<unicode hex="015E"/>
	<advance width="1155.128"/>
	<outline>
		<contour>
			<point x="946.928" y="1286.72" type="line"/>
			<point x="831.912" y="1343.72"/>
			<point x="729.08" y="1366.48"/>
			<point x="601.008" y="1366.48" type="curve" smooth="yes"/>
			<point x="292.704" y="1366.48"/>
			<point x="96.008" y="1212.576"/>
			<point x="96.008" y="973.488" type="curve" smooth="yes"/>
			<point x="96.008" y="737.864"/>
			<point x="246.728" y="650.792"/>
			<point x="418.192" y="587.68" type="curve" smooth="yes"/>
			<point x="589.656" y="524.568"/>
			<point x="799.6" y="487.936"/>
			<point x="799.6" y="311.096" type="curve" smooth="yes"/>
			<point x="799.6" y="173.624"/>
			<point x="700" y="100.64"/>
			<point x="484.888" y="100.64" type="curve" smooth="yes"/>
			<point x="390.24" y="100.64"/>
			<point x="314" y="122.4"/>
			<point x="208.704" y="177.752" type="curve"/>
			<point x="437.56" y="34.52" type="line"/>
			<point x="138.704" y="420.344" type="line"/>
			<point x="75.52" y="420.344" type="line"/>
			<point x="162.52" y="33.52" type="line"/>
			<point x="286.72" y="-11.776"/>
			<point x="390.68" y="-26.48"/>
			<point x="534.232" y="-26.48" type="curve" smooth="yes"/>
			<point x="844.336" y="-26.48"/>
			<point x="1080.808" y="123.296"/>
			<point x="1080.808" y="412.4" type="curve" smooth="yes"/>
			<point x="1080.808" y="671.36"/>
			<point x="881.568" y="759.912"/>
			<point x="703.568" y="821.616" type="curve" smooth="yes"/>
			<point x="525.568" y="883.32"/>
			<point x="356.44" y="925.008"/>
			<point x="356.44" y="1071.904" type="curve" smooth="yes"/>
			<point x="356.44" y="1177.392"/>
			<point x="428.872" y="1246.304"/>
			<point x="593.744" y="1246.304" type="curve" smooth="yes"/>
			<point x="674.504" y="1246.304"/>
			<point x="751.576" y="1219.528"/>
			<point x="820.928" y="1169.88" type="curve"/>
			<point x="751.584" y="1248.28" type="line"/>
			<point x="966.704" y="927.616" type="line"/>
			<point x="1029.496" y="942.096" type="line"/>
			<point x="950.648" y="1410.96" type="line"/>
			<point x="914.856" y="1410.96" type="line"/>
			<point x="787.672" y="1313.408" type="line"/>
		</contour>
		<contour>
			<point x="474.288" y="-530" type="curve" smooth="yes"/>
			<point x="636.928" y="-530"/>
			<point x="749.616" y="-418.32"/>
			<point x="749.616" y="-298.04" type="curve" smooth="yes"/>
			<point x="749.616" y="-213.688"/>
			<point x="696.448" y="-147.28"/>
			<point x="497.432" y="-105.264" type="curve"/>
			<point x="492.656" y="-221" type="line"/>
			<point x="679.288" y="49.352" type="line"/>
			<point x="588.032" y="49.352" type="line"/>
			<point x="392.808" y="-229.144" type="line"/>
			<point x="392.808" y="-242.608" type="line"/>
			<point x="583.304" y="-276.568"/>
			<point x="622.92" y="-315.16"/>
			<point x="622.92" y="-369.072" type="curve" smooth="yes"/>
			<point x="622.92" y="-419.352"/>
			<point x="584.104" y="-449.28"/>
			<point x="530.528" y="-449.28" type="curve" smooth="yes"/>
			<point x="461.232" y="-449.28"/>
			<point x="442.16" y="-378.504"/>
			<point x="384.808" y="-378.504" type="curve" smooth="yes"/>
			<point x="347.328" y="-378.504"/>
			<point x="325.976" y="-405.28"/>
			<point x="325.976" y="-438.872" type="curve" smooth="yes"/>
			<point x="325.976" y="-486.408"/>
			<point x="374.048" y="-530"/>
		</contour>
	</outline>
</glyph>
<glyph name="scedilla" format="2">
	<unicode hex="015F"/>
	<advance width="788.648"/>
	<outline>
		<contour>
			<point x="420.528" y="891.44" type="curve" smooth="yes"/>
			<point x="237.848" y="891.44"/>
			<point x="76.376" y="794.072"/>
			<point x="76.376" y="615.32" type="curve" smooth="yes"/>
			<point x="76.376" y="484.04"/>
			<point x="139.176" y="393.88"/>
			<point x="289.96" y="344.232" type="curve" smooth="yes"/>
			<point x="440.744" y="293.936"/>
			<point x="507.256" y="262.936"/>
			<point x="507.256" y="185.632" type="curve" smooth="yes"/>
			<point x="507.256" y="100.536"/>
			<point x="432.44" y="59.904"/>
			<point x="318.104" y="59.904" type="curve" smooth="yes"/>
			<point x="262.736" y="59.904"/>
			<point x="207.056" y="67.144"/>
			<point x="135.944" y="95.72" type="curve"/>
			<point x="274.792" y="13.832" type="line"/>
			<point x="128.48" y="271.904" type="line"/>
			<point x="67.224" y="271.904" type="line"/>
			<point x="96.024" y="20.536" type="line"/>
			<point x="168.984" y="-11.296"/>
			<point x="255.144" y="-26.48"/>
			<point x="350.936" y="-26.48" type="curve" smooth="yes"/>
			<point x="564.224" y="-26.48"/>
			<point x="727.976" y="70.648"/>
			<point x="727.976" y="268.696" type="curve" smooth="yes"/>
			<point x="727.976" y="415.976"/>
			<point x="642.952" y="499.952"/>
			<point x="485.28" y="551.136" type="curve" smooth="yes"/>
			<point x="327.608" y="602.32"/>
			<point x="280.968" y="636.024"/>
			<point x="280.968" y="705.512" type="curve" smooth="yes"/>
			<point x="280.968" y="769.256"/>
			<point x="334.544" y="805.888"/>
			<point x="431.952" y="805.888" type="curve" smooth="yes"/>
			<point x="480.12" y="805.888"/>
			<point x="528.896" y="790.128"/>
			<point x="578.896" y="758.256" type="curve"/>
			<point x="498.584" y="840.96" type="line"/>
			<point x="619.264" y="601.2" type="line"/>
			<point x="684.944" y="601.2" type="line"/>
			<point x="675.128" y="839.792" type="line"/>
			<point x="590" y="875.2"/>
			<point x="524.984" y="891.44"/>
		</contour>
		<contour>
			<point x="290.624" y="-530" type="curve" smooth="yes"/>
			<point x="453.264" y="-530"/>
			<point x="565.952" y="-418.32"/>
			<point x="565.952" y="-298.04" type="curve" smooth="yes"/>
			<point x="565.952" y="-213.688"/>
			<point x="512.784" y="-147.28"/>
			<point x="313.768" y="-105.264" type="curve"/>
			<point x="308.992" y="-221" type="line"/>
			<point x="495.624" y="49.352" type="line"/>
			<point x="404.368" y="49.352" type="line"/>
			<point x="209.144" y="-229.144" type="line"/>
			<point x="209.144" y="-242.608" type="line"/>
			<point x="399.64" y="-276.568"/>
			<point x="439.256" y="-315.16"/>
			<point x="439.256" y="-369.072" type="curve" smooth="yes"/>
			<point x="439.256" y="-419.352"/>
			<point x="400.44" y="-449.28"/>
			<point x="346.864" y="-449.28" type="curve" smooth="yes"/>
			<point x="277.568" y="-449.28"/>
			<point x="258.496" y="-378.504"/>
			<point x="201.144" y="-378.504" type="curve" smooth="yes"/>
			<point x="163.664" y="-378.504"/>
			<point x="142.312" y="-405.28"/>
			<point x="142.312" y="-438.872" type="curve" smooth="yes"/>
			<point x="142.312" y="-486.408"/>
			<point x="190.384" y="-530"/>
		</contour>
	</outline>
</glyph>
<glyph name="uni0162" format="2">
  <advance width="1382"/>
  <unicode hex="0162"/>
  <outline>
    <contour>
      <point x="531.4159999999999" y="1274.464" type="line"/>
      <point x="531.4159999999999" y="102.016" type="line"/>
      <point x="386.376" y="43.536" type="line"/>
      <point x="386.376" y="0.0" type="line"/>
      <point x="985.496" y="0.0" type="line"/>
      <point x="985.496" y="43.536" type="line"/>
      <point x="840.456" y="102.016" type="line"/>
      <point x="840.456" y="1274.464" type="line"/>
    </contour>
    <contour>
      <point x="1202.936" y="1217.488" type="line"/>
      <point x="1112.88" y="1251.392" type="line"/>
      <point x="1287.408" y="936.88" type="line"/>
      <point x="1350.256" y="949.768" type="line"/>
      <point x="1307.664" y="1412.536" type="line"/>
      <point x="1271.52" y="1412.536" type="line"/>
      <point x="1100.712" y="1316.224" type="line"/>
      <point x="1179.936" y="1340.0" type="line"/>
      <point x="166.016" y="1340.0" type="line"/>
      <point x="281.528" y="1316.224" type="line"/>
      <point x="110.72" y="1412.536" type="line"/>
      <point x="74.576" y="1412.536" type="line"/>
      <point x="31.984" y="949.768" type="line"/>
      <point x="94.832" y="936.88" type="line"/>
      <point x="269.36" y="1251.392" type="line"/>
      <point x="143.016" y="1217.488" type="line"/>
    </contour>
    <contour>
      <point x="583.4" y="-530.0" type="curve" smooth="yes"/>
      <point x="746.04" y="-530.0"/>
      <point x="858.728" y="-418.32"/>
      <point x="858.728" y="-298.04" type="curve" smooth="yes"/>
      <point x="858.728" y="-213.688"/>
      <point x="805.56" y="-147.28"/>
      <point x="606.544" y="-105.264" type="curve"/>
      <point x="601.768" y="-221.0" type="line"/>
      <point x="788.4" y="49.352" type="line"/>
      <point x="697.144" y="49.352" type="line"/>
      <point x="501.92" y="-229.144" type="line"/>
      <point x="501.92" y="-242.608" type="line"/>
      <point x="692.416" y="-276.568"/>
      <point x="732.032" y="-315.16"/>
      <point x="732.032" y="-369.072" type="curve" smooth="yes"/>
      <point x="732.032" y="-419.352"/>
      <point x="693.216" y="-449.28"/>
      <point x="639.64" y="-449.28" type="curve" smooth="yes"/>
      <point x="570.344" y="-449.28"/>
      <point x="551.272" y="-378.504"/>
      <point x="493.92" y="-378.504" type="curve" smooth="yes"/>
      <point x="456.44" y="-378.504"/>
      <point x="435.088" y="-405.28"/>
      <point x="435.088" y="-438.872" type="curve" smooth="yes"/>
      <point x="435.088" y="-486.408"/>
      <point x="483.16" y="-530.0"/>
    </contour>
  </outline>
</glyph>
<glyph name="uni0163" format="2">
  <advance width="753.808"/>
  <unicode hex="0163"/>
  <outline>
    <contour>
      <point x="423.288" y="266.568" type="curve" smooth="yes"/>
      <point x="423.288" y="841.44" type="line"/>
      <point x="423.288" y="1047.8" type="line"/>
      <point x="354.704" y="1047.8" type="line"/>
      <point x="260.448" y="984.448"/>
      <point x="112.03999999999999" y="890.92"/>
      <point x="15.711999999999996" y="829.44" type="curve"/>
      <point x="15.711999999999996" y="788.112" type="line"/>
      <point x="147.04" y="687.84" type="line"/>
      <point x="147.04" y="236.64" type="line" smooth="yes"/>
      <point x="147.04" y="55.112"/>
      <point x="261.848" y="-25.072000000000003"/>
      <point x="427.896" y="-25.072000000000003" type="curve" smooth="yes"/>
      <point x="509.152" y="-25.072000000000003"/>
      <point x="617.92" y="19.256"/>
      <point x="754.656" y="127.176" type="curve"/>
      <point x="754.656" y="186.488" type="line"/>
      <point x="685.472" y="162.952"/>
      <point x="625.936" y="152.008"/>
      <point x="576.696" y="152.008" type="curve" smooth="yes"/>
      <point x="478.64" y="152.008"/>
      <point x="423.288" y="194.064"/>
    </contour>
    <contour>
      <point x="309.912" y="735.376" type="line"/>
      <point x="699.288" y="735.376" type="line"/>
      <point x="719.176" y="864.96" type="line"/>
      <point x="309.912" y="864.96" type="line"/>
    </contour>
    <contour>
      <point x="332.504" y="-530.0" type="curve" smooth="yes"/>
      <point x="495.144" y="-530.0"/>
      <point x="607.832" y="-418.32"/>
      <point x="607.832" y="-298.04" type="curve" smooth="yes"/>
      <point x="607.832" y="-213.688"/>
      <point x="554.664" y="-147.28"/>
      <point x="355.648" y="-105.264" type="curve"/>
      <point x="350.872" y="-221.0" type="line"/>
      <point x="537.504" y="49.352" type="line"/>
      <point x="446.248" y="49.352" type="line"/>
      <point x="251.024" y="-229.144" type="line"/>
      <point x="251.024" y="-242.608" type="line"/>
      <point x="441.52" y="-276.568"/>
      <point x="481.136" y="-315.16"/>
      <point x="481.136" y="-369.072" type="curve" smooth="yes"/>
      <point x="481.136" y="-419.352"/>
      <point x="442.32" y="-449.28"/>
      <point x="388.744" y="-449.28" type="curve" smooth="yes"/>
      <point x="319.448" y="-449.28"/>
      <point x="300.376" y="-378.504"/>
      <point x="243.024" y="-378.504" type="curve" smooth="yes"/>
      <point x="205.544" y="-378.504"/>
      <point x="184.192" y="-405.28"/>
      <point x="184.192" y="-438.872" type="curve" smooth="yes"/>
      <point x="184.192" y="-486.408"/>
      <point x="232.264" y="-530.0"/>
    </contour>
  </outline>
</glyph>
<glyph name="tbar" format="2">
  <advance width="767.992"/>
  <unicode hex="0167"/>
  <outline>
    <contour>
      <point x="21.096" y="412.0" type="line"/>
      <point x="681.192" y="412.0" type="line"/>
      <point x="681.192" y="528.624" type="line"/>
      <point x="21.096" y="528.624" type="line"/>
    </contour>
    <contour>
      <point x="436.12" y="266.568" type="curve" smooth="yes"/>
      <point x="436.12" y="841.44" type="line"/>
      <point x="436.12" y="1047.8" type="line"/>
      <point x="367.536" y="1047.8" type="line"/>
      <point x="273.28" y="984.448"/>
      <point x="124.872" y="890.92"/>
      <point x="28.544" y="829.44" type="curve"/>
      <point x="28.544" y="788.112" type="line"/>
      <point x="159.872" y="687.84" type="line"/>
      <point x="159.872" y="236.64" type="line" smooth="yes"/>
      <point x="159.872" y="55.112"/>
      <point x="274.68" y="-25.072000000000003"/>
      <point x="440.728" y="-25.072000000000003" type="curve" smooth="yes"/>
      <point x="521.984" y="-25.072000000000003"/>
      <point x="630.752" y="19.256"/>
      <point x="767.488" y="127.176" type="curve"/>
      <point x="767.488" y="186.488" type="line"/>
      <point x="698.304" y="162.952"/>
      <point x="638.768" y="152.008"/>
      <point x="589.528" y="152.008" type="curve" smooth="yes"/>
      <point x="491.472" y="152.008"/>
      <point x="436.12" y="194.064"/>
    </contour>
    <contour>
      <point x="322.744" y="735.376" type="line"/>
      <point x="712.12" y="735.376" type="line"/>
      <point x="732.008" y="864.96" type="line"/>
      <point x="322.744" y="864.96" type="line"/>
    </contour>
  </outline>
</glyph>
<glyph name="uogonek" format="2">
	<unicode hex="0173"/>
	<advance width="1120.848"/>
	<outline>
		<contour>
			<point x="419.976" y="296.904" type="curve" smooth="yes"/>
			<point x="419.976" y="748.872" type="line"/>
			<point x="432.864" y="883.2" type="line"/>
			<point x="17.28" y="849.76" type="line"/>
			<point x="17.28" y="799.744" type="line"/>
			<point x="143.728" y="736.504" type="line"/>
			<point x="143.728" y="290.536" type="line" smooth="yes"/>
			<point x="143.728" y="78.112"/>
			<point x="224.208" y="-26.48"/>
			<point x="395.872" y="-26.48" type="curve" smooth="yes"/>
			<point x="518.152" y="-26.48"/>
			<point x="607.152" y="9.264"/>
			<point x="769.664" y="186.608" type="curve"/>
			<point x="729.72" y="232.384" type="line"/>
			<point x="693.776" y="197.528"/>
			<point x="627.584" y="175.376"/>
			<point x="555.08" y="175.376" type="curve" smooth="yes"/>
			<point x="456.144" y="175.376"/>
			<point x="419.976" y="206.008"/>
		</contour>
		<contour>
			<point x="714.224" y="-18.592" type="line"/>
			<point x="746.536" y="-18.592" type="line"/>
			<point x="1098.936" y="50.944" type="line"/>
			<point x="1098.936" y="89.368" type="line"/>
			<point x="1046.568" y="107.032"/>
			<point x="1000.472" y="134.088"/>
			<point x="969.344" y="167.864" type="curve"/>
			<point x="969.344" y="742.392" type="line"/>
			<point x="985.176" y="883.2" type="line"/>
			<point x="584.44" y="849.76" type="line"/>
			<point x="584.44" y="799.744" type="line"/>
			<point x="692.096" y="742.984" type="line"/>
			<point x="692.096" y="183.496" type="line"/>
		</contour>
		<contour>
			<point x="763.728" y="-68.848" type="curve" smooth="yes"/>
			<point x="826.808" y="46" type="line"/>
			<point x="753.72" y="46" type="line"/>
			<point x="664.64" y="-76.696" type="line" smooth="yes"/>
			<point x="553.352" y="-223.632"/>
			<point x="531.168" y="-288.576"/>
			<point x="531.168" y="-361" type="curve" smooth="yes"/>
			<point x="531.168" y="-458.576"/>
			<point x="595.096" y="-530"/>
			<point x="714.128" y="-530" type="curve" smooth="yes"/>
			<point x="808.96" y="-530"/>
			<point x="881.96" y="-490.48"/>
			<point x="968.976" y="-381.664" type="curve"/>
			<point x="931.552" y="-336.168" type="line"/>
			<point x="877.16" y="-384.488"/>
			<point x="837.4" y="-402.784"/>
			<point x="794.4" y="-402.784" type="curve" smooth="yes"/>
			<point x="724.92" y="-402.784"/>
			<point x="680.568" y="-360.896"/>
			<point x="680.568" y="-289.656" type="curve" smooth="yes"/>
			<point x="680.568" y="-239.008"/>
			<point x="696.16" y="-184.896"/>
		</contour>
	</outline>
</glyph>
<glyph name="uni018F" format="2">
  <advance width="1404"/>
  <unicode hex="018F"/>
  <outline>
    <contour>
      <point x="265.456" y="465.072" type="line"/>
      <point x="1144.472" y="465.072" type="line"/>
      <point x="1145.528" y="587.5840000000001" type="line"/>
      <point x="66.44800000000001" y="587.5840000000001" type="line"/>
      <point x="100.392" y="203.144"/>
      <point x="297.28" y="-26.48"/>
      <point x="654.624" y="-26.48" type="curve" smooth="yes"/>
      <point x="1086.04" y="-26.48"/>
      <point x="1328.744" y="301.296"/>
      <point x="1328.744" y="689.24" type="curve" smooth="yes"/>
      <point x="1328.744" y="1080.776"/>
      <point x="1082.416" y="1366.48"/>
      <point x="677.608" y="1366.48" type="curve" smooth="yes"/>
      <point x="452.24" y="1366.48"/>
      <point x="267.952" y="1268.912"/>
      <point x="67.432" y="1080.416" type="curve"/>
      <point x="128.632" y="1000.68" type="line"/>
      <point x="269.408" y="1105.864"/>
      <point x="408.8" y="1150.368"/>
      <point x="595.376" y="1150.368" type="curve" smooth="yes"/>
      <point x="867.288" y="1150.368"/>
      <point x="1042.4" y="956.808"/>
      <point x="1042.4" y="602.32" type="curve" smooth="yes"/>
      <point x="1042.4" y="221.16"/>
      <point x="881.264" y="101.80799999999999"/>
      <point x="673.088" y="101.80799999999999" type="curve" smooth="yes"/>
      <point x="477.712" y="101.80799999999999"/>
      <point x="371.152" y="237.864"/>
      <point x="353.744" y="523.08" type="curve"/>
    </contour>
  </outline>
</glyph>
<glyph name="ohorn" format="2">
  <advance width="1074.528"/>
  <unicode hex="01A1"/>
  <anchor x="526.384" y="864.96" name="top"/>
  <anchor x="526.384" y="0.0" name="bottom"/>
  <outline>
    <contour>
      <point x="532.624" y="74.49600000000001" type="curve" smooth="yes"/>
      <point x="413.744" y="74.49600000000001"/>
      <point x="349.512" y="213.144"/>
      <point x="349.512" y="476.568" type="curve" smooth="yes"/>
      <point x="349.512" y="709.384"/>
      <point x="419.688" y="790.464"/>
      <point x="519.792" y="790.464" type="curve" smooth="yes"/>
      <point x="638.672" y="790.464"/>
      <point x="702.904" y="651.816"/>
      <point x="702.904" y="388.392" type="curve" smooth="yes"/>
      <point x="702.904" y="155.576"/>
      <point x="632.728" y="74.49600000000001"/>
    </contour>
    <contour>
      <point x="1073.872" y="997.92" type="curve" smooth="yes"/>
      <point x="1073.872" y="1081.824"/>
      <point x="1027.448" y="1135.248"/>
      <point x="951.192" y="1135.248" type="curve" smooth="yes"/>
      <point x="893.936" y="1135.248"/>
      <point x="843.144" y="1100.416"/>
      <point x="842.496" y="1057.232" type="curve" smooth="yes"/>
      <point x="841.848" y="1030.024"/>
      <point x="874.272" y="988.032"/>
      <point x="874.272" y="929.256" type="curve" smooth="yes"/>
      <point x="874.272" y="888.0018064516129"/>
      <point x="850.456" y="862.848"/>
      <point x="777.528" y="862.848" type="curve" smooth="yes"/>
      <point x="710.656" y="862.848"/>
      <point x="644.4" y="891.44"/>
      <point x="533.568" y="891.44" type="curve" smooth="yes"/>
      <point x="253.168" y="891.44"/>
      <point x="57.504" y="694.256"/>
      <point x="57.504" y="419.24" type="curve" smooth="yes"/>
      <point x="57.504" y="154.464"/>
      <point x="232.152" y="-26.48"/>
      <point x="518.848" y="-26.48" type="curve" smooth="yes"/>
      <point x="799.248" y="-26.48"/>
      <point x="994.912" y="170.704"/>
      <point x="994.912" y="445.72" type="curve" smooth="yes"/>
      <point x="994.912" y="590.518232044199"/>
      <point x="939.856" y="727.016"/>
      <point x="823.448" y="807.072" type="curve"/>
      <point x="823.448" y="788.128" type="line"/>
      <point x="987.432" y="787.016"/>
      <point x="1073.872" y="872.848"/>
    </contour>
  </outline>
</glyph>
<glyph name="uni01EA" format="2">
  <advance width="1559"/>
  <unicode hex="01EA"/>
  <outline>
    <contour>
      <point x="792.752" y="1366.48" type="curve" smooth="yes"/>
      <point x="371.704" y="1366.48"/>
      <point x="74.56" y="1082.072"/>
      <point x="74.56" y="668.0" type="curve" smooth="yes"/>
      <point x="74.56" y="250.392"/>
      <point x="352.616" y="-26.48"/>
      <point x="765.944" y="-26.48" type="curve" smooth="yes"/>
      <point x="1186.992" y="-26.48"/>
      <point x="1484.136" y="257.928"/>
      <point x="1484.136" y="672.0" type="curve" smooth="yes"/>
      <point x="1484.136" y="1089.608"/>
      <point x="1206.08" y="1366.48"/>
    </contour>
    <contour>
      <point x="789.144" y="105.696" type="curve" smooth="yes"/>
      <point x="559.648" y="105.696"/>
      <point x="397.6" y="315.904"/>
      <point x="397.6" y="727.864" type="curve" smooth="yes"/>
      <point x="397.6" y="1067.44"/>
      <point x="551.848" y="1234.304"/>
      <point x="769.552" y="1234.304" type="curve" smooth="yes"/>
      <point x="999.048" y="1234.304"/>
      <point x="1161.096" y="1024.096"/>
      <point x="1161.096" y="612.136" type="curve" smooth="yes"/>
      <point x="1161.096" y="272.56"/>
      <point x="1006.848" y="105.696"/>
    </contour>
    <contour>
      <point x="831.248" y="-68.848" type="curve" smooth="yes"/>
      <point x="894.328" y="46.0" type="line"/>
      <point x="821.24" y="46.0" type="line"/>
      <point x="732.16" y="-76.696" type="line" smooth="yes"/>
      <point x="620.872" y="-223.632"/>
      <point x="598.688" y="-288.576"/>
      <point x="598.688" y="-361.0" type="curve" smooth="yes"/>
      <point x="598.688" y="-458.576"/>
      <point x="662.616" y="-530.0"/>
      <point x="781.648" y="-530.0" type="curve" smooth="yes"/>
      <point x="876.48" y="-530.0"/>
      <point x="949.48" y="-490.48"/>
      <point x="1036.496" y="-381.664" type="curve"/>
      <point x="999.072" y="-336.168" type="line"/>
      <point x="944.68" y="-384.488"/>
      <point x="904.92" y="-402.784"/>
      <point x="861.92" y="-402.784" type="curve" smooth="yes"/>
      <point x="792.44" y="-402.784"/>
      <point x="748.088" y="-360.896"/>
      <point x="748.088" y="-289.656" type="curve" smooth="yes"/>
      <point x="748.088" y="-239.00799999999998"/>
      <point x="763.68" y="-184.89600000000002"/>
    </contour>
  </outline>
</glyph>
<glyph name="uni01EB" format="2">
  <advance width="1052"/>
  <unicode hex="01EB"/>
  <outline>
    <contour>
      <point x="532.624" y="74.49600000000001" type="curve" smooth="yes"/>
      <point x="413.744" y="74.49600000000001"/>
      <point x="349.512" y="213.144"/>
      <point x="349.512" y="476.568" type="curve" smooth="yes"/>
      <point x="349.512" y="709.384"/>
      <point x="419.688" y="790.464"/>
      <point x="519.792" y="790.464" type="curve" smooth="yes"/>
      <point x="638.672" y="790.464"/>
      <point x="702.904" y="651.816"/>
      <point x="702.904" y="388.392" type="curve" smooth="yes"/>
      <point x="702.904" y="155.576"/>
      <point x="632.728" y="74.49600000000001"/>
    </contour>
    <contour>
      <point x="518.848" y="-26.48" type="curve" smooth="yes"/>
      <point x="799.248" y="-26.48"/>
      <point x="994.912" y="170.704"/>
      <point x="994.912" y="445.72" type="curve" smooth="yes"/>
      <point x="994.912" y="710.496"/>
      <point x="820.264" y="891.44"/>
      <point x="533.568" y="891.44" type="curve" smooth="yes"/>
      <point x="253.168" y="891.44"/>
      <point x="57.504" y="694.256"/>
      <point x="57.504" y="419.24" type="curve" smooth="yes"/>
      <point x="57.504" y="154.464"/>
      <point x="232.152" y="-26.48"/>
    </contour>
    <contour>
      <point x="559.784" y="-68.848" type="curve" smooth="yes"/>
      <point x="618.328" y="46.0" type="line"/>
      <point x="545.24" y="46.0" type="line"/>
      <point x="461.344" y="-76.696" type="line" smooth="yes"/>
      <point x="359.128" y="-223.632"/>
      <point x="339.536" y="-288.576"/>
      <point x="339.536" y="-361.0" type="curve" smooth="yes"/>
      <point x="339.536" y="-458.576"/>
      <point x="403.464" y="-530.0"/>
      <point x="522.496" y="-530.0" type="curve" smooth="yes"/>
      <point x="617.328" y="-530.0"/>
      <point x="690.328" y="-490.48"/>
      <point x="777.344" y="-381.664" type="curve"/>
      <point x="739.92" y="-336.168" type="line"/>
      <point x="685.528" y="-384.488"/>
      <point x="645.768" y="-402.784"/>
      <point x="602.768" y="-402.784" type="curve" smooth="yes"/>
      <point x="533.288" y="-402.784"/>
      <point x="488.936" y="-360.896"/>
      <point x="488.936" y="-289.656" type="curve" smooth="yes"/>
      <point x="488.936" y="-239.00799999999998"/>
      <point x="499.344" y="-184.89600000000002"/>
    </contour>
  </outline>
</glyph>
<glyph name="uni0237" format="2">
	<unicode hex="0237"/>
	<advance width="551.944"/>
	<outline>
		<contour>
			<point x="152.488" y="664.616" type="curve"/>
			<point x="152.488" y="-117.712" type="line" smooth="yes"/>
			<point x="152.488" y="-262.576"/>
			<point x="137.968" y="-306.152"/>
			<point x="-14.68" y="-474.76" type="curve"/>
			<point x="31.672" y="-530" type="line"/>
			<point x="392.832" y="-291.896"/>
			<point x="429.384" y="-238.92"/>
			<point x="429.384" y="-6.208" type="curve" smooth="yes"/>
			<point x="429.384" y="683.432" type="line"/>
			<point x="441.216" y="891.44" type="line"/>
			<point x="396.648" y="891.44" type="line"/>
			<point x="21.984" y="796.944" type="line"/>
			<point x="21.984" y="758.168" type="line"/>
			<point x="75.208" y="734.632"/>
			<point x="124.008" y="702.872"/>
		</contour>
	</outline>
	<anchor name="top" x="268.904" y="864.96"/>
	<anchor name="bottom" x="252.296" y="-510.56"/>
</glyph>
<glyph name="uni0259" format="2">
  <advance width="935"/>
  <unicode hex="0259"/>
  <outline>
    <contour>
      <point x="434.808" y="-26.48" type="curve" smooth="yes"/>
      <point x="720.096" y="-26.48"/>
      <point x="877.224" y="189.592"/>
      <point x="877.224" y="446.424" type="curve" smooth="yes"/>
      <point x="877.224" y="699.016"/>
      <point x="704.984" y="891.44"/>
      <point x="441.88" y="891.44" type="curve" smooth="yes"/>
      <point x="285.2" y="891.44"/>
      <point x="160.816" y="801.04"/>
      <point x="51.096000000000004" y="672.504" type="curve"/>
      <point x="85.816" y="623.472" type="line"/>
      <point x="160.648" y="677.584"/>
      <point x="227.816" y="698.864"/>
      <point x="310.592" y="698.864" type="curve" smooth="yes"/>
      <point x="495.264" y="698.864"/>
      <point x="618.064" y="579.304"/>
      <point x="618.064" y="367.672" type="curve" smooth="yes"/>
      <point x="618.064" y="140.416"/>
      <point x="549.336" y="69.368"/>
      <point x="458.23199999999997" y="69.368" type="curve" smooth="yes"/>
      <point x="367.8" y="69.368"/>
      <point x="324.168" y="156.056"/>
      <point x="316.648" y="321.736" type="curve"/>
      <point x="185.144" y="267.424" type="line"/>
      <point x="685.536" y="295.312" type="line"/>
      <point x="686.24" y="379.808" type="line"/>
      <point x="55.448" y="379.808" type="line"/>
      <point x="77.744" y="125.96000000000001"/>
      <point x="204.52" y="-26.48"/>
    </contour>
  </outline>
</glyph>
<glyph name="gravecomb" format="2">
  <unicode hex="0300"/>
  <anchor x="0.0" y="864.96" name="_top"/>
  <anchor x="-44.70399999999999" y="1340.0" name="top"/>
  <outline>
    <contour>
      <point x="53.519999999999996" y="1009.0" type="line"/>
      <point x="-79.50399999999999" y="1340.0" type="line"/>
      <point x="-356.76800000000003" y="1340.0" type="line"/>
      <point x="-356.76800000000003" y="1303.8" type="line"/>
      <point x="-32.808" y="1009.0" type="line"/>
    </contour>
  </outline>
</glyph>
<glyph name="acutecomb" format="2">
	<unicode hex="0301"/>
	<outline>
		<contour>
			<point x="-53.52" y="1009" type="line"/>
			<point x="32.808" y="1009" type="line"/>
			<point x="356.768" y="1303.8" type="line"/>
			<point x="356.768" y="1340" type="line"/>
			<point x="79.504" y="1340" type="line"/>
		</contour>
	</outline>
	<anchor name="_top" x="0" y="864.96"/>
	<anchor name="top" x="44.704" y="1340"/>
</glyph>
<glyph name="uni0302" format="2">
  <unicode hex="0302"/>
  <anchor x="0.0" y="864.96" name="_top"/>
  <anchor x="0.0" y="1340.0" name="top"/>
  <outline>
    <contour>
      <point x="-312.288" y="1009.0" type="line"/>
      <point x="-210.352" y="1009.0" type="line"/>
      <point x="46.048" y="1218.536" type="line"/>
      <point x="-46.048" y="1218.536" type="line"/>
      <point x="210.352" y="1009.0" type="line"/>
      <point x="312.288" y="1009.0" type="line"/>
      <point x="101.088" y="1340.0" type="line"/>
      <point x="-101.088" y="1340.0" type="line"/>
    </contour>
  </outline>
</glyph>
<glyph name="tildecomb" format="2">
	<unicode hex="0303"/>
	<outline>
		<contour>
			<point x="303.048" y="1326" type="curve"/>
			<point x="218.96" y="1326" type="line"/>
			<point x="192.904" y="1217.752"/>
			<point x="171.904" y="1191.992"/>
			<point x="130.648" y="1191.992" type="curve" smooth="yes"/>
			<point x="58.2461353383" y="1191.992"/>
			<point x="-10.301875" y="1336"/>
			<point x="-115.704" y="1336" type="curve" smooth="yes"/>
			<point x="-212.648" y="1336"/>
			<point x="-258.976" y="1268.68"/>
			<point x="-303.048" y="1023" type="curve"/>
			<point x="-218.96" y="1023" type="line"/>
			<point x="-192.904" y="1131.248"/>
			<point x="-171.904" y="1157.008"/>
			<point x="-130.648" y="1157.008" type="curve" smooth="yes"/>
			<point x="-58.3585" y="1157.008"/>
			<point x="10.2925112782" y="1013"/>
			<point x="115.704" y="1013" type="curve" smooth="yes"/>
			<point x="212.648" y="1013"/>
			<point x="258.976" y="1080.32"/>
		</contour>
	</outline>
	<anchor name="_top" x="0" y="864.96"/>
	<anchor name="top" x="0" y="1255"/>
</glyph>
<glyph name="uni0304" format="2">
	<unicode hex="0304"/>
	<outline>
		<contour>
			<point x="-270.736" y="1109.04" type="line"/>
			<point x="270.736" y="1109.04" type="line"/>
			<point x="270.736" y="1240.96" type="line"/>
			<point x="-270.736" y="1240.96" type="line"/>
		</contour>
	</outline>
	<anchor name="_top" x="0" y="864.96"/>
	<anchor name="top" x="0" y="1340"/>
</glyph>
<glyph name="uni0306" format="2">
  <unicode hex="0306"/>
  <anchor x="0.0" y="864.96" name="_top"/>
  <anchor x="0.0" y="1340.0" name="top"/>
  <outline>
    <contour>
      <point x="0.0" y="1157.032" type="curve" smooth="yes"/>
      <point x="-120.608" y="1157.032"/>
      <point x="-185.0" y="1213.904"/>
      <point x="-213.0" y="1340.0" type="curve"/>
      <point x="-297.976" y="1340.0" type="line"/>
      <point x="-252.512" y="1081.0"/>
      <point x="-171.44" y="999.0"/>
      <point x="0.0" y="999.0" type="curve" smooth="yes"/>
      <point x="171.44" y="999.0"/>
      <point x="252.512" y="1081.0"/>
      <point x="297.976" y="1340.0" type="curve"/>
      <point x="213.0" y="1340.0" type="line"/>
      <point x="185.0" y="1213.904"/>
      <point x="120.608" y="1157.032"/>
    </contour>
  </outline>
</glyph>
<glyph name="uni0307" format="2">
  <unicode hex="0307"/>
  <anchor x="0.0" y="864.96" name="_top"/>
  <anchor x="0.0" y="1255.0" name="top"/>
  <anchor x="0.0" y="1175.0" name="_mid"/>
  <outline>
    <contour>
      <point x="0.0" y="1035.32" type="curve" smooth="yes"/>
      <point x="83.608" y="1035.32"/>
      <point x="141.328" y="1095.392"/>
      <point x="141.328" y="1174.352" type="curve" smooth="yes"/>
      <point x="141.328" y="1253.312"/>
      <point x="83.608" y="1314.68"/>
      <point x="0.0" y="1314.68" type="curve" smooth="yes"/>
      <point x="-83.608" y="1314.68"/>
      <point x="-141.328" y="1253.312"/>
      <point x="-141.328" y="1174.352" type="curve" smooth="yes"/>
      <point x="-141.328" y="1095.392"/>
      <point x="-83.608" y="1035.32"/>
    </contour>
  </outline>
</glyph>
<glyph name="uni0308" format="2">
	<unicode hex="0308"/>
	<outline>
		<contour>
			<point x="-202.384" y="1044.616" type="curve" smooth="yes"/>
			<point x="-124.424" y="1044.616"/>
			<point x="-71" y="1102.688"/>
			<point x="-71" y="1174.352" type="curve" smooth="yes"/>
			<point x="-71" y="1247.312"/>
			<point x="-124.424" y="1305.384"/>
			<point x="-202.384" y="1305.384" type="curve" smooth="yes"/>
			<point x="-279.696" y="1305.384"/>
			<point x="-333.768" y="1247.312"/>
			<point x="-333.768" y="1174.352" type="curve" smooth="yes"/>
			<point x="-333.768" y="1102.688"/>
			<point x="-279.696" y="1044.616"/>
		</contour>
		<contour>
			<point x="202.384" y="1044.616" type="curve" smooth="yes"/>
			<point x="280.344" y="1044.616"/>
			<point x="333.768" y="1102.688"/>
			<point x="333.768" y="1174.352" type="curve" smooth="yes"/>
			<point x="333.768" y="1247.312"/>
			<point x="280.344" y="1305.384"/>
			<point x="202.384" y="1305.384" type="curve" smooth="yes"/>
			<point x="125.072" y="1305.384"/>
			<point x="71" y="1247.312"/>
			<point x="71" y="1174.352" type="curve" smooth="yes"/>
			<point x="71" y="1102.688"/>
			<point x="125.072" y="1044.616"/>
		</contour>
	</outline>
	<anchor name="_top" x="0" y="864.96"/>
	<anchor name="top" x="0" y="1255"/>
</glyph>
<glyph name="hookabovecomb" format="2">
	<unicode hex="0309"/>
	<outline>
		<contour>
			<point x="-179.68" y="1219.728" type="line"/>
			<point x="36.72" y="1221.28"/>
			<point x="59.016" y="1196"/>
			<point x="59.016" y="1155.832" type="curve" smooth="yes"/>
			<point x="59.016" y="1119.368"/>
			<point x="37.904" y="1087.2"/>
			<point x="-92.648" y="1066.032" type="curve"/>
			<point x="-71.816" y="989.296" type="line"/>
			<point x="145.072" y="1029.576"/>
			<point x="206.344" y="1097.856"/>
			<point x="206.344" y="1194.76" type="curve" smooth="yes"/>
			<point x="206.344" y="1311.384"/>
			<point x="136.848" y="1374.088"/>
			<point x="-153.864" y="1381" type="curve"/>
		</contour>
	</outline>
	<anchor name="_top" x="-0.648" y="864.96"/>
	<anchor name="top" x="-0.648" y="1340"/>
</glyph>
<glyph name="uni030A" format="2">
	<unicode hex="030A"/>
	<outline>
		<contour>
			<point x="0" y="1359.72" type="curve" smooth="yes"/>
			<point x="-108.48" y="1359.72"/>
			<point x="-188.016" y="1282.48"/>
			<point x="-188.016" y="1174.352" type="curve" smooth="yes"/>
			<point x="-188.016" y="1067.52"/>
			<point x="-108.48" y="988.984"/>
			<point x="0" y="988.984" type="curve" smooth="yes"/>
			<point x="108.48" y="988.984"/>
			<point x="188.016" y="1067.52"/>
			<point x="188.016" y="1174.352" type="curve" smooth="yes"/>
			<point x="188.016" y="1282.48"/>
			<point x="108.48" y="1359.72"/>
		</contour>
		<contour>
			<point x="0" y="1057.112" type="curve" smooth="yes"/>
			<point x="-66.944" y="1057.112"/>
			<point x="-115.888" y="1106.056"/>
			<point x="-115.888" y="1174.352" type="curve" smooth="yes"/>
			<point x="-115.888" y="1245.24"/>
			<point x="-66.944" y="1294.184"/>
			<point x="0" y="1294.184" type="curve" smooth="yes"/>
			<point x="66.944" y="1294.184"/>
			<point x="115.888" y="1245.24"/>
			<point x="115.888" y="1174.352" type="curve" smooth="yes"/>
			<point x="115.888" y="1106.056"/>
			<point x="66.944" y="1057.112"/>
		</contour>
	</outline>
	<anchor name="_top" x="0" y="864.96"/>
	<anchor name="top" x="0" y="1340"/>
</glyph>
